<svg width="285" height="267" fill="none" xmlns="http://www.w3.org/2000/svg"><mask id="a" fill="#fff"><path d="M233.848 136.937l-13.022 42.453-12.671-38.758 13.852-44.456 11.841 40.761zm12.967 46.145l-10.161 38.463-12.671-38.758 12.211-41.792 10.621 42.087zm11.78 45.123l-6.556 38.509-12.671-38.758 9.355-38.137 9.872 38.386zM248.086 93.493l-11.777 39.449-12.257-39.76 14.639-43.439 9.395 43.75zm10.997 43.77l-10.203 41.483-10.626-41.752 11.763-38.442 9.066 38.711zm15.449-44.099l-13.374 39.092-9.057-39.382 13.808-41.436 8.623 41.726zm-4.174 90.275l-10.393 39.739-9.489-39.457 10.691-42.113 9.191 41.831zm13.97-46.52l-12.187 40.114-9.443-40.394 12.88-39.213 8.75 39.493zm-20.341-91.211l-13.813 41.771-9.419-42.072L255.729 2.98l8.258 42.729zM183.279 2.043l-16.175 42.076-62.934-.814 15.538-42.084 63.571.822zm-68.896-.891L98.208 43.228l-62.934-.814L50.812.33l63.571.822zM97.704 47.249L81.529 89.326l-62.934-.814 15.538-42.085 63.57.822zm-17.49 46.758L63.88 136.082l-63.577-.823 15.691-42.082 64.219.83zm85.584-45.877l-16.174 42.076-62.934-.814 15.538-42.084 63.57.822zM149.11 94.898l-16.174 42.077-62.935-.814L85.54 94.076l63.57.822zM251.373 2.923l-13.949 42.106-65.16-.843L187.803 2.1l63.57.822zM234.695 49.02l-13.95 42.106-65.159-.843 15.538-42.085 63.571.822zm-16.689 46.769l-13.95 42.105-65.159-.842 15.539-42.085 63.57.822zm-37.667 169.998l-15.032-38.453-62.935-.814 14.397 38.445 63.57.822zm-68.896-.891L96.57 226.445l-62.292-.805 14.244 38.443 62.921.813zM96.02 222.411l-15.032-38.453-62.934-.814 14.396 38.445 63.57.822zm-16.214-43.167l-15.19-38.455-63.578-.822 14.55 38.447 64.218.83zm84.309 44.048l-15.032-38.453-62.934-.814 14.396 38.445 63.57.822zm-15.413-43.157l-15.032-38.453-62.935-.813 14.397 38.444 63.57.822zm99.732 86.533l-12.807-38.424-65.16-.843 14.397 38.445 63.57.822zm-15.423-42.485l-12.807-38.425-65.16-.842 14.397 38.445 63.57.822zm-16.214-43.167l-12.671-38.422-64.495-.834 14.244 38.442 62.922.814z"/></mask><path d="M233.848 136.937l-13.022 42.453-12.671-38.758 13.852-44.456 11.841 40.761zm12.967 46.145l-10.161 38.463-12.671-38.758 12.211-41.792 10.621 42.087zm11.78 45.123l-6.556 38.509-12.671-38.758 9.355-38.137 9.872 38.386zM248.086 93.493l-11.777 39.449-12.257-39.76 14.639-43.439 9.395 43.75zm10.997 43.77l-10.203 41.483-10.626-41.752 11.763-38.442 9.066 38.711zm15.449-44.099l-13.374 39.092-9.057-39.382 13.808-41.436 8.623 41.726zm-4.174 90.275l-10.393 39.739-9.489-39.457 10.691-42.113 9.191 41.831zm13.97-46.52l-12.187 40.114-9.443-40.394 12.88-39.213 8.75 39.493zm-20.341-91.211l-13.813 41.771-9.419-42.072L255.729 2.98l8.258 42.729zM183.279 2.043l-16.175 42.076-62.934-.814 15.538-42.084 63.571.822zm-68.896-.891L98.208 43.228l-62.934-.814L50.812.33l63.571.822zM97.704 47.249L81.529 89.326l-62.934-.814 15.538-42.085 63.57.822zm-17.49 46.758L63.88 136.082l-63.577-.823 15.691-42.082 64.219.83zm85.584-45.877l-16.174 42.076-62.934-.814 15.538-42.084 63.57.822zM149.11 94.898l-16.174 42.077-62.935-.814L85.54 94.076l63.57.822zM251.373 2.923l-13.949 42.106-65.16-.843L187.803 2.1l63.57.822zM234.695 49.02l-13.95 42.106-65.159-.843 15.538-42.085 63.571.822zm-16.689 46.769l-13.95 42.105-65.159-.842 15.539-42.085 63.57.822zm-37.667 169.998l-15.032-38.453-62.935-.814 14.397 38.445 63.57.822zm-68.896-.891L96.57 226.445l-62.292-.805 14.244 38.443 62.921.813zM96.02 222.411l-15.032-38.453-62.934-.814 14.396 38.445 63.57.822zm-16.214-43.167l-15.19-38.455-63.578-.822 14.55 38.447 64.218.83zm84.309 44.048l-15.032-38.453-62.934-.814 14.396 38.445 63.57.822zm-15.413-43.157l-15.032-38.453-62.935-.813 14.397 38.444 63.57.822zm99.732 86.533l-12.807-38.424-65.16-.843 14.397 38.445 63.57.822zm-15.423-42.485l-12.807-38.425-65.16-.842 14.397 38.445 63.57.822zm-16.214-43.167l-12.671-38.422-64.495-.834 14.244 38.442 62.922.814z" stroke="#5F4E4E" stroke-width="2" mask="url(#a)"/></svg>