<svg width="91" height="90" fill="none" xmlns="http://www.w3.org/2000/svg"><path d="M90.46 0H.6a.07.07 0 00-.07.07v89.858c0 .039.032.07.07.07h89.86a.07.07 0 00.07-.07V.07a.07.07 0 00-.07-.07z" fill="#000"/><path d="M55.35 56.679l-2.79 18.05h10.6c1.74-12.52 5.07-34.94 4.72-37.6 0-12.07-10.22-21.86-22.5-21.86-3.08 0-6.01.61-8.68 1.73-3.23 1.32-6.07 3.4-8.29 6.01-3.28 3.81-5.26 8.74-5.26 14.12C23.15 49.21 33.1 59 45.38 59c3.58 0 6.97-.84 9.97-2.32zm-9.97-30.14c1.08 0 2.11.15 3.09.44h.01c.83.25 1.62.59 2.35 1.01h.01c.3.18.59.37.87.57l.02.01c.34.24.66.51.97.78l.02.02.13.13.02.02c.15.13.28.27.42.42l.02.02.11.12.05.05.1.12.03.04c.17.19.33.39.49.6l.03.05.1.13.03.05.09.12.05.08.08.11.11.18v.01l.07.11.05.08.07.12.05.09.06.12.05.07.06.13H55c.03.07.06.13.09.19v.01l.04.08.06.12.04.1.06.12.04.1.05.13.04.09.06.16.02.05.01.02c.02.07.05.14.07.21l.03.06.05.17.03.09.04.13.03.11.04.16.02.06c.02.07.04.14.05.21l.01.03.01.04.04.19.02.08.03.17.01.08.03.17.01.07.03.21.01.04.03.25v.05l.02.2.01.08.01.16v.1l.01.16v.09c0 .09.01.17.01.25 0 5.85-4.83 10.6-10.78 10.6h-.29l-.19-.01h-.04l-.06-.01h-.05l-.1-.01h-.06l-.09-.01h-.1l-.01-.01h-.02l-.19-.02h-.03c-5.37-.6-9.54-5.08-9.54-10.53 0-5.85 4.82-10.59 10.77-10.59z" fill="#FEFEFE"/></svg>