<svg width="135" height="22" fill="none" xmlns="http://www.w3.org/2000/svg"><mask id="a" style="mask-type:alpha" maskUnits="userSpaceOnUse" x="0" y="0" width="135" height="22"><g clip-path="url(#clip0_381_150)" fill="#F4F3F0"><path d="M0 2.075v-.53c.36-.014.715-.097 1.044-.244.197-.114.344-.383.441-.808h.546v5.474h-.737V2.075H0zM12.476.381c5.186 0 8.819 1.172 8.819 6.416 0 5.273-3.633 6.415-8.819 6.415H8.814v8.408H5.825V.38h6.651zm-3.662 2.52v7.704h3.897c3.104 0 5.537-.322 5.537-3.808 0-3.457-2.432-3.896-5.537-3.896H8.814zm17.461 16.141h11.221v2.578h-14.21V.38h2.99v18.66zM47.136.381h3.457L58.59 21.62h-3.223l-1.67-4.6h-9.756l-1.64 4.6h-3.048L47.136.38zm-2.286 14.09h7.91L48.776 3.4 44.85 14.47zm32.726.381c-.937 4.688-4.6 7.148-9.2 7.148-6.093 0-9.639-4.57-9.639-11.044C58.737 4.365 62.605 0 68.611 0c4.395 0 7.94 2.607 8.848 7.148h-2.9c-.645-2.636-2.695-4.628-6.094-4.628-3.75 0-6.68 2.929-6.68 8.437 0 5.36 2.812 8.524 6.768 8.524 3.37 0 5.449-1.904 6.123-4.629h2.9zM85.516.381h3.457l7.999 21.239h-3.223l-1.67-4.6h-9.757l-1.64 4.6h-3.046L85.516.38zm-2.285 14.09h7.91L87.157 3.4 83.23 14.47zm24.024-1.816c-.528.03-1.055.03-1.611.03h-3.75v8.934h-2.99V.381h6.74c5.185 0 8.847 1.026 8.847 6.123 0 3.368-1.611 4.98-4.219 5.684l4.923 9.434h-3.34l-4.6-8.967zm-5.363-9.754v7.264h3.986c3.106 0 5.537-.322 5.537-3.603 0-3.28-2.432-3.661-5.537-3.661h-3.986zm21.535-2.52C130.166.381 135 2.901 135 10.986c0 8.114-4.834 10.633-11.573 10.633h-5.801V.381h5.801zm-.088 2.52h-2.725v16.2h2.724c4.395 0 8.614-.88 8.614-8.115.001-7.207-4.219-8.085-8.614-8.085h.001z"/></g></mask><g mask="url(#a)"><path fill="#767676" d="M0 0h135v22H0z"/></g><defs><clipPath id="clip0_381_150"><path fill="#fff" d="M0 0h135v22H0z"/></clipPath></defs></svg>