<svg width="92" height="36" fill="none" xmlns="http://www.w3.org/2000/svg"><g clip-path="url(#clip0_381_151)"><mask id="a" style="mask-type:alpha" maskUnits="userSpaceOnUse" x="0" y="-1" width="93" height="38"><path d="M89.8 5.3c-2.2 6-10 12-15.1 12-3.4 0-4.5-2.7-4.8-5.2-.5.4-.9.8-1.2 1.1.3-.5.7-1 1.1-1.5 1.9-2.1 3.9-3.7 4.9-4.3 1.5-1 2.3-.6 2.8 0 1.8-1 .4-4-3.2-1.5-1.3.9-2.8 2.1-4.2 3.5-.7.8-1.3 1.6-1.6 2 .3-.6.6-1.2 1-1.8.5-1.2.8-2.2.8-3.1-.7-1.1-2.9-2-3.9-1.8.1.9-1.4 4.2-2.8 7.6-.5.4-1 .9-1.6 1.2.5-1.2.9-2.3.9-3.3-.6-1.7-3.9-2.6-5.5-1.8-.8.4-1.8 1.7-2.8 3.3-.8.8-1.8 1.5-2.7 1.9.1-.5.2-1 .2-1.4 0-1-.7-1.6-1.6-1.9.5-.9.9-1.7 1.5-2.6.8 0 5.4-.2 6-4.4.4-2.4-1.4-4-3.9-3.6-2.5 1.4-4.3 4.7-4.9 5.8.9.2 1.8.3 2.2.3-.5.1-1.4.1-2.3-.1-1.9-.2-4.6-1.1-7-.5-.6.6-1.2 2.1-1 2.9.6-.5 2-.7 2.9-.7 1.1 0 1.7.1 3.4.2 1 0 2.1.1 2.4.1-.3.3-1.2.3-2.1.4-.9 1.6-1.8 3.2-2.7 5.2-1 1.9-2.2 5.7-2.1 8.2.4 1.2 3.6 1 4.6.4 1.5-1.4 3.3-4.2 4.2-6.7-.3.1-.6.1-1 0 .5-.1.8-.3 1.1-.4.7-.3 1.4-.7 2.1-1.1-1.1 2.5-1.9 5.2-1.6 7.2.7 1.2 3.6.8 4.6.3 1.4-1.2 3.2-3.6 4.5-6h-.9c.6-.1 1-.3 1.4-.5l1.2-.6c-.8 2-1.4 4-1.5 5.3.4 1 2.4 1.2 3.6 1.1.1-.8.3-1.6 1.2-3.7.5-1 1.1-1.9 1.7-2.7.2 1.6.8 4 3 5.3-1.2.9-4.2 1.5-6.8 2-8.1 1.6-31.2 2-41.2 6 .1-1.4.5-3.6.9-5s1-3.5 1.7-5.8c-1.1.2-2.5.4-3 .3 1.9-.4 3.4-.8 4.5-1.2 1.5-.5 2.8-1 3.7-1.5.2-.1.4-.2.6-.4.2-.2.4-.3.5-.4-.1.3-.3.5-.7.7-.4.9-.8 1.8-1 2.5-1.1 2.8-1.7 6.4-1.2 7.8.9.7 3 .3 3.5-.4 2.4-1.9 4-5.2 2.7-6.5.7-.3 1.6-.8 2.4-1.4.3-.5.6-.9.7-1.2-.2.7-.6 1.3-.9 1.9-.4 1.2-.7 2.3-.9 3.1-.6 2.7 1.8 3.7 3.3 3.4-.5-2 2.8-9.2 4.6-12.1-.2-.1-.4-.1-.6-.2-1-.4-2.1-.7-3.1-.8-.6.6-1.1 1.4-1.6 2.4-1.9 2.9-3.6 3.8-4.6 4-.4.1-.6-.1-1.3 0 .4-.3 1-.1 1.4-.3.7-1.5 1.5-2.9 2.3-3.8-.7-.3-1.3-.5-2-.8-.2-.1-.5-.2-.7-.2 1.2-1.4 2-3.1 1.6-5.2-.7-3.8-2.8-6.6-9.9-6C19.4.6 5.3 5.2.5 14.7c-.9 2.1.9 6.5 2.2 6.4C4.1 15.3 14.8 7.3 23.9 4.5c0 1.1-.4 3-.4 3s-.7 2.1-1.7 5c.9.1 1.8 0 2.2 0-2.2.5-4.6.3-5.2.3h-.2c-1.6-.2-2.7-.6-3.1-1.2-.3 1.6-.7 5 2.4 5.6.6.1 1.5.1 2.4 0-1 3.6-1.9 7.2-1.7 8.5.2 1.2 1.3 1.8 2.5 2.2l1.2-.3c-.3.1-.6.3-.9.4-.6.3-1.2.7-1.7 1.1-.8 1.3-1.3 3.9-.6 5.8 1.5-1.6 5.6-3.6 9-4.4-1.9.9-4 1.6-4.6 2.5-.6 1-.4 2.1-.2 3.4 9.8-7.5 33.7-8 41.8-10.5 6.6-2.1 6.8-3.8 6.5-6.2.8.4 1.8.6 3.1.7 5.5.1 13.4-2.4 17.2-8.8.9-2.4-.4-6.2-2.1-6.3zM56 2.1c1.2.4.8 2.3-.6 3.4-.4.4-1.2.5-2.2.5.7-1.2 1.8-3 2.8-3.9zm-5.3 12H50c-.3-.1-.9-.6 0-2.4.9.1 1.3 1 .7 2.4zm-3.5 5.4c0-1 .7-3 1.5-4.9.2.4.5.5.8.6h.8c-1.2 2.3-3.1 5.2-3.1 4.3zm13.9-8.6c.9-.6.6 1-.4 2.8 0 .1-.1.1-.1.2h-.1c-.8 0-1-.7-.9-1.5.5-.6 1-1.1 1.5-1.5zm-4.2 7.5c0-1 .7-2.9 1.8-4.6.2.8.7 1.1 1.3 1.2-1.4 2.2-3.1 4.4-3.1 3.4zm-22.8-.6c.4-.2.8.6.5 1.4-.5 1.3-1.9 3.4-1.9 2.6.2-1.1.9-3.2 1.4-4zM25.3 4.1c-.4-.2-.8-.3-1.1-.4.6 0 1.2.1 1.7.3l1.8-.3c7.7-1 8.3 5.1 1.7 7.5-.8.3-1.6.5-2.4.8.5-1.9.9-3.5 1-4.3.1-1.7-1-3-2.7-3.6z" fill="#fff"/></mask><g mask="url(#a)"><path fill="#E73A24" d="M0 0h94v36H0z"/></g></g><defs><clipPath id="clip0_381_151"><path fill="#fff" d="M0 0h92v36H0z"/></clipPath></defs></svg>