<svg width="82" height="60" fill="none" xmlns="http://www.w3.org/2000/svg"><path d="M29.944 7.799l12.282-4.906 6.62-2.076 3.979 5 3.207 5.035 7.554 21.566.265 3.496-22.13 10.546-6.013 2.785-5.066-8.153-10.68-17.447-5.841-8.06 15.823-7.786z" fill="#C9C8C8"/><path d="M15.352 36.938h-.013l.011.017.02-.014-.018-.003z" fill="#000"/><path d="M64.392 35.684v-.059c-.204-.249-.16-.566-.237-.855a45.237 45.237 0 01-.567-2.353c-.104-.509-.244-1.009-.378-1.51a12.802 12.802 0 00-.36-1.33.533.533 0 01-.032-.322.256.256 0 01-.119-.189 50.721 50.721 0 00-.876-3.057c-.166-.528-.295-1.07-.47-1.594-.095-.275-.61-1.408-.695-1.685a2.743 2.743 0 01-.567.036 2.172 2.172 0 01-.295-.038s.719 1.887.866 2.355c.13.41.267.819.378 1.23.112.412.256.81.37 1.22.198.716.451 1.418.627 2.14.104.433.257.85.339 1.292.052.28.128.555.227.822.105.299.18.608.225.921.04.172.091.342.153.508.072.262.151.536.198.798.06.334.218.645.22.99a.4.4 0 00.049.19.45.45 0 01-.304.684c-.568.18-1.1.466-1.661.67-.378.14-.757.3-1.123.466-.367.166-.748.326-1.122.489l-1.65.728c-.395.174-.801.327-1.187.523-.479.245-.968.47-1.46.68-.634.273-1.245.59-1.878.861-.634.272-1.279.544-1.892.872-.813.438-1.654.812-2.473 1.238-.757.39-1.513.772-2.253 1.166a53.91 53.91 0 00-2.048 1.132c-.413.242-.838.457-1.243.714-.127.08-.268.147-.397.234-.19.12-.325-.025-.45-.11-.397-.273-.458-.817-.233-1.298.225-.481.354-1.011.1-1.542a.819.819 0 00-.444-.388.833.833 0 00-.83.037c-.274.153-.378.425-.526.681-.24.381-.55.713-.915.978a1.43 1.43 0 00-.137.104c-.43.453-.525.462-1.104.188-.443-.215-.887-.424-1.324-.636-.025-.01-.055-.033-.07 0a.131.131 0 000 .082c.114.314.114.659 0 .973a1.15 1.15 0 00-.013.282c-.01.309-.135.377-.428.335-.215-.03-.412-.128-.624-.14-.212-.01-.297-.405-.206-.565.087-.217.139-.445.153-.678.06-.296-.066-.377-.405-.48-.484-.131-.958-.3-1.437-.461a12.001 12.001 0 00-1.135-.304c-.387-.089-.873-.055-1.174-.41a2.751 2.751 0 01-.343-.598c-.251-.534-.533-1.05-.811-1.57-.216-.404-.422-.817-.63-1.226a4.844 4.844 0 00-.378-.734c-.216-.295-.218-.644-.19-.993v-.377c-.027-.444-.264-.798-.474-1.172a5.484 5.484 0 00-.594-.719c-.089-.11.034-.298.204-.319.676-.079 1.343-.213 1.892-.632.214-.164.52-.326.567-.62.085-.516.072-1.018-.31-1.463-.382-.445-.925-.68-1.471-.851a3.511 3.511 0 00-.884-.072c-.259-.011-.378-.202-.25-.42.213-.344.453-.67.653-1.02.305-.48.553-.995.738-1.534.132-.335.211-.689.236-1.049-.013-.828-.509-1.198-1.352-1.007-.902.203-1.62.726-2.328 1.283-.509.402-.986.84-1.466 1.275-.1.09-.159.046-.238-.026-.294-.264-.449-.623-.659-.943a176.31 176.31 0 01-.934-1.454c-.248-.377-.486-.783-.745-1.16-.28-.411-1.038-1.46-1.038-1.46s-.52-.029-.745-.065c-.226-.035-.594-.377-.594-.377s.811 1.153 1 1.41c.503.68 1.01 1.362 1.456 2.075.447.713.946 1.41 1.324 2.176.05.111.113.216.19.311.137.153.068.264-.052.366a2.841 2.841 0 00-.435.455.237.237 0 01-.36.06 16.527 16.527 0 00-2.155-1.245c-1.216-.566-2.459-1.03-3.847-.906a2.482 2.482 0 00-1.676.89c-.378.437-.796.856-1.15 1.322a.232.232 0 01-.259.105 1.708 1.708 0 00-1.458.378c-.48.35-.858.82-1.097 1.362a1.36 1.36 0 00.378 1.538.274.274 0 01.08.377c-.239.478-.503.944-.61 1.478-.188.962-.084 1.834.721 2.52.43.36.93.627 1.468.784.304.096.612.174.925.236.153.03.142.132.15.243.039.681.28 1.259.93 1.57.48.224 1.024.278 1.54.151.44-.097.872-.223 1.295-.377a.287.287 0 00.083-.027c.339-.26.624-.062.916.1a5.28 5.28 0 001.299.523c.047.011.12 0 .125.06.005.06-.063.09-.117.112a7.09 7.09 0 00-.791.36c-.177.1-.338.228-.477.378-.278.31-.3.596-.032.943.36.452.79.843 1.275 1.157a8.125 8.125 0 001.7.92.438.438 0 01.212.206 17.92 17.92 0 001.625 2.55c.281.377.584.732.898 1.079a.46.46 0 01.114.494 13.702 13.702 0 00-.473 2.023c-.03.189-.138.215-.278.224-.581.04-1.163.051-1.74.12-.899.109-1.793.265-2.68.456-.085.019-.19.04-.208.134-.02.094.107.1.17.132.713.378 1.378.84 1.982 1.376.038.032.104.047.09.11-.012.061-.082.082-.137.086-.21.011-.422.013-.632.023-.117 0-.165-.08-.22-.153a.485.485 0 00-.567-.199 4.348 4.348 0 00-1.479.591c-.425.281-.503.215-.34.785.078.264.141.531.189.802.024.155.089.21.24.21.48 0 .454.01.494.486.068.814.189 1.623.576 2.359.064.113.138.22.224.317.041.051.113.08.083.158-.03.08-.114.102-.19.106-1.291.068-2.583.153-3.875.238a1.47 1.47 0 00-.473.047.066.066 0 00-.035.072c.013.034.056.043.092.047.405.036.804.026 1.21.026h14.97c.233 0 .466 0 .697-.02.058 0 .155 0 .153-.083-.002-.083-.099-.07-.157-.074-.812-.049-1.615-.202-2.432-.213-.405 0-.812-.053-1.216-.081a.379.379 0 01-.337-.189c-.142-.232-.324-.44-.486-.66a.377.377 0 00-.295-.15 12.96 12.96 0 01-1.986-.358c-.26-.068-.276-.117-.13-.342a3.367 3.367 0 012.182-1.477 6.113 6.113 0 012.51-.026c.162.032.244 0 .247-.19.023-1.131.29-2.224.464-3.332.034-.213.094-.424.127-.637.032-.214.136-.238.289-.123.318.24.633.481.945.736a30.921 30.921 0 012.204 2.017c.783.79 1.534 1.608 2.252 2.453.4.468.795.944 1.162 1.432.023.032.032.085.094.072a.12.12 0 00.095-.106c.15-.726.49-1.386.72-2.075.18-.55.44-1.072.662-1.606.016-.048.029-.097.038-.147.059-.202.178-.23.348-.112a.958.958 0 01.454.768c.025.425.322.67.65.887.45.3.92.568 1.41.798a.285.285 0 00.42-.113c.232-.347.472-.689.707-1.034a.338.338 0 00.023-.419c-.146-.224-.084-.392.157-.507.378-.189.756-.366 1.134-.547a1.6 1.6 0 00.6-.64c.486-.732.968-1.468 1.388-2.242.328-.593.625-1.203.89-1.826.225-.538.408-1.094.546-1.66.038-.154.117-.339.017-.461-.1-.123-.269 0-.403.024-.444.066-.71.378-.966.704-.379.483-.634 1.045-.986 1.545-.296.461-.65.883-1.051 1.255a1.69 1.69 0 01-.498.255 5.463 5.463 0 00-2.294 1.57c-.036.045-.06.098-.093.147a.292.292 0 01-.367.147c-.174-.056-.357-.092-.497.089-.066.087-.165.049-.244.036-.17-.029-.33-.104-.507-.125-.136-.017-.145-.143-.094-.258.153-.353.304-.704.463-1.053.138-.3.123-.338-.19-.49-.188-.099-.378-.22-.567-.331-.037-.02-.083-.047-.075-.094.007-.048.07-.059.119-.07a.655.655 0 00.518-.378.253.253 0 01.248-.145c.116-.009.233-.002.348.02.567.139.946-.156 1.303-.51.295-.299.567-.616.548-1.085 0-.121.08-.159.207-.157.576 0 1.029-.23 1.263-.772.166-.377.206-1.034-.234-1.32-.144-.095-.31-.152-.462-.235-.123-.068-.155-.128 0-.228.435-.289.91-.504 1.36-.755a78.363 78.363 0 012.067-1.132c.757-.4 1.524-.783 2.287-1.173.588-.3 1.176-.606 1.768-.899.66-.328 1.324-.649 1.988-.968.773-.377 1.549-.74 2.33-1.094.584-.266 1.178-.508 1.77-.755.507-.219 1.01-.447 1.513-.653.677-.271 1.36-.528 2.043-.785.467-.173.932-.349 1.407-.5.41-.132.813-.285 1.23-.4.332-.09.667-.175.998-.273.168-.05.13-.221.08-.334a1.088 1.088 0 01-.076-.555zM35.415 45.736c.036-.138.146-.151.26-.123.227.07.46.125.695.164.098.01.144.07.114.189-.146.48-.33.95-.549 1.402a.189.189 0 01-.19.096c-.224-.053-.459-.127-.705-.162-.15-.021-.123-.189-.08-.312.145-.419.341-.82.455-1.255zm-6.686-6.778c.116-.16.19-.157.293.022.379.69.776 1.37 1.135 2.066.142.27.295.535.439.802a.172.172 0 01.01.202c-.069.095-.112 0-.167 0a15.463 15.463 0 00-2.08-.092 4.613 4.613 0 00-1.292.189c-.172.06-.32.026-.29-.217.005-.06.005-.12 0-.18-.022-.441.13-.84.19-1.253a.483.483 0 01.296-.324 4.063 4.063 0 001.466-1.215zm.378-7.28c.568.3.957.74.808 1.434-.078.358-.356.577-.649.755a4.452 4.452 0 01-2.08.524 6.278 6.278 0 01-1.918-.188 2.701 2.701 0 01-.378-.091c-.134-.059-.206-.15-.063-.298a1.66 1.66 0 00.263-.515c.18-.402.313-.822.397-1.253.063-.336.358-.378.596-.46a4.777 4.777 0 011.441-.216c.598.014 1.114.064 1.58.308h.003zm-5.844-1.334c.19-.18.378-.398.568-.58.329-.296.656-.596.996-.88.267-.225.528-.46.804-.672a10.09 10.09 0 011.417-.985c.298-.189.615-.346.945-.47a.469.469 0 01.19-.042.299.299 0 01.077.038.402.402 0 01-.051.062c-.163.155-.327.304-.488.459a7.646 7.646 0 00-.908 1.064 15.286 15.286 0 00-1.778 3.532 6.092 6.092 0 01-.834 1.616 7.84 7.84 0 01-1.829 1.8c-.713.49-1.48.9-2.284 1.219-.628.249-1.286.352-1.933.515a.43.43 0 01-.413-.189c-.083-.147-.015-.292.099-.428.486-.589.945-1.202 1.443-1.78.274-.319.526-.658.826-.958.256-.257.468-.566.712-.825.157-.172.338-.32.508-.483.142-.134.222-.311.364-.45.52-.514 1.015-1.061 1.57-1.563zm-10.822.366a1.07 1.07 0 01.66-.295c.051 0 .104-.015.14.036.036.051-.026.087-.053.125a18.753 18.753 0 00-1.084 1.696c-.047.089-.136.142-.189.234-.053.093-.128.027-.172-.045a.662.662 0 01-.093-.357 2.14 2.14 0 01.782-1.394h.01zm1.366 7.148a9.796 9.796 0 01-1.065-.402 2.304 2.304 0 01-1.135-1.35c-.248-.734.123-1.34.354-1.97.17-.442.373-.87.607-1.283a10.3 10.3 0 01.862-1.32c.206-.268.401-.546.623-.799.31-.383.647-.745 1.008-1.083.202-.175.393-.389.594-.566.244-.238.56-.39.9-.43.29-.025.567-.13.866-.087.476.042.948.116 1.413.223.416.119.838.223 1.24.377.403.155.782.287 1.16.474.342.17.715.279 1.05.475.155.089.147.178.056.293-.208.274-.43.536-.666.787a23.4 23.4 0 00-1.463 1.71c-.507.647-1.027 1.284-1.534 1.933-.267.34-.494.71-.778 1.032-.189.218-.293.506-.567.66a1.51 1.51 0 01-.704.135 2.861 2.861 0 00-1.261.298c-.19.119-.316.32-.547.39-.117.037-.17.169-.236.267a.64.64 0 01-.777.236zm5.79 2.398a3.382 3.382 0 01-1.338-1.112 1.612 1.612 0 00-1.513-.683.192.192 0 00-.064 0 .73.73 0 00-.305.19.543.543 0 00.291.008c.547-.018.872.31 1.135.725.059.093.05.164-.076.219a3.533 3.533 0 01-1.891.268 1.36 1.36 0 01-1.135-1.05c-.089-.407.221-.99.675-1.243.71-.39 1.538-.51 2.33-.34.373.082.733.212 1.071.39.059.028.127.082.176.03.05-.053-.042-.084-.064-.125-.082-.162.053-.159.147-.177.378-.078.757-.09 1.135-.189a8.944 8.944 0 002.2-.866c.847-.47 1.496-1.16 2.103-1.887.066-.08.107-.104.189-.072.648.242 1.345.266 2.01.425.086.02.174.029.261.026a.984.984 0 01.802.39c.488.567.804 1.208.745 1.988a2.206 2.206 0 01-.662 1.39 6.201 6.201 0 01-2.099 1.346 9.538 9.538 0 01-2.42.668c-.457.062-.909.207-1.232.154a6.54 6.54 0 01-2.468-.473h-.002zm4.26 1.1c-.545.158-1.082.362-1.702.377-.314.083-.509-.2-.757-.362-.062-.041-.206-.05-.172-.157s.155-.056.233-.04a7.073 7.073 0 002.317.016c.138-.017.363-.102.397.023.034.124-.202.117-.314.143h-.002zm.876 16.24a9.74 9.74 0 01-1.459-.744 1.534 1.534 0 00-.745-.19c-.46-.009-.679-.243-.767-.656v-.02c-.169-.567-.169-.567.512-.908.412-.212.414-.214.732.124a18.664 18.664 0 011.61 1.978c.085.12.18.236.268.349-.034.073-.058.106-.15.068h-.001zm15.144-5.91c.189.21-.018.392-.086.556a65.13 65.13 0 01-.97 2.232c-.274.606-.567 1.208-.843 1.81-.084.177-.227.188-.35.047a19.504 19.504 0 00-1.513-1.727 21.083 21.083 0 00-1.616-1.402 16.96 16.96 0 00-1.195-.855c-.412-.262-.785-.511-1.193-.743a54.357 54.357 0 00-1.405-.78 20.485 20.485 0 00-2.402-1.086c-.059-.023-.146-.112-.19-.029-.043.083.069.146.137.18a22.92 22.92 0 011.702.96.378.378 0 01.176.44 14.33 14.33 0 01-.853 2.813c-.068.174-.138.347-.208.521-.051.127-.106.168-.233.16a5.364 5.364 0 00-1.956.321 5.664 5.664 0 00-1.628.851c-.13.098-.252.132-.361-.041a8.89 8.89 0 00-1.632-1.82 7.254 7.254 0 00-.672-.565c-.304-.22-.618-.423-.912-.657-.189-.15-.189-.198.023-.306.41-.19.847-.318 1.296-.377.408-.102.83-.142 1.25-.119h.437c.369 0 .391 0 .431-.377.059-.566.168-1.133.272-1.699.021-.111 0-.275.142-.303.142-.029.214.13.28.228.174.255.452.377.683.566a.169.169 0 00.215-.038c.046-.06-.043-.092-.08-.132a28.705 28.705 0 01-1.737-2.075 26.595 26.595 0 01-1.702-2.572c-.051-.083-.16-.199-.097-.291.063-.093.18.019.273.03.189.02.329.189.522.189.036 0 .08.032.098 0 .019-.032-.034-.064-.064-.089-.297-.25-.668-.377-.993-.581-.61-.377-1.235-.743-1.816-1.166a7.664 7.664 0 01-1.2-1.132c-.063-.07-.15-.164-.095-.272.054-.108.159-.045.238-.04.81.044 1.61-.096 2.404-.202a9.82 9.82 0 003.215-.977c.172-.089.236-.043.246.14.017.398-.034.798.047 1.194.023.113-.085.189-.174.253a1.292 1.292 0 00-.427.447.34.34 0 00-.021.096.24.24 0 00.1-.01c.96-.527 2-.658 3.073-.686.799-.004 1.595.063 2.382.2.881.137 1.752.334 2.606.59.446.133.893.272 1.337.412a.367.367 0 01.284.477c-.065.33-.123.663-.19.995a8.777 8.777 0 01-.64 1.911c-.207.459-.415.916-.644 1.363-.106.207-.2.17-.315.04a4.471 4.471 0 00-1.163-.906 11.347 11.347 0 00-1.77-.806 21.569 21.569 0 00-1.712-.532 15.723 15.723 0 01-1.933-.672 9.8 9.8 0 01-1.43-.711c-.114-.074-.223-.155-.337-.232-.03-.021-.053-.087-.1-.036-.047.05.01.077.038.107a4.03 4.03 0 001.042.772c.802.438 1.64.806 2.506 1.1.465.144.918.325 1.354.542.75.38 1.46.836 2.12 1.358.52.416.973.91 1.34 1.467.084.135.162.166.253-.02.215-.435.454-.86.682-1.29.084-.155.333-.168.568-.02.155.1.093.212.013.33a6.529 6.529 0 00-.365.584c-.038.068-.1.151-.032.242.068.09.168.041.236.036.43-.034.855-.099 1.283-.14.18-.017.358-.047.535-.087.378-.085.668.15.972.308.748.417 1.461.892 2.133 1.423.115.092.22.196.312.31h-.001zM43.6 46.9a.434.434 0 010 .434c-.133.226-.224.485-.464.632a.338.338 0 01-.217.07c-.231-.015-.464 0-.694 0-.19 0-.248.105-.178.266.089.21.204.422.074.64-.18.258-.424.466-.708.603-.09.055-.24.01-.393.01-.27.047-.556-.051-.844-.098-.147-.023-.189.01-.178.14 0 .201.08.426-.204.526a.873.873 0 01-.603-.012 3.568 3.568 0 01-1.559-1.08c-.085-.097-.174-.07-.276-.039-.61.199-1.248.22-1.878.276-.075 0-.18.043-.23-.062-.052-.106.064-.148.115-.2.507-.5.934-1.077 1.263-1.708a5.44 5.44 0 00.632-2.483c0-.444.04-.466.424-.229.384.238.796.52 1.195.78.045.03.085.098.146.045.06-.053.018-.1 0-.142-.161-.267 0-.42.189-.58a16.13 16.13 0 001.58-1.591.775.775 0 01.553-.342.416.416 0 01.457.256.413.413 0 01.027.186 2.472 2.472 0 01-.437 1.262c-.13.205-.239.423-.323.65-.089.239.015.36.202.45.63.313 1.27.613 1.892.944.186.08.34.219.438.396H43.6zm4.638-45.432a.508.508 0 01.535.245c.505.668 1.036 1.321 1.534 1.993.584.792 1.135 1.61 1.664 2.432.33.506.641 1.023.946 1.544a5.208 5.208 0 012.02 1.036 35.992 35.992 0 00-.921-1.68 67.476 67.476 0 00-1.313-2.13 41.887 41.887 0 00-1.751-2.52A19.345 19.345 0 0049.539.657a3.506 3.506 0 01-.397-.462c-.169-.258-.392-.211-.611-.128-.433.162-.887.256-1.324.4-.528.172-1.06.336-1.589.506-.391.124-.78.249-1.169.377-.554.185-1.107.374-1.656.566-.485.17-.967.343-1.447.525-.757.288-1.513.583-2.27.875-.673.276-1.345.513-2.007.783-.815.332-1.624.681-2.432 1.032-.807.351-1.638.72-2.459 1.09-.82.37-1.607.739-2.403 1.131-.693.334-1.378.68-2.058 1.038-.757.39-1.487.798-2.226 1.202-.74.404-1.513.827-2.27 1.255-.478.276-2.648 1.445-3.132 1.721.269.087.976.074 1.252.189a1.083 1.083 0 01.624.566c.19-.108 1.77-1.11 1.96-1.168l.54-.325c.568-.35 1.164-.683 1.746-1.015.583-.332 1.196-.653 1.795-.974.534-.285 1.048-.602 1.593-.86.507-.242 1.002-.504 1.513-.755.548-.266 1.084-.566 1.634-.815.446-.21.896-.413 1.345-.619.293-.136.588-.287.883-.413.295-.127.577-.293.881-.406.41-.155.806-.343 1.207-.515.492-.211.978-.442 1.477-.628.5-.187 1-.416 1.502-.62.232-.096.474-.177.715-.26.378-.13.737-.296 1.112-.42.41-.136.815-.284 1.22-.433.404-.149.807-.311 1.216-.436.408-.124.756-.31 1.176-.343a1.64 1.64 0 00.44-.15c.534-.209 1.09-.335 1.635-.5.233-.065.452-.152.683-.2z" fill="#000"/><path d="M10.798 28.572a5.52 5.52 0 00-2.493-1.114 1.5 1.5 0 00-.836.016c-.378.147-.567.324-.579.634a.854.854 0 00.568.811c.603.238 1.431.065 2.065 0 .136-.013.843-.156.378-.23a8.379 8.379 0 00-1.503-.155c-.092.01-.184.01-.275 0a.965.965 0 01-.238-.084c-.147-.07-.31-.2-.274-.361.119-.53 1.428-.098 1.72 0 .478.16.926.4 1.325.706.085.068.202.226.304.087.102-.14-.075-.244-.162-.31z" fill="#000B0D"/><path d="M24.243 52.062h.437c.369 0 .392 0 .431-.378.06-.566.169-1.132.273-1.698.02-.111 0-.275.142-.304.142-.028.213.13.28.228.174.255.452.378.682.567a.169.169 0 00.216-.038c.045-.06-.044-.093-.081-.132a28.652 28.652 0 01-1.737-2.076 26.57 26.57 0 01-1.702-2.572c-.05-.083-.159-.198-.096-.29.062-.093.18.019.272.03.19.019.33.189.522.189.036 0 .08.032.098 0 .02-.032-.034-.065-.064-.09-.297-.25-.668-.376-.993-.58-.609-.378-1.235-.744-1.815-1.166a7.66 7.66 0 01-1.201-1.133c-.063-.07-.15-.164-.095-.271.055-.108.159-.045.238-.04.81.044 1.61-.096 2.404-.202a9.82 9.82 0 003.215-.977c.172-.089.237-.043.246.14.017.398-.034.798.047 1.194.023.113-.085.189-.174.253a1.292 1.292 0 00-.427.447.34.34 0 00-.02.096c.034.003.069 0 .101-.011.957-.527 1.998-.657 3.072-.685.798-.004 1.595.063 2.381.2.881.137 1.752.334 2.606.59.447.133.893.272 1.337.412a.368.368 0 01.301.322.367.367 0 01-.017.155c-.064.33-.123.663-.189.995a8.69 8.69 0 01-.643 1.911c-.204.459-.412.915-.641 1.362-.106.208-.2.17-.316.04a4.476 4.476 0 00-1.163-.906 11.348 11.348 0 00-1.77-.805 21.637 21.637 0 00-1.712-.532 15.707 15.707 0 01-1.933-.672 9.808 9.808 0 01-1.43-.712c-.113-.073-.223-.154-.337-.232-.03-.02-.052-.087-.1-.035-.047.05.01.077.038.107.304.311.656.572 1.042.772.802.439 1.64.807 2.506 1.1a8.89 8.89 0 011.354.541c.75.381 1.461.837 2.12 1.359a6.33 6.33 0 011.34 1.474c.085.136.162.166.253-.02.216-.435.454-.86.683-1.29.083-.155.333-.168.567-.02.155.1.093.213.013.33a6.504 6.504 0 00-.365.584c-.037.068-.1.151-.032.242.068.09.169.042.237.036.429-.034.855-.098 1.282-.14a4.03 4.03 0 00.535-.087c.378-.084.668.15.972.308a16.06 16.06 0 012.134 1.423c.117.093.223.197.318.313.189.21-.017.39-.086.555a65.244 65.244 0 01-.97 2.232c-.274.606-.567 1.208-.843 1.81-.084.177-.227.188-.35.047a19.534 19.534 0 00-1.513-1.727 21.105 21.105 0 00-1.615-1.402c-.39-.298-.784-.592-1.196-.855-.412-.262-.785-.51-1.193-.743a53.44 53.44 0 00-1.405-.78 20.483 20.483 0 00-2.402-1.086c-.06-.023-.146-.111-.19-.028-.043.083.069.145.137.179.578.296 1.146.613 1.702.96a.378.378 0 01.176.44 14.321 14.321 0 01-.853 2.813c-.068.174-.138.347-.208.521-.052.127-.106.168-.233.16a5.367 5.367 0 00-1.963.32 5.664 5.664 0 00-1.629.85c-.13.098-.251.132-.36-.041a8.896 8.896 0 00-1.633-1.82 7.297 7.297 0 00-.671-.565c-.305-.22-.619-.423-.912-.657-.19-.149-.19-.198.023-.306.41-.19.847-.318 1.295-.377.408-.104.83-.147 1.25-.126z" fill="#DD052C"/><path d="M16.753 36.757c-.45.001-.893.105-1.295.304 0 0 0-.011-.014-.017h.031c-.207.12-.337.34-.581.414-.121.037-.174.173-.244.275a.66.66 0 01-.78.247 10.638 10.638 0 01-1.094-.411 2.37 2.37 0 01-1.171-1.387c-.255-.755.125-1.378.361-2.025.177-.454.385-.896.624-1.32.261-.475.558-.928.887-1.358.21-.275.413-.566.64-.82.32-.394.666-.765 1.036-1.112.206-.189.403-.4.611-.589.25-.244.575-.4.923-.441.297-.027.586-.134.89-.089.49.043.975.12 1.453.228.426.123.86.229 1.273.378.412.149.804.296 1.194.488.35.174.732.287 1.078.487.159.093.15.189.058.302-.214.281-.442.55-.684.808a28.49 28.49 0 00-1.514 1.757c-.521.666-1.057 1.32-1.577 1.987-.272.349-.505.73-.798 1.062-.19.223-.3.52-.594.678-.222.108-.466.16-.713.154z" fill="#fff"/><path d="M22.077 40.746c-.85 0-1.691-.168-2.477-.49a3.381 3.381 0 01-1.34-1.112 1.61 1.61 0 00-1.512-.683.188.188 0 00-.065 0 .73.73 0 00-.304.189c.094.03.195.032.291.01.547-.02.872.309 1.135.724.058.092.049.164-.076.218a3.532 3.532 0 01-1.891.269 1.358 1.358 0 01-1.135-1.05c-.089-.407.221-.99.675-1.243.71-.39 1.538-.51 2.33-.34a4.25 4.25 0 011.07.389c.06.028.128.083.177.03.049-.053-.042-.083-.064-.124-.082-.163.052-.159.147-.178.378-.077.756-.088 1.135-.188a8.942 8.942 0 002.2-.867c.847-.47 1.495-1.16 2.103-1.886.066-.08.107-.104.189-.072.648.241 1.344.266 2.01.424.086.02.173.03.261.027a.984.984 0 01.802.39c.488.566.804 1.208.745 1.987a2.206 2.206 0 01-.662 1.391 6.201 6.201 0 01-2.1 1.345 9.533 9.533 0 01-2.42.668c-.448.08-.9.225-1.224.172z" fill="#CEB48D"/><path d="M41.015 49.55c-.27.047-.556-.051-.843-.098-.148-.023-.19.011-.178.14 0 .201.08.426-.205.526a.874.874 0 01-.603-.012 3.569 3.569 0 01-1.558-1.08c-.085-.097-.174-.07-.276-.038-.611.198-1.249.218-1.878.275-.076 0-.18.044-.231-.062-.051-.106.064-.147.115-.2.508-.5.934-1.076 1.264-1.708a5.44 5.44 0 00.637-2.479c0-.443.04-.466.423-.228.384.238.797.519 1.196.779.045.03.085.098.145.045.061-.052.02-.1 0-.141-.16-.268 0-.42.19-.581a16.083 16.083 0 001.58-1.59.776.776 0 01.553-.342.417.417 0 01.457.256.412.412 0 01.027.185 2.487 2.487 0 01-.435 1.262 3.27 3.27 0 00-.325.651c-.089.238.015.359.202.45.63.313 1.27.613 1.892.943.188.08.345.22.444.4a.433.433 0 010 .434c-.132.226-.223.485-.463.632a.337.337 0 01-.218.07c-.23-.016-.463 0-.694 0-.19 0-.248.105-.178.266.09.21.206.422.074.64a1.84 1.84 0 01-.707.603c-.104.047-.254.002-.407.002zM18.157 37.02a.43.43 0 01-.413-.19c-.083-.146-.015-.292.099-.427.486-.59.945-1.203 1.443-1.78.274-.319.525-.658.826-.959.255-.256.467-.566.711-.824.157-.172.339-.32.509-.483.142-.132.221-.312.363-.451.528-.517 1.023-1.064 1.568-1.566.19-.18.378-.398.567-.58.33-.296.657-.596.997-.88.267-.226.528-.46.804-.673.443-.368.917-.697 1.417-.985.298-.188.615-.345.945-.47a.467.467 0 01.19-.041.29.29 0 01.077.038.406.406 0 01-.051.062c-.163.155-.327.304-.488.458a7.645 7.645 0 00-.908 1.065 15.288 15.288 0 00-1.778 3.532 6.089 6.089 0 01-.834 1.615 7.841 7.841 0 01-1.829 1.8c-.713.491-1.48.9-2.285 1.22-.635.253-1.293.356-1.93.519z" fill="#fff"/><path d="M27.522 31.366c.6.017 1.116.068 1.581.311.568.3.957.74.808 1.434-.078.359-.356.578-.649.755a4.453 4.453 0 01-2.08.525 6.28 6.28 0 01-1.918-.19 2.717 2.717 0 01-.378-.09c-.135-.058-.206-.149-.063-.298a1.66 1.66 0 00.263-.515 5.85 5.85 0 00.397-1.253c.063-.335.36-.377.596-.46.467-.146.954-.22 1.443-.219z" fill="#CEB48D"/><path d="M29.215 27.228a1.898 1.898 0 01-.145.402 4.427 4.427 0 01-.16.429c-.369.862-.84 1.678-1.403 2.429a.715.715 0 01-.463.285c-.312.045-.567.217-.851.319-.06.02-.12.071-.176.019-.057-.053-.032-.123 0-.19.174-.345.276-.718.452-1.064a11.93 11.93 0 01.972-1.71c.348-.49.776-.918 1.267-1.266a.418.418 0 01.358-.06c.13.073.157.245.15.407z" fill="#DD052C"/><path d="M35.745 47.464c-.225-.053-.46-.126-.705-.162-.151-.02-.123-.189-.081-.312.15-.419.346-.82.46-1.255.035-.138.145-.151.258-.123.228.071.46.126.696.165.099.009.144.07.114.188-.147.482-.332.95-.552 1.403a.19.19 0 01-.19.096z" fill="#CEB48D"/><path d="M11.654 32.069c.073-.562.36-1.073.802-1.428.184-.177.424-.284.679-.304.051 0 .108-.015.142.038.034.053-.027.089-.053.127-.399.56-.768 1.14-1.107 1.738-.047.093-.14.146-.189.24-.049.095-.132.029-.177-.045a.685.685 0 01-.097-.366z" fill="#fff"/><path d="M22.153 41.739c-.314.083-.509-.2-.756-.362-.063-.042-.207-.05-.173-.157.034-.108.155-.057.233-.04a7.07 7.07 0 002.317.015c.138-.017.363-.102.397.023.034.125-.202.106-.314.138-.543.162-1.08.362-1.704.383z" fill="#CEB48D"/><path d="M11.639 39.927a.089.089 0 00-.051-.057.222.222 0 00-.14 0c-1.135.278-2.253 1.431-2.797 2.43a1.979 1.979 0 00-.32 1.01c-.043.538.54.902 1.097.755.426-.107.656-.415.866-.764.114-.252.205-.513.273-.781l.378-1.012c.049-.135.12-.256.178-.388.03-.136.072-.269.126-.396.017-.023-.02-.06-.049-.046-.478.29-.77.904-1.017 1.41-.123.25-.619 1.404-1.048 1.119a.361.361 0 01-.142-.302c0-.6.583-1.206.959-1.62a7.04 7.04 0 011.643-1.277.115.115 0 00.038-.03.058.058 0 00.006-.05z" fill="#000B0D"/><path d="M71.603 31.475l-39.235-.69.21-6.704 40.705-.69-1.68 8.084z" fill="#fff"/><path d="M71.995 31.96a2797.97 2797.97 0 01-19.878-.447l-19.753-.54h-.189v-.188l.21-6.704v-.19h.18l40.704-.688h.226l-.036.232a274.43 274.43 0 01-.68 4.214 171.596 171.596 0 01-.784 4.311zm-.781-.973c.272-1.25.567-2.498.883-3.774.316-1.276.655-2.553 1-3.866l.19.226-40.707.689.189-.189-.208 6.702-.19-.188 19.481.149c6.472.069 12.926.153 19.362.25z" fill="#000"/><path d="M39.34 28.836l-.122.094a1.976 1.976 0 01-1.24.419 1.969 1.969 0 01-1.37-.534 1.838 1.838 0 01-.44-2.089 1.92 1.92 0 01.44-.615 1.86 1.86 0 01.628-.402c.236-.092.488-.139.742-.138a1.98 1.98 0 011.234.417l.122.091-.297.889-.239-.223a1.133 1.133 0 00-.378-.232 1.258 1.258 0 00-.448-.08 1.213 1.213 0 00-.827.318.943.943 0 000 1.413 1.212 1.212 0 00.827.317 1.237 1.237 0 00.828-.317l.239-.223.3.895zm3.523-2.323c-.029 0-.044.013-.044.041v.704c0 .032.015.047.044.047h1.723v.842h-1.723c-.029 0-.044.017-.044.047v.276a.04.04 0 00.012.032.04.04 0 00.032.011h2.131v.846h-3.026v-3.703h3.026v.857h-2.131zm6.601-.845c.216-.002.43.042.63.128a1.611 1.611 0 01.989 1.481c-.001.2-.041.397-.118.581a1.706 1.706 0 01-.323.513 1.569 1.569 0 01-1.178.52h-.946v.475h-.843v-3.698h1.789zm0 2.375a.772.772 0 00.713-.462.768.768 0 00-.165-.844.784.784 0 00-.244-.168.773.773 0 00-.3-.06h-.886a.053.053 0 00-.058.058v1.423c0 .036.02.053.058.053h.882zm7.016-.551a1.09 1.09 0 01.282.74c.001.15-.03.298-.089.436-.112.27-.328.486-.599.598-.138.059-.287.09-.437.089H53.65v-3.688h1.988c.153 0 .305.03.446.09.136.057.259.142.36.25.093.104.166.224.215.355.052.137.077.282.076.428.003.257-.087.506-.253.702zm-1.99-.457c0 .033.02.05.054.05h1.06a.264.264 0 00.19-.09.281.281 0 00.085-.207.254.254 0 00-.08-.204.285.285 0 00-.202-.082h-1.06c-.035 0-.054.017-.054.049l.008.485zm0 1.43c0 .03.02.048.054.048h1.087a.283.283 0 00.203-.083.272.272 0 00.085-.204.311.311 0 00-.089-.207.26.26 0 00-.19-.09h-1.092c-.034 0-.053.018-.053.05l-.004.487zm5.824-2.809v1.95c0 .002 0 0 .011 0l1.315-1.943h.773v3.71h-.847v-2.069c0-.002 0 0-.012 0l-1.323 2.054h-.757v-3.702h.84zm8.061 3.18l-.12.094a1.976 1.976 0 01-1.242.419 1.969 1.969 0 01-1.37-.534 1.836 1.836 0 01-.44-2.089 1.92 1.92 0 01.441-.615 1.86 1.86 0 01.628-.402 2.02 2.02 0 01.741-.138 1.98 1.98 0 011.235.417l.121.091-.296.889-.239-.223a1.133 1.133 0 00-.378-.232 1.242 1.242 0 00-.446-.08 1.204 1.204 0 00-.827.318.945.945 0 00-.236 1.086c.056.124.136.235.236.327a1.203 1.203 0 00.827.317 1.238 1.238 0 00.828-.317l.238-.223.3.895z" fill="#000"/><path d="M11.076 12.684a11.59 11.59 0 01-1.26 1.741l-.946 1.17-.548.955a21.073 21.073 0 002.383 3.923c.019.532-.437 1.024-1.367 1.475-.931.452-1.476.566-1.636.342l-1.604-2.544-1.559 1.56c-1.33 1.439-2.165 2.083-2.504 1.933a1.34 1.34 0 01-.913-.262 11.447 11.447 0 01-.717-.67c-.346-.514.082-1.395 1.282-2.642l2.474-3.145a29.737 29.737 0 00-1.193-1.66 19.87 19.87 0 01-2.022-2.474.993.993 0 01-.114-1.133c.135-.269.32-.51.545-.709a4.8 4.8 0 01.724-.511c.36-.11.729 0 1.103.337.506.477.97.994 1.39 1.548.443.515.936 1.031 1.48 1.547a298.245 298.245 0 012.238-3.306c.44-.267.932-.214 1.474.157a21.48 21.48 0 011.513 1.132c.217.363.142.775-.223 1.236z" fill="#DD052C"/><path d="M2.147 23.546a.525.525 0 01-.161-.024c-.375.017-.744-.1-1.04-.33a13.63 13.63 0 01-.736-.685l-.042-.048c-.439-.654-.024-1.601 1.303-2.98l2.334-2.973a35.85 35.85 0 00-1.06-1.464 20.364 20.364 0 01-2.038-2.496 1.264 1.264 0 01-.14-1.408c.15-.302.358-.573.611-.798.238-.203.495-.383.766-.54l.06-.028c.46-.14.924 0 1.376.399a12.73 12.73 0 011.424 1.583c.361.418.768.85 1.208 1.283a207.793 207.793 0 012.062-3.03l.034-.05.053-.032c.378-.224.983-.377 1.78.166.546.378 1.066.755 1.543 1.155l.038.032.024.042c.19.319.301.841-.234 1.53a11.934 11.934 0 01-1.288 1.758l-.93 1.148-.45.805a20.826 20.826 0 002.286 3.74l.055.072v.09c.022.651-.49 1.236-1.528 1.74-1.135.549-1.727.625-1.992.25l-1.413-2.258-1.31 1.321c-1.527 1.642-2.204 2.03-2.595 2.03zm-.055-.59l.056.024c.035 0 .456 0 2.183-1.866l1.816-1.819 1.778 2.82c.053.013.332.043 1.288-.421.531-.257 1.155-.657 1.204-1.133a21.47 21.47 0 01-2.35-3.892l-.063-.132.641-1.12.946-1.17a11.37 11.37 0 001.233-1.7l.023-.033c.351-.443.31-.706.229-.868a19.939 19.939 0 00-1.46-1.09c-.538-.382-.891-.3-1.105-.172-.568.796-1.307 1.887-2.21 3.24l-.188.28-.25-.233a22.421 22.421 0 01-1.498-1.566 12.376 12.376 0 00-1.362-1.521c-.28-.257-.544-.351-.796-.287-.23.136-.448.291-.652.464a2.05 2.05 0 00-.475.625.71.71 0 00.085.826l.015.02a19.46 19.46 0 001.992 2.437l.015.019a30.5 30.5 0 011.205 1.675l.113.17-2.614 3.33C.503 21.301.494 21.897.628 22.128c.248.248.476.46.677.63.21.148.468.215.724.188l.063.01z" fill="#000"/><path d="M19.074 16.358a18.094 18.094 0 00-3.027.013c.02.49.046 1.21.08 2.158.046.88-.05 1.761-.288 2.61-.228.785-.715 1.203-1.46 1.253a3.693 3.693 0 01-1.84-.276c-.484-.232-.692-.503-.628-.817a2.072 2.072 0 01.732-1.24c.13-.101.305-.065.526.106.181.157.41.25.649.265.211 0 .365-.176.455-.542a4.95 4.95 0 00.1-1.425 65.24 65.24 0 00-.204-2.59c-.107-1.146-.083-1.825.07-2.038.155-.213.914-.338 2.281-.378 1.368-.04 2.259-.049 2.68-.03.422.02.814.053 1.175.1.361.048.6.308.715.778.14.676.207 1.366.202 2.056.019.902.067 1.75.146 2.546.078.795.116 1.521.115 2.18 0 .653-.158 1.021-.475 1.103a3.355 3.355 0 01-.887.111.641.641 0 01-.586-.3c-.115-.188-.227-.788-.335-1.787-.107-.998-.168-2.283-.196-3.856z" fill="#DD052C"/><path d="M14.007 22.68a3.653 3.653 0 01-1.59-.315c-.757-.366-.848-.815-.784-1.132a2.34 2.34 0 01.363-.887 2.34 2.34 0 01.473-.52c.138-.108.435-.235.874.107.134.118.302.19.48.204.046 0 .12-.102.176-.329.092-.439.122-.888.087-1.335a65.852 65.852 0 00-.202-2.578c-.152-1.609-.023-2.032.123-2.232.145-.2.579-.437 2.5-.492 1.386-.038 2.27-.05 2.703-.03.433.019.832.054 1.199.104.333.043.77.252.946.988.144.697.214 1.407.21 2.119.018.887.066 1.736.143 2.524.076.733.115 1.469.118 2.206 0 .798-.235 1.262-.689 1.377a3.543 3.543 0 01-.963.12.913.913 0 01-.826-.439c-.095-.158-.221-.519-.378-1.9-.102-.943-.167-2.162-.19-3.618a18.405 18.405 0 00-2.447 0c.019.471.042 1.1.07 1.886a8.454 8.454 0 01-.304 2.693c-.261.896-.855 1.398-1.714 1.454-.121.02-.252.025-.378.025zm-1.201-2.4c-.132.117-.248.25-.346.396a1.788 1.788 0 00-.27.674c-.035.168.124.337.472.505a3.412 3.412 0 001.702.247c.626-.041 1.01-.377 1.207-1.049a7.887 7.887 0 00.278-2.513c-.034-.943-.06-1.67-.08-2.158v-.264l.263-.028c1.02-.09 2.047-.095 3.068-.015l.263.017v.262c.02 1.556.085 2.845.19 3.83.14 1.296.252 1.601.296 1.673.044.072.121.157.348.16a3.01 3.01 0 00.812-.103c.164-.042.259-.344.26-.83 0-.642-.037-1.366-.115-2.15a33.721 33.721 0 01-.145-2.567 9.803 9.803 0 00-.19-1.994c-.115-.464-.329-.544-.478-.566-.35-.047-.736-.08-1.148-.098-.413-.02-1.309 0-2.661.03-1.742.05-2.026.232-2.066.268-.04.036-.153.31 0 1.837.106 1.132.176 2.02.205 2.602a5.313 5.313 0 01-.104 1.51c-.157.622-.479.754-.725.754h-.036a1.378 1.378 0 01-.813-.326c-.132-.102-.187-.104-.187-.104z" fill="#000"/><path d="M30.247 22.68c-.504.36-.976.161-1.414-.595-.603.428-1.126.64-1.57.634a6.304 6.304 0 01-1.583-.266 5.213 5.213 0 01-1.907-1.095c-.601-.672-.887-1.687-.858-3.046a5.154 5.154 0 011.4-3.284 4.143 4.143 0 013.061-1.385 4.004 4.004 0 011.514.323c.337.132.633.35.86.632.171.215.284.47.327.742.03.241.078.574.142.996a8.59 8.59 0 01.047 1.642 6.377 6.377 0 00.078 1.591c.083.378.172.755.263 1.095.1.36.253.704.456 1.019a.816.816 0 01-.19.534 3.642 3.642 0 01-.626.463zm-3.381-7.06c-.757.334-1.24.682-1.453 1.043-.212.36-.361.956-.448 1.785-.082.827.146 1.405.685 1.735.538.33 1.305.349 2.3.058.242-.24.398-.553.442-.89.139-.685.224-1.38.255-2.077.007-.29-.018-.58-.073-.864a1.098 1.098 0 00-.452-.566c-.252-.198-.672-.27-1.256-.225z" fill="#DD052C"/><path d="M29.771 23.137a.865.865 0 01-.189-.023 1.405 1.405 0 01-.825-.631c-.556.354-1.044.526-1.488.518a6.566 6.566 0 01-1.659-.277 5.489 5.489 0 01-2.012-1.151l-.027-.026c-.648-.725-.962-1.814-.932-3.24a5.465 5.465 0 011.475-3.472 4.433 4.433 0 013.265-1.474 4.36 4.36 0 011.628.344c.386.151.725.4.983.724.2.255.33.556.379.876.028.24.076.566.14.99.07.564.087 1.132.05 1.699a6.078 6.078 0 00.073 1.51c.081.377.168.742.259 1.08.092.334.234.652.422.944l.049.077v.093a1.096 1.096 0 01-.276.71 3.95 3.95 0 01-.67.503c-.186.141-.411.22-.645.226zm-.849-1.464l.157.27c.21.362.424.577.616.619a.487.487 0 00.388-.114h.014a3.38 3.38 0 00.567-.422.497.497 0 00.108-.27 3.938 3.938 0 01-.44-1.013c-.092-.347-.188-.72-.266-1.108a6.652 6.652 0 01-.083-1.662 8.152 8.152 0 00-.045-1.585 35.912 35.912 0 01-.142-1.006 1.307 1.307 0 00-.273-.607 1.844 1.844 0 00-.756-.542 3.739 3.739 0 00-1.4-.298 3.853 3.853 0 00-2.86 1.294 4.9 4.9 0 00-1.323 3.11c-.027 1.257.234 2.21.775 2.83a4.89 4.89 0 001.784 1.025c.49.15 1 .237 1.513.256h.013c.378 0 .844-.188 1.388-.58l.265-.197zm-2.215-.943a2.253 2.253 0 01-1.199-.302c-.637-.389-.913-1.063-.82-2.004.086-.878.243-1.498.482-1.9.238-.402.756-.798 1.583-1.159l.043-.019h.047c.662-.053 1.135.036 1.455.274.264.168.461.423.558.72.059.307.086.619.081.93-.03.719-.117 1.433-.26 2.137a1.782 1.782 0 01-.525 1.043l-.05.05-.067.02c-.43.13-.878.2-1.328.206v.004zm.23-4.827c-.833.377-1.157.698-1.28.908-.189.324-.327.886-.404 1.67-.07.714.11 1.194.552 1.464.443.27 1.125.292 2 .049.172-.19.28-.429.311-.683a13.36 13.36 0 00.254-2.042 3.765 3.765 0 00-.067-.802c-.015-.066-.08-.204-.346-.402-.132-.1-.42-.21-1.02-.166v.004z" fill="#000"/><path d="M41.896 21.573c-.43-.224-.755-.706-.976-1.446-.22-.74-.48-1.481-.78-2.224-.084.16-.268.553-.55 1.173-.203.466-.43.921-.678 1.364a1.79 1.79 0 01-.65.653 1.83 1.83 0 01-.888.233.816.816 0 01-.732-.325 6.985 6.985 0 01-.622-1.395 10.345 10.345 0 00-.82-1.783c-.543 1.842-.891 3-1.045 3.472-.155.472-.51.704-1.07.693-.778 0-1.12-.264-1.031-.772.088-.508.344-1.489.756-2.946.412-1.456.707-2.51.859-3.166.151-.656.31-1.104.473-1.343a1.175 1.175 0 01.847-.453c.37-.064.752.003 1.078.188.322.183.833 1.275 1.534 3.278.419-.958.886-1.895 1.4-2.806.252-.399.698-.631 1.339-.698.518 0 .892.245 1.134.755.288.671.518 1.366.689 2.075.223.868.494 1.885.813 3.05.318 1.168.327 1.857.03 2.076a2.022 2.022 0 01-1.11.347z" fill="#DD052C"/><path d="M33.123 22.271h-.044c-.556 0-.93-.132-1.134-.377a.841.841 0 01-.163-.717c.093-.523.346-1.494.771-2.974.419-1.445.706-2.506.855-3.153.161-.697.33-1.168.517-1.44a1.45 1.45 0 011.032-.566c.433-.076.88 0 1.262.217.259.147.633.607 1.428 2.776.337-.76.712-1.503 1.125-2.225.299-.472.821-.755 1.547-.827h.027a1.451 1.451 0 011.39.927c.293.685.528 1.393.703 2.117.224.86.496 1.887.812 3.046.365 1.341.342 2.076-.076 2.374a2.297 2.297 0 01-1.254.41h-.08l-.067-.037c-.496-.26-.872-.803-1.116-1.615a25.41 25.41 0 00-.535-1.593 47.69 47.69 0 00-.265.578c-.207.475-.439.94-.694 1.39a2.055 2.055 0 01-.757.755c-.313.177-.666.27-1.025.27a1.103 1.103 0 01-.968-.445 7.14 7.14 0 01-.657-1.46 11.829 11.829 0 00-.474-1.133 147.07 147.07 0 01-.853 2.82c-.136.418-.473.883-1.307.883zm2.163-8.703a1.62 1.62 0 00-.25.02.923.923 0 00-.652.332c-.098.145-.253.479-.431 1.249-.151.656-.443 1.726-.86 3.181-.419 1.455-.672 2.421-.757 2.916-.03.173.02.238.038.258.055.066.221.176.715.189.44.011.684-.145.8-.498.151-.465.503-1.63 1.044-3.463l.189-.623.333.566c.337.583.62 1.197.841 1.833.31.849.49 1.19.589 1.32a.523.523 0 00.493.204 1.53 1.53 0 00.757-.188c.228-.133.416-.324.546-.553.165-.278.388-.727.664-1.336.276-.61.471-1.025.558-1.189l.286-.543.229.566c.298.755.567 1.51.786 2.247.19.621.447 1.038.772 1.242.312-.018.613-.121.87-.298.03-.021.274-.25-.138-1.767-.318-1.162-.59-2.19-.815-3.053a12.75 12.75 0 00-.672-2.025c-.189-.407-.453-.596-.85-.594-.547.06-.912.245-1.117.566-.244.377-.707 1.321-1.377 2.77l-.293.638-.232-.662c-.946-2.693-1.324-3.072-1.407-3.125-.2-.118-.427-.18-.659-.18z" fill="#000"/><path d="M51.476 21.836c-2.489.29-4.304-.138-5.447-1.285-1.142-1.148-1.746-2.622-1.812-4.425a8.337 8.337 0 011.275-4.87c.915-1.444 2.117-2.29 3.605-2.536 1.488-.247 2.757-.231 3.809.047a5.023 5.023 0 012.706 1.887c.757.979 1.152 2.295 1.186 3.95a12.28 12.28 0 01-.756 4.64c-.544 1.438-2.066 2.302-4.566 2.592zm-1.982-9.654c-1.253.218-1.919 1.15-1.997 2.795-.078 1.645.307 2.663 1.155 3.055a5.495 5.495 0 002.423.566 2.882 2.882 0 001.907-.683c.504-.44.85-1.257 1.036-2.453.187-1.197-.207-2.096-1.18-2.699-.976-.605-2.09-.798-3.344-.58z" fill="#DD052C"/><path d="M50.063 22.205c-1.85 0-3.272-.487-4.236-1.455-1.19-1.194-1.826-2.747-1.892-4.615a8.65 8.65 0 011.324-5.03c.955-1.51 2.234-2.405 3.798-2.665 1.522-.253 2.837-.236 3.928.053a5.317 5.317 0 012.86 1.986c.788 1.023 1.206 2.406 1.244 4.116a12.604 12.604 0 01-.78 4.746c-.583 1.54-2.195 2.473-4.791 2.775-.483.059-.969.088-1.455.09zm.985-13.377a11.8 11.8 0 00-1.904.17c-1.4.232-2.548 1.042-3.404 2.408a8.083 8.083 0 00-1.232 4.717c.063 1.723.643 3.148 1.729 4.238 1.086 1.091 2.828 1.482 5.214 1.203 2.37-.276 3.825-1.087 4.326-2.414.537-1.448.79-2.985.745-4.529-.036-1.585-.414-2.856-1.135-3.774a4.75 4.75 0 00-2.555-1.785 6.933 6.933 0 00-1.784-.234zm-.062 10.047a5.873 5.873 0 01-2.459-.591c-.959-.442-1.403-1.56-1.324-3.325.08-1.764.836-2.817 2.232-3.06a4.959 4.959 0 013.543.61c1.078.665 1.513 1.669 1.31 2.984-.2 1.278-.567 2.138-1.134 2.627a3.172 3.172 0 01-2.081.755h-.087zm-.53-6.501c-.303.002-.605.03-.904.085-1.115.189-1.69 1.02-1.762 2.528-.072 1.508.26 2.454.99 2.786.712.347 1.493.53 2.285.535a2.578 2.578 0 001.725-.613c.449-.392.766-1.162.946-2.287.17-1.085-.172-1.873-1.05-2.413a4.18 4.18 0 00-2.23-.617v-.004z" fill="#000"/><path d="M63.679 17.105c.28.265.522.566.72.896.268.411.39 1.013.37 1.806-.022.792-.622 1.386-1.801 1.781a8.298 8.298 0 01-3.236.483c-.978-.074-1.48-.245-1.513-.513-.034-.268-.068-1.45-.123-3.542-.055-2.093-.07-3.365-.046-3.817.025-.453.091-.729.207-.829.222-.144.473-.24.735-.283a7.555 7.555 0 011.668-.124 4.67 4.67 0 012.295.696c.794.459 1.201 1.067 1.221 1.825.02.757-.145 1.297-.497 1.62zm-2.145 3.019c1.184-.33 1.649-.753 1.394-1.27-.255-.517-.604-.814-1.048-.89a7.49 7.49 0 00-1.256-.112c-.393 0-.616.073-.671.224a7.449 7.449 0 00-.138 1.381c-.04.77.534.99 1.72.665v.002zm.522-4.818a.847.847 0 00-.45-.643 1.872 1.872 0 00-.968-.208c-.39 0-.613.05-.67.129a.711.711 0 00-.083.422c0 .204.017.413.038.63a.537.537 0 00.213.434c.215.09.45.124.681.1.314 0 .624-.077.9-.224a.582.582 0 00.34-.642v.002z" fill="#DD052C"/><path d="M60.193 22.372c-.162 0-.325 0-.484-.02-1.191-.09-1.721-.318-1.766-.765-.029-.278-.07-1.444-.125-3.563-.055-2.119-.07-3.374-.046-3.838.029-.553.122-.87.305-1.028.256-.178.549-.296.857-.346a7.636 7.636 0 011.734-.132c.862.03 1.7.283 2.434.734.882.51 1.341 1.204 1.364 2.063.019.694-.114 1.236-.395 1.615.209.236.399.488.567.755.299.464.435 1.107.412 1.966-.022.92-.694 1.608-1.993 2.044a9.16 9.16 0 01-2.864.515zm-1.689-.855c.032.034.237.198 1.249.273a8.05 8.05 0 003.124-.462c1.065-.355 1.593-.853 1.608-1.51.019-.732-.09-1.284-.324-1.645a4.018 4.018 0 00-.67-.838l-.24-.21.237-.212c.291-.263.43-.734.41-1.402-.019-.668-.378-1.18-1.081-1.59a4.384 4.384 0 00-2.153-.658 7.2 7.2 0 00-1.6.117c-.22.028-.431.1-.622.212 0 0-.083.107-.112.63-.022.443 0 1.72.048 3.795.064 2.032.1 3.21.126 3.5zm2.138-.964a1.193 1.193 0 01-.776-.229.995.995 0 01-.335-.88c.053-1.061.112-1.34.155-1.463.15-.414.746-.414.946-.412.436.003.872.042 1.301.117.537.09.96.442 1.256 1.044a.812.812 0 01.029.707c-.19.4-.689.706-1.602.96a3.778 3.778 0 01-.974.154v.002zm-.428-2.361c-.072.423-.11.85-.115 1.28-.015.301.089.377.123.41.106.087.41.19 1.237-.03.974-.271 1.187-.543 1.235-.647a.246.246 0 00-.02-.226c-.213-.434-.49-.674-.84-.734a7.32 7.32 0 00-1.21-.11.91.91 0 00-.41.055v.002zm.532-1.736c-.26.02-.522-.03-.757-.143a.804.804 0 01-.348-.646 7.756 7.756 0 01-.04-.653.962.962 0 01.138-.598c.123-.164.379-.232.893-.241a2.2 2.2 0 011.114.245 1.135 1.135 0 01.592.847.864.864 0 01-.492.927 2.208 2.208 0 01-1.03.258l-.07.004zm-.568-1.675a.94.94 0 00-.017.22c0 .198.017.402.038.608.013.136.05.204.078.22.169.063.35.083.53.06.267 0 .531-.065.769-.19a.306.306 0 00.189-.352.566.566 0 00-.297-.434 1.624 1.624 0 00-.827-.172 1.97 1.97 0 00-.455.038l-.008.002z" fill="#000"/><path d="M74.124 14.897c.694 1.551.68 3.023-.04 4.414-.72 1.392-1.823 2.123-3.311 2.195-1.487.072-2.65-.203-3.488-.823-.838-.62-1.29-1.514-1.358-2.683a7.384 7.384 0 01.692-3.505c.528-1.168 1.737-1.782 3.628-1.84 1.891-.057 3.184.69 3.877 2.242zm-1.428 1.829a1.888 1.888 0 00-.783-1.381c-.468-.348-1.098-.468-1.891-.363-.793.106-1.323.416-1.59.93a2.847 2.847 0 00-.271 1.712c.083.63.34 1.08.77 1.355.472.284 1.02.416 1.57.378.617-.02 1.153-.322 1.607-.904.454-.583.65-1.158.588-1.727z" fill="#DD052C"/><path d="M70.326 21.8c-1.323 0-2.411-.299-3.215-.89-.906-.671-1.4-1.645-1.471-2.896a7.694 7.694 0 01.716-3.636c.568-1.27 1.88-1.945 3.88-2.006 1.998-.06 3.404.755 4.144 2.41.728 1.626.712 3.194-.047 4.659-.76 1.464-1.962 2.264-3.55 2.347-.158.008-.31.011-.457.011zm.127-8.87h-.189c-1.79.056-2.894.603-3.378 1.673a7.142 7.142 0 00-.667 3.371c.06 1.091.467 1.9 1.242 2.474.776.574 1.891.836 3.306.766 1.415-.07 2.394-.734 3.073-2.04.68-1.305.697-2.686.032-4.17-.631-1.388-1.749-2.07-3.419-2.07v-.003zm-.087 6.709a2.91 2.91 0 01-1.594-.427c-.501-.319-.804-.843-.897-1.554a3.141 3.141 0 01.297-1.878c.307-.6.916-.962 1.806-1.083.891-.12 1.578.025 2.104.417a2.17 2.17 0 01.898 1.58c.062.643-.157 1.294-.654 1.932-.498.637-1.118.986-1.822 1.01l-.138.003zm.18-4.41a3.78 3.78 0 00-.492.034c-.705.094-1.156.35-1.377.778a2.584 2.584 0 00-.24 1.545c.072.547.282.924.641 1.153.423.253.915.37 1.407.336.535-.02.99-.278 1.392-.795.403-.517.586-1.026.537-1.526a1.6 1.6 0 00-.671-1.183 1.956 1.956 0 00-1.197-.342z" fill="#000"/><path d="M77.593 14.612c-.344-.117-.61-.407-.794-.868-.186-.46.067-.824.756-1.086a2.507 2.507 0 012.135.188 2.383 2.383 0 011.284 1.859c.133.859-.076 1.528-.628 2.006a2.33 2.33 0 01.674 1.924 3.489 3.489 0 01-.73 1.859c-.406.51-1.05.787-1.933.828-.883.042-1.558-.108-2.025-.449-.47-.342-.667-.7-.595-1.075.04-.312.19-.6.422-.812.206-.166.473-.14.804.08.29.2.616.346.959.428a.834.834 0 00.792-.211c.217-.208.238-.501.063-.88-.175-.378-.41-.6-.708-.666-.292-.064-.4-.35-.321-.858.078-.509.22-.8.428-.874.214-.083.414-.197.595-.338.188-.14.197-.381.027-.724-.17-.344-.573-.454-1.205-.33z" fill="#DD052C"/><path d="M78.092 21.603c-.809 0-1.454-.172-1.921-.51-.568-.409-.8-.866-.704-1.358a1.6 1.6 0 01.522-.977c.214-.174.586-.304 1.135.064.261.178.553.306.862.377a.545.545 0 00.535-.14c.055-.05.19-.17 0-.554-.14-.298-.306-.464-.51-.51-.261-.056-.679-.287-.541-1.177.063-.396.189-.944.61-1.097.184-.069.358-.165.516-.284.082-.063-.014-.282-.057-.378-.106-.213-.41-.273-.899-.188l-.074.013-.071-.025c-.422-.145-.748-.492-.965-1.03a.91.91 0 01-.01-.728c.135-.304.441-.542.946-.729a2.787 2.787 0 012.366.189 2.667 2.667 0 011.434 2.075c.128.844-.047 1.537-.522 2.063a2.56 2.56 0 01.567 1.94 3.808 3.808 0 01-.789 2.006c-.459.566-1.18.888-2.143.932-.1.024-.194.026-.287.026zM76.47 19.15a.189.189 0 00-.125.044c-.18.172-.293.4-.322.647-.02.096-.075.377.482.79.413.3 1.033.434 1.847.397.813-.038 1.367-.274 1.724-.721.385-.495.617-1.09.67-1.714a2.038 2.038 0 00-.598-1.698l-.204-.213.223-.189c.477-.415.652-.987.535-1.749a2.099 2.099 0 00-1.135-1.653 2.213 2.213 0 00-1.902-.164c-.424.159-.568.32-.617.426a.344.344 0 00.015.289c.092.293.296.538.567.681.903-.147 1.275.189 1.43.504.311.63.065.944-.111 1.076a2.593 2.593 0 01-.66.362c-.053.02-.172.189-.244.653-.036.228-.047.506.102.538.378.085.685.362.9.822.291.623.095 1-.123 1.206a1.116 1.116 0 01-1.047.281 3.106 3.106 0 01-1.055-.47.658.658 0 00-.352-.141v-.004z" fill="#000"/></svg>