<svg width="105" height="22" fill="none" xmlns="http://www.w3.org/2000/svg"><mask id="a" style="mask-type:alpha" maskUnits="userSpaceOnUse" x="0" y="0" width="105" height="22"><g clip-path="url(#clip0_381_26)" fill="#fff"><path d="M102.12.388H84.337c-.905 0-1.658.853-1.658 1.877 0 1.023.753 1.876 1.658 1.876h7.46v13.136c-14.317-.17-20.346-2.73-22.832-4.606h6.254c2.939 0 5.35-2.73 5.35-6.056 0-3.327-2.411-6.056-5.35-6.056H58.114L44.7 15.998c-.075.085-.226.17-.301.17-.076 0-.227 0-.302-.17L31.74 2.35c-1.507-1.62-3.843-1.62-5.274.085L14.634 15.998c-.15.17-.226.17-.377.17-.075 0-.226 0-.301-.17L4.237 1.24C3.708.388 2.653.218 1.9.9c-.753.597-.904 1.791-.301 2.644l9.72 14.757c.679 1.023 1.658 1.62 2.713 1.706a3.43 3.43 0 002.939-1.28L28.801 5.25a.42.42 0 01.603 0l12.358 13.648c.754.768 1.658 1.28 2.713 1.194.98 0 1.96-.512 2.637-1.28L59.47 4.228h15.674c1.13 0 2.11 1.023 2.11 2.388 0 1.28-.905 2.388-2.11 2.388H63.916v1.877c0 1.706 1.507 10.236 29.538 10.236h1.658V4.056h7.083c.905 0 1.658-.853 1.658-1.877 0-1.023-.829-1.79-1.733-1.79z"/><path d="M29.178 17.192c1.165 0 2.11-1.069 2.11-2.388 0-1.32-.945-2.389-2.11-2.389s-2.11 1.07-2.11 2.389c0 1.319.945 2.388 2.11 2.388z"/></g></mask><g mask="url(#a)"><path fill="#030093" d="M-.603-.485H105v21.818H-.603z"/></g><defs><clipPath id="clip0_381_26"><path fill="#fff" d="M0 0h105v21.334H0z"/></clipPath></defs></svg>