<svg width="135" height="21" fill="none" xmlns="http://www.w3.org/2000/svg"><path d="M12.929 17h-2.83l-1.125-2.927h-5.15L2.76 17H0L5.019 4.115h2.75L12.93 17zm-4.79-5.098l-1.776-4.78-1.74 4.78H8.14zM16.664 17h-2.47V7.666h2.294v1.327c.393-.627.744-1.04 1.055-1.24a1.97 1.97 0 011.072-.298c.563 0 1.105.155 1.626.466l-.764 2.153c-.416-.27-.803-.404-1.16-.404-.346 0-.64.097-.88.29-.24.188-.43.53-.57 1.028-.136.498-.203 1.541-.203 3.13V17zm4.65-10.6V4.115h2.47V6.4h-2.47zm0 10.6V7.666h2.47V17h-2.47zm10.415-2.97l2.46.412c-.316.903-.817 1.591-1.502 2.066-.68.469-1.533.703-2.558.703-1.623 0-2.824-.53-3.604-1.59-.615-.85-.922-1.923-.922-3.218 0-1.547.404-2.757 1.212-3.63.809-.878 1.831-1.318 3.068-1.318 1.389 0 2.484.46 3.287 1.38.803.914 1.186 2.317 1.151 4.21h-6.187c.017.732.217 1.304.597 1.714.381.404.856.606 1.424.606.387 0 .712-.105.976-.316.264-.211.463-.551.598-1.02zm.14-2.497c-.017-.715-.202-1.257-.554-1.626a1.693 1.693 0 00-1.283-.562c-.539 0-.984.196-1.336.589-.351.392-.524.925-.518 1.6h3.691zM36.343 17V4.115h2.47V17h-2.47zm10.046 0V4.115h5.475c1.377 0 2.376.117 2.997.352.627.228 1.128.638 1.503 1.23s.563 1.269.563 2.03c0 .967-.284 1.767-.853 2.4-.568.627-1.418 1.022-2.549 1.186.563.329 1.026.689 1.39 1.082.368.392.863 1.09 1.484 2.091L57.973 17H54.86l-1.88-2.804c-.669-1.002-1.126-1.631-1.372-1.89-.246-.263-.507-.442-.782-.535-.275-.1-.712-.15-1.31-.15h-.527V17H46.39zm2.601-7.436h1.925c1.248 0 2.027-.052 2.338-.158.31-.105.554-.287.73-.545.175-.257.263-.58.263-.966 0-.434-.117-.783-.352-1.046-.228-.27-.553-.44-.975-.51-.211-.03-.844-.044-1.898-.044h-2.03v3.27zm15.785 4.465l2.461.413c-.316.903-.817 1.591-1.503 2.066-.68.469-1.532.703-2.557.703-1.623 0-2.824-.53-3.604-1.59-.615-.85-.923-1.923-.923-3.218 0-1.547.405-2.757 1.213-3.63.809-.878 1.831-1.318 3.068-1.318 1.388 0 2.484.46 3.287 1.38.802.914 1.186 2.317 1.151 4.21h-6.187c.017.732.217 1.304.597 1.714.381.404.856.606 1.424.606.387 0 .712-.105.976-.316.263-.211.463-.551.597-1.02zm.141-2.496c-.018-.715-.202-1.257-.554-1.626a1.693 1.693 0 00-1.283-.562c-.539 0-.984.196-1.336.589-.351.392-.524.925-.518 1.6h3.691zM69.39 6.4V4.115h2.47V6.4h-2.47zm0 10.6V7.666h2.47V17h-2.47zm13.148-6.574l-2.434.44c-.082-.487-.27-.853-.563-1.1-.287-.245-.662-.369-1.125-.369-.615 0-1.107.214-1.477.642-.363.422-.544 1.13-.544 2.127 0 1.107.184 1.89.553 2.347.375.457.876.685 1.503.685.469 0 .853-.132 1.152-.395.298-.27.51-.73.632-1.38l2.426.413c-.252 1.113-.735 1.954-1.45 2.522-.715.569-1.673.853-2.874.853-1.365 0-2.455-.43-3.27-1.292-.808-.861-1.212-2.054-1.212-3.577 0-1.541.407-2.74 1.221-3.595.815-.861 1.916-1.292 3.305-1.292 1.137 0 2.039.246 2.707.738.674.487 1.157 1.23 1.45 2.233zm4.342-6.31v4.737c.797-.932 1.749-1.398 2.856-1.398a3.64 3.64 0 011.538.316c.457.211.8.481 1.029.81.234.327.392.69.474 1.089.088.398.132 1.017.132 1.854V17h-2.47v-4.93c0-.98-.046-1.6-.14-1.864a1.195 1.195 0 00-.501-.624c-.234-.158-.53-.237-.888-.237-.41 0-.776.1-1.099.299-.322.199-.559.5-.711.905-.147.398-.22.99-.22 1.775V17h-2.47V4.115h2.47zm8.358 3.55h2.277V8.94c.814-.99 1.784-1.485 2.909-1.485.597 0 1.116.123 1.555.37.44.245.8.617 1.082 1.115.41-.498.852-.87 1.327-1.116a3.253 3.253 0 011.52-.369c.686 0 1.266.14 1.74.422.475.275.83.683 1.064 1.222.17.398.255 1.043.255 1.933V17h-2.47v-5.335c0-.926-.085-1.523-.255-1.793-.228-.351-.58-.527-1.054-.527-.346 0-.671.105-.976.316-.305.211-.524.522-.659.932-.135.404-.202 1.046-.202 1.925V17h-2.47v-5.115c0-.908-.044-1.494-.132-1.758-.088-.264-.226-.46-.413-.589-.182-.129-.43-.193-.747-.193a1.8 1.8 0 00-1.028.307 1.71 1.71 0 00-.66.888c-.129.387-.193 1.028-.193 1.925V17h-2.47V7.666zm18.044 2.848l-2.241-.405c.252-.902.686-1.57 1.301-2.004.615-.433 1.529-.65 2.742-.65 1.102 0 1.922.132 2.461.396.539.257.917.588 1.134.993.222.398.334 1.134.334 2.206l-.027 2.883c0 .82.038 1.426.115 1.819.082.387.231.803.448 1.248h-2.444a9.406 9.406 0 01-.237-.73 4.13 4.13 0 00-.088-.29 4.46 4.46 0 01-1.353.923 3.877 3.877 0 01-1.538.308c-.961 0-1.72-.26-2.277-.782-.55-.522-.826-1.181-.826-1.978 0-.527.126-.996.378-1.406a2.44 2.44 0 011.055-.95c.457-.222 1.113-.415 1.969-.58 1.154-.216 1.954-.418 2.399-.606v-.246c0-.475-.117-.811-.352-1.01-.234-.206-.676-.308-1.327-.308-.439 0-.782.088-1.028.263-.246.17-.445.472-.598.906zm3.305 2.004c-.316.105-.817.231-1.503.377-.686.147-1.134.29-1.345.431-.322.229-.483.519-.483.87 0 .346.129.645.387.897.257.252.586.378.984.378.445 0 .87-.147 1.274-.44.299-.222.495-.495.589-.817.065-.211.097-.612.097-1.204v-.492zM129.946 17h-2.469v-4.764c0-1.008-.053-1.658-.159-1.95a1.36 1.36 0 00-.518-.695 1.452 1.452 0 00-.853-.246c-.427 0-.811.117-1.151.351-.34.235-.574.545-.703.932-.123.387-.185 1.101-.185 2.145V17h-2.47V7.666h2.294v1.371c.815-1.055 1.84-1.582 3.077-1.582.545 0 1.043.1 1.494.299.451.193.791.442 1.019.747.235.305.396.65.484 1.037.093.387.14.94.14 1.661V17z" fill="#000"/></svg>