<svg width="91" height="90" viewBox="0 0 91 90" fill="none" xmlns="http://www.w3.org/2000/svg">
<path d="M90.4593 0H0.601248C0.562589 0 0.53125 0.0313394 0.53125 0.0699985V89.928C0.53125 89.9667 0.562589 89.998 0.601248 89.998H90.4593C90.4979 89.998 90.5293 89.9667 90.5293 89.928V0.0699985C90.5293 0.0313394 90.4979 0 90.4593 0Z" fill="black"/>
<path d="M55.3497 56.6789L52.5597 74.7285H63.1595C64.8995 62.2088 68.2294 39.7892 67.8794 37.1293C67.8794 25.0596 57.6596 15.2698 45.3799 15.2698C42.3 15.2698 39.37 15.8798 36.7001 16.9997C33.4702 18.3197 30.6302 20.3997 28.4103 23.0096C25.1303 26.8195 23.1504 31.7494 23.1504 37.1293C23.1504 49.209 33.1002 58.9988 45.3799 58.9988C48.9598 58.9988 52.3498 58.1588 55.3497 56.6789ZM45.3799 26.5395C46.4599 26.5395 47.4899 26.6895 48.4698 26.9795H48.4798C49.3098 27.2295 50.0998 27.5695 50.8298 27.9895H50.8398C51.1398 28.1695 51.4298 28.3595 51.7098 28.5595L51.7298 28.5695C52.0698 28.8095 52.3898 29.0795 52.6997 29.3495L52.7197 29.3695L52.8497 29.4995L52.8697 29.5195C53.0197 29.6495 53.1497 29.7895 53.2897 29.9395L53.3097 29.9595L53.4197 30.0795L53.4697 30.1295L53.5697 30.2494L53.5997 30.2894C53.7697 30.4794 53.9297 30.6794 54.0897 30.8894L54.1197 30.9394L54.2197 31.0694L54.2497 31.1194L54.3397 31.2394L54.3897 31.3194L54.4697 31.4294L54.5797 31.6094V31.6194L54.6497 31.7294L54.6997 31.8094L54.7697 31.9294L54.8197 32.0194L54.8797 32.1394L54.9297 32.2094L54.9897 32.3394H54.9997C55.0297 32.4094 55.0597 32.4694 55.0897 32.5294V32.5394L55.1297 32.6194L55.1897 32.7394L55.2297 32.8394L55.2897 32.9594L55.3297 33.0594L55.3797 33.1894L55.4197 33.2794L55.4797 33.4394L55.4997 33.4894L55.5097 33.5094C55.5297 33.5794 55.5597 33.6494 55.5797 33.7194L55.6097 33.7794L55.6597 33.9494L55.6897 34.0394L55.7297 34.1694L55.7597 34.2794L55.7997 34.4394L55.8197 34.4994C55.8397 34.5694 55.8597 34.6394 55.8697 34.7094L55.8797 34.7394L55.8897 34.7793L55.9297 34.9693L55.9497 35.0493L55.9797 35.2193L55.9897 35.2993L56.0197 35.4693L56.0297 35.5393L56.0597 35.7493L56.0697 35.7893C56.0797 35.8693 56.0897 35.9493 56.0997 36.0393V36.0893L56.1197 36.2893L56.1297 36.3693L56.1397 36.5293V36.6293L56.1497 36.7893V36.8793C56.1497 36.9693 56.1597 37.0493 56.1597 37.1293C56.1597 42.9792 51.3298 47.7291 45.3799 47.7291C45.2999 47.7291 45.2099 47.7291 45.1299 47.7291H45.1099H45.0999H45.0899L44.8999 47.7191H44.8799H44.8599L44.7999 47.7091H44.7799H44.7699H44.7499L44.6499 47.6991H44.6299H44.6099H44.5899L44.4999 47.6891H44.4799H44.4599H44.4399H44.4199H44.3999L44.3899 47.6791H44.3699L44.1799 47.6591H44.1599H44.1499C38.78 47.0591 34.6101 42.5792 34.6101 37.1293C34.6101 31.2794 39.43 26.5395 45.3799 26.5395Z" fill="#FEFEFE"/>
</svg>
