<svg width="285" height="267" viewBox="0 0 285 267" fill="none" xmlns="http://www.w3.org/2000/svg">
<mask id="path-1-inside-1_214_20" fill="white">
<path d="M233.848 136.937L220.826 179.39L208.155 140.632L222.007 96.1761L233.848 136.937Z"/>
<path d="M246.815 183.082L236.654 221.545L223.983 182.787L236.194 140.995L246.815 183.082Z"/>
<path d="M258.595 228.205L252.039 266.714L239.368 227.956L248.723 189.819L258.595 228.205Z"/>
<path d="M248.086 93.493L236.309 132.942L224.052 93.1822L238.691 49.7433L248.086 93.493Z"/>
<path d="M259.083 137.263L248.88 178.746L238.254 136.994L250.017 98.5519L259.083 137.263Z"/>
<path d="M274.532 93.1637L261.158 132.256L252.101 92.8737L265.909 51.4377L274.532 93.1637Z"/>
<path d="M270.358 183.439L259.965 223.178L250.476 183.721L261.167 141.608L270.358 183.439Z"/>
<path d="M284.328 136.919L272.141 177.033L262.698 136.639L275.578 97.4258L284.328 136.919Z"/>
<path d="M263.987 45.7075L250.174 87.4791L240.755 45.4071L255.729 2.97936L263.987 45.7075Z"/>
<path d="M183.279 2.04254L167.104 44.1192L104.17 43.3054L119.708 1.22051L183.279 2.04254Z"/>
<path d="M114.383 1.15159L98.2084 43.2282L35.2738 42.4144L50.8125 0.329559L114.383 1.15159Z"/>
<path d="M97.7037 47.2489L81.5294 89.3256L18.5947 88.5118L34.1334 46.4269L97.7037 47.2489Z"/>
<path d="M80.2139 94.007L63.8806 136.082L0.303833 135.259L15.995 93.1766L80.2139 94.007Z"/>
<path d="M165.798 48.1295L149.624 90.2061L86.6895 89.3923L102.228 47.3075L165.798 48.1295Z"/>
<path d="M149.11 94.8979L132.936 136.975L70.001 136.161L85.5397 94.0759L149.11 94.8979Z"/>
<path d="M251.373 2.92305L237.424 45.0285L172.264 44.1859L187.803 2.10102L251.373 2.92305Z"/>
<path d="M234.695 49.0204L220.745 91.1258L155.586 90.2832L171.124 48.1984L234.695 49.0204Z"/>
<path d="M218.006 95.7888L204.056 137.894L138.897 137.052L154.436 94.9667L218.006 95.7888Z"/>
<path d="M180.339 265.787L165.307 227.334L102.372 226.52L116.769 264.965L180.339 265.787Z"/>
<path d="M111.443 264.896L96.5699 226.445L34.2775 225.64L48.5216 264.083L111.443 264.896Z"/>
<path d="M96.0205 222.411L80.9883 183.958L18.0537 183.144L32.4502 221.589L96.0205 222.411Z"/>
<path d="M79.8063 179.244L64.6152 140.789L1.0384 139.967L15.5873 178.414L79.8063 179.244Z"/>
<path d="M164.115 223.292L149.083 184.839L86.1486 184.025L100.545 222.47L164.115 223.292Z"/>
<path d="M148.702 180.135L133.67 141.682L70.7354 140.869L85.1319 179.313L148.702 180.135Z"/>
<path d="M248.434 266.668L235.627 228.244L170.467 227.401L184.864 265.846L248.434 266.668Z"/>
<path d="M233.011 224.183L220.204 185.758L155.044 184.916L169.441 223.361L233.011 224.183Z"/>
<path d="M216.797 181.016L204.126 142.594L139.631 141.76L153.875 180.202L216.797 181.016Z"/>
</mask>
<path d="M233.848 136.937L220.826 179.39L208.155 140.632L222.007 96.1761L233.848 136.937Z" stroke="#5F4E4E" stroke-width="2" mask="url(#path-1-inside-1_214_20)"/>
<path d="M246.815 183.082L236.654 221.545L223.983 182.787L236.194 140.995L246.815 183.082Z" stroke="#5F4E4E" stroke-width="2" mask="url(#path-1-inside-1_214_20)"/>
<path d="M258.595 228.205L252.039 266.714L239.368 227.956L248.723 189.819L258.595 228.205Z" stroke="#5F4E4E" stroke-width="2" mask="url(#path-1-inside-1_214_20)"/>
<path d="M248.086 93.493L236.309 132.942L224.052 93.1822L238.691 49.7433L248.086 93.493Z" stroke="#5F4E4E" stroke-width="2" mask="url(#path-1-inside-1_214_20)"/>
<path d="M259.083 137.263L248.88 178.746L238.254 136.994L250.017 98.5519L259.083 137.263Z" stroke="#5F4E4E" stroke-width="2" mask="url(#path-1-inside-1_214_20)"/>
<path d="M274.532 93.1637L261.158 132.256L252.101 92.8737L265.909 51.4377L274.532 93.1637Z" stroke="#5F4E4E" stroke-width="2" mask="url(#path-1-inside-1_214_20)"/>
<path d="M270.358 183.439L259.965 223.178L250.476 183.721L261.167 141.608L270.358 183.439Z" stroke="#5F4E4E" stroke-width="2" mask="url(#path-1-inside-1_214_20)"/>
<path d="M284.328 136.919L272.141 177.033L262.698 136.639L275.578 97.4258L284.328 136.919Z" stroke="#5F4E4E" stroke-width="2" mask="url(#path-1-inside-1_214_20)"/>
<path d="M263.987 45.7075L250.174 87.4791L240.755 45.4071L255.729 2.97936L263.987 45.7075Z" stroke="#5F4E4E" stroke-width="2" mask="url(#path-1-inside-1_214_20)"/>
<path d="M183.279 2.04254L167.104 44.1192L104.17 43.3054L119.708 1.22051L183.279 2.04254Z" stroke="#5F4E4E" stroke-width="2" mask="url(#path-1-inside-1_214_20)"/>
<path d="M114.383 1.15159L98.2084 43.2282L35.2738 42.4144L50.8125 0.329559L114.383 1.15159Z" stroke="#5F4E4E" stroke-width="2" mask="url(#path-1-inside-1_214_20)"/>
<path d="M97.7037 47.2489L81.5294 89.3256L18.5947 88.5118L34.1334 46.4269L97.7037 47.2489Z" stroke="#5F4E4E" stroke-width="2" mask="url(#path-1-inside-1_214_20)"/>
<path d="M80.2139 94.007L63.8806 136.082L0.303833 135.259L15.995 93.1766L80.2139 94.007Z" stroke="#5F4E4E" stroke-width="2" mask="url(#path-1-inside-1_214_20)"/>
<path d="M165.798 48.1295L149.624 90.2061L86.6895 89.3923L102.228 47.3075L165.798 48.1295Z" stroke="#5F4E4E" stroke-width="2" mask="url(#path-1-inside-1_214_20)"/>
<path d="M149.11 94.8979L132.936 136.975L70.001 136.161L85.5397 94.0759L149.11 94.8979Z" stroke="#5F4E4E" stroke-width="2" mask="url(#path-1-inside-1_214_20)"/>
<path d="M251.373 2.92305L237.424 45.0285L172.264 44.1859L187.803 2.10102L251.373 2.92305Z" stroke="#5F4E4E" stroke-width="2" mask="url(#path-1-inside-1_214_20)"/>
<path d="M234.695 49.0204L220.745 91.1258L155.586 90.2832L171.124 48.1984L234.695 49.0204Z" stroke="#5F4E4E" stroke-width="2" mask="url(#path-1-inside-1_214_20)"/>
<path d="M218.006 95.7888L204.056 137.894L138.897 137.052L154.436 94.9667L218.006 95.7888Z" stroke="#5F4E4E" stroke-width="2" mask="url(#path-1-inside-1_214_20)"/>
<path d="M180.339 265.787L165.307 227.334L102.372 226.52L116.769 264.965L180.339 265.787Z" stroke="#5F4E4E" stroke-width="2" mask="url(#path-1-inside-1_214_20)"/>
<path d="M111.443 264.896L96.5699 226.445L34.2775 225.64L48.5216 264.083L111.443 264.896Z" stroke="#5F4E4E" stroke-width="2" mask="url(#path-1-inside-1_214_20)"/>
<path d="M96.0205 222.411L80.9883 183.958L18.0537 183.144L32.4502 221.589L96.0205 222.411Z" stroke="#5F4E4E" stroke-width="2" mask="url(#path-1-inside-1_214_20)"/>
<path d="M79.8063 179.244L64.6152 140.789L1.0384 139.967L15.5873 178.414L79.8063 179.244Z" stroke="#5F4E4E" stroke-width="2" mask="url(#path-1-inside-1_214_20)"/>
<path d="M164.115 223.292L149.083 184.839L86.1486 184.025L100.545 222.47L164.115 223.292Z" stroke="#5F4E4E" stroke-width="2" mask="url(#path-1-inside-1_214_20)"/>
<path d="M148.702 180.135L133.67 141.682L70.7354 140.869L85.1319 179.313L148.702 180.135Z" stroke="#5F4E4E" stroke-width="2" mask="url(#path-1-inside-1_214_20)"/>
<path d="M248.434 266.668L235.627 228.244L170.467 227.401L184.864 265.846L248.434 266.668Z" stroke="#5F4E4E" stroke-width="2" mask="url(#path-1-inside-1_214_20)"/>
<path d="M233.011 224.183L220.204 185.758L155.044 184.916L169.441 223.361L233.011 224.183Z" stroke="#5F4E4E" stroke-width="2" mask="url(#path-1-inside-1_214_20)"/>
<path d="M216.797 181.016L204.126 142.594L139.631 141.76L153.875 180.202L216.797 181.016Z" stroke="#5F4E4E" stroke-width="2" mask="url(#path-1-inside-1_214_20)"/>
</svg>
