<svg width="90" height="90" viewBox="0 0 90 90" fill="none" xmlns="http://www.w3.org/2000/svg">
<path d="M89.928 0H0.0699985C0.0313394 0 0 0.0313394 0 0.0699985V89.928C0 89.9667 0.0313394 89.998 0.0699985 89.998H89.928C89.9667 89.998 89.998 89.9667 89.998 89.928V0.0699985C89.998 0.0313394 89.9667 0 89.928 0Z" fill="white"/>
<path d="M54.8184 56.6789L52.0285 74.7285H62.6283C64.3682 62.2088 67.6982 39.7892 67.3482 37.1293C67.3482 25.0596 57.1284 15.2698 44.8487 15.2698C41.7687 15.2698 38.8388 15.8798 36.1688 16.9997C32.9389 18.3197 30.099 20.3997 27.879 23.0096C24.5991 26.8195 22.6191 31.7494 22.6191 37.1293C22.6191 49.209 32.5689 58.9988 44.8487 58.9988C48.4286 58.9988 51.8185 58.1588 54.8184 56.6789ZM44.8487 26.5395C45.9286 26.5395 46.9586 26.6895 47.9386 26.9795H47.9486C48.7786 27.2295 49.5686 27.5695 50.2985 27.9895H50.3085C50.6085 28.1695 50.8985 28.3595 51.1785 28.5595L51.1985 28.5695C51.5385 28.8095 51.8585 29.0795 52.1685 29.3495L52.1885 29.3695L52.3185 29.4995L52.3385 29.5195C52.4885 29.6495 52.6185 29.7895 52.7585 29.9395L52.7785 29.9595L52.8885 30.0795L52.9385 30.1295L53.0385 30.2494L53.0685 30.2894C53.2385 30.4794 53.3985 30.6794 53.5585 30.8894L53.5885 30.9394L53.6885 31.0694L53.7185 31.1194L53.8085 31.2394L53.8585 31.3194L53.9385 31.4294L54.0485 31.6094V31.6194L54.1185 31.7294L54.1685 31.8094L54.2385 31.9294L54.2884 32.0194L54.3484 32.1394L54.3984 32.2094L54.4584 32.3394H54.4684C54.4984 32.4094 54.5284 32.4694 54.5584 32.5294V32.5394L54.5984 32.6194L54.6584 32.7394L54.6984 32.8394L54.7584 32.9594L54.7984 33.0594L54.8484 33.1894L54.8884 33.2794L54.9484 33.4394L54.9684 33.4894L54.9784 33.5094C54.9984 33.5794 55.0284 33.6494 55.0484 33.7194L55.0784 33.7794L55.1284 33.9494L55.1584 34.0394L55.1984 34.1694L55.2284 34.2794L55.2684 34.4394L55.2884 34.4994C55.3084 34.5694 55.3284 34.6394 55.3384 34.7094L55.3484 34.7394L55.3584 34.7793L55.3984 34.9693L55.4184 35.0493L55.4484 35.2193L55.4584 35.2993L55.4884 35.4693L55.4984 35.5393L55.5284 35.7493L55.5384 35.7893C55.5484 35.8693 55.5584 35.9493 55.5684 36.0393V36.0893L55.5884 36.2893L55.5984 36.3693L55.6084 36.5293V36.6293L55.6184 36.7893V36.8793C55.6184 36.9693 55.6284 37.0493 55.6284 37.1293C55.6284 42.9792 50.7985 47.7291 44.8487 47.7291C44.7687 47.7291 44.6787 47.7291 44.5987 47.7291H44.5787H44.5687H44.5587L44.3687 47.7191H44.3487H44.3287L44.2687 47.7091H44.2487H44.2387H44.2187L44.1187 47.6991H44.0987H44.0787H44.0587L43.9687 47.6891H43.9487H43.9287H43.9087H43.8887H43.8687L43.8587 47.6791H43.8387L43.6487 47.6591H43.6287H43.6187C38.2488 47.0591 34.0789 42.5792 34.0789 37.1293C34.0789 31.2794 38.8988 26.5395 44.8487 26.5395Z" fill="black"/>
</svg>
