<svg width="135" height="22" viewBox="0 0 135 22" fill="none" xmlns="http://www.w3.org/2000/svg">
<mask id="mask0_381_150" style="mask-type:alpha" maskUnits="userSpaceOnUse" x="0" y="0" width="135" height="22">
<g clip-path="url(#clip0_381_150)">
<path d="M0 2.07463V1.54449C0.360489 1.53083 0.715004 1.4481 1.04429 1.30079C1.24106 1.18696 1.38809 0.917594 1.4854 0.492676H2.03113V5.96723H1.29367V2.07463H0Z" fill="#F4F3F0"/>
<path d="M12.476 0.381348C17.6618 0.381348 21.2949 1.5529 21.2949 6.79664C21.2949 12.0696 17.6616 13.2123 12.476 13.2123H8.81357V21.6196H5.82544V0.381348H12.476ZM8.81357 2.90102V10.6052H12.7107C15.8154 10.6052 18.2479 10.2827 18.2479 6.79685C18.2479 3.34046 15.8162 2.90102 12.7107 2.90102H8.81357Z" fill="#F4F3F0"/>
<path d="M26.2753 19.0419H37.4964V21.6196H23.2867V0.381348H26.2753V19.0419Z" fill="#F4F3F0"/>
<path d="M47.1355 0.381348H50.5927L58.591 21.6196H55.3682L53.698 17.0205H43.9419L42.3015 21.6196H39.2543L47.1355 0.381348ZM44.8503 14.4714H52.7601L48.7763 3.39871L44.8503 14.4714Z" fill="#F4F3F0"/>
<path d="M77.5762 14.8522C76.6388 19.5396 72.9763 22 68.3766 22C62.2826 22 58.7374 17.4303 58.7374 10.9564C58.7374 4.36489 62.6051 0 68.6112 0C73.0061 0 76.5509 2.60736 77.4591 7.14822H74.5589C73.9137 4.51163 71.8635 2.51988 68.4649 2.51988C64.7151 2.51988 61.7848 5.44895 61.7848 10.9566C61.7848 16.3172 64.5974 19.4811 68.5528 19.4811C71.9221 19.4811 74.002 17.5771 74.676 14.8524L77.5762 14.8522Z" fill="#F4F3F0"/>
<path d="M85.5158 0.381348H88.973L96.9718 21.6196H93.7488L92.0789 17.0205H82.3224L80.682 21.6196H77.6356L85.5158 0.381348ZM83.2307 14.4714H91.1411L87.1566 3.39871L83.2307 14.4714Z" fill="#F4F3F0"/>
<path d="M107.255 12.6554C106.727 12.6846 106.2 12.6846 105.644 12.6846H101.894V21.6192H98.9048V0.381348H105.644C110.829 0.381348 114.491 1.40676 114.491 6.50356C114.491 9.87246 112.88 11.4836 110.272 12.1879L115.195 21.6216H111.855L107.255 12.6554ZM101.892 2.90062V10.1654H105.878C108.984 10.1654 111.415 9.84283 111.415 6.56201C111.415 3.28119 108.983 2.90082 105.878 2.90082L101.892 2.90062Z" fill="#F4F3F0"/>
<path d="M123.427 0.381348C130.166 0.381348 135 2.90102 135 10.9856C135 19.1003 130.166 21.6194 123.427 21.6194H117.626V0.381348H123.427ZM123.339 2.90102H120.614V19.1007H123.338C127.733 19.1007 131.952 18.2219 131.952 10.986C131.953 3.77948 127.733 2.90082 123.338 2.90082L123.339 2.90102Z" fill="#F4F3F0"/>
</g>
</mask>
<g mask="url(#mask0_381_150)">
<rect width="135" height="22" fill="#767676"/>
</g>
<defs>
<clipPath id="clip0_381_150">
<rect width="135" height="22" fill="white"/>
</clipPath>
</defs>
</svg>
