<svg width="105" height="22" viewBox="0 0 105 22" fill="none" xmlns="http://www.w3.org/2000/svg">
<mask id="mask0_381_26" style="mask-type:alpha" maskUnits="userSpaceOnUse" x="0" y="0" width="105" height="22">
<g clip-path="url(#clip0_381_26)">
<path d="M102.12 0.388184H84.3367C83.4324 0.388184 82.679 1.24117 82.679 2.26475C82.679 3.28833 83.4324 4.14131 84.3367 4.14131H91.7966V17.2773C77.4796 17.1066 71.4513 14.5477 68.9647 12.6712H75.219C78.1578 12.6712 80.569 9.94161 80.569 6.61497C80.569 3.28833 78.1578 0.558784 75.219 0.558784H58.1139L44.7009 15.9977C44.6255 16.083 44.4749 16.1684 44.3995 16.1684C44.3241 16.1684 44.1735 16.1684 44.0981 15.9977L31.7401 2.35005C30.2331 0.729379 27.8971 0.729378 26.4655 2.43534L14.635 15.9977C14.4843 16.1684 14.409 16.1684 14.2582 16.1684C14.1829 16.1684 14.0322 16.1684 13.9568 15.9977L4.23626 1.24117C3.70879 0.388184 2.65384 0.217592 1.90032 0.899979C1.14678 1.49707 0.996073 2.69124 1.5989 3.54423L11.3195 18.3008C11.9976 19.3244 12.9772 19.9216 14.0322 20.0067C15.0871 20.0921 16.2174 19.6656 16.971 18.7273L28.8014 5.25019C28.9521 5.0796 29.2535 5.0796 29.4043 5.25019L41.7621 18.898C42.5157 19.6656 43.4199 20.1774 44.4749 20.0921C45.4545 20.0921 46.4341 19.5804 47.1123 18.8127L59.4701 4.22661H75.1436C76.2739 4.22661 77.2535 5.25019 77.2535 6.61497C77.2535 7.89445 76.3493 9.00333 75.1436 9.00333H63.916V10.8799C63.916 12.5858 65.4231 21.1156 93.4544 21.1156H95.1122V4.05602H102.195C103.1 4.05602 103.853 3.20303 103.853 2.17945C103.853 1.15587 103.024 0.388184 102.12 0.388184Z" fill="white"/>
<path d="M29.1782 17.1922C30.3434 17.1922 31.288 16.123 31.288 14.8039C31.288 13.4848 30.3434 12.4155 29.1782 12.4155C28.013 12.4155 27.0682 13.4848 27.0682 14.8039C27.0682 16.123 28.013 17.1922 29.1782 17.1922Z" fill="white"/>
</g>
</mask>
<g mask="url(#mask0_381_26)">
<rect x="-0.603394" y="-0.484863" width="105.603" height="21.8183" fill="#030093"/>
</g>
<defs>
<clipPath id="clip0_381_26">
<rect width="105" height="21.3335" fill="white"/>
</clipPath>
</defs>
</svg>
