<svg width="82" height="60" viewBox="0 0 82 60" fill="none" xmlns="http://www.w3.org/2000/svg">
<path d="M29.9437 7.79899L42.2258 2.89299L48.8455 0.817383L52.8247 5.81771L56.0324 10.852L63.5864 32.4176L63.8511 35.914L41.7209 46.46L35.7084 49.2451L30.6416 41.0917L19.9612 23.6453L14.1208 15.5844L29.9437 7.79899Z" fill="#C9C8C8"/>
<path d="M15.3522 36.9385C15.3522 36.9385 15.3522 36.9385 15.3386 36.9385L15.3503 36.9551L15.3697 36.9406L15.3522 36.9385Z" fill="black"/>
<path d="M64.3918 35.6838C64.3918 35.663 64.3918 35.6442 64.3918 35.6253C64.1875 35.3762 64.2329 35.0592 64.1553 34.7705C63.9455 33.9912 63.7563 33.2062 63.588 32.4175C63.484 31.908 63.344 31.408 63.2097 30.9079C63.1137 30.4584 62.9938 30.0144 62.8503 29.5777C62.8063 29.4761 62.7951 29.3633 62.8182 29.2549C62.7854 29.2346 62.7575 29.207 62.7368 29.1743C62.7162 29.1416 62.7033 29.1047 62.6991 29.0663C62.4419 28.0379 62.1449 27.0209 61.8234 26.0094C61.657 25.4811 61.5284 24.9395 61.3524 24.415C61.2579 24.1395 60.7434 23.0073 60.6583 22.7299C60.471 22.7615 60.2808 22.7735 60.0909 22.7658C59.9919 22.7599 59.8933 22.7474 59.7959 22.728C59.7959 22.728 60.5146 24.615 60.6621 25.083C60.7926 25.4924 60.9288 25.9019 61.0404 26.3132C61.152 26.7246 61.2957 27.1227 61.4092 27.5322C61.6078 28.2492 61.8612 28.9512 62.0371 29.6739C62.1412 30.106 62.2943 30.523 62.3757 30.9645C62.4283 31.2446 62.5042 31.5197 62.6026 31.7872C62.7079 32.086 62.7834 32.3945 62.8277 32.7081C62.8682 32.8802 62.9193 33.0498 62.9809 33.2157C63.0527 33.478 63.1322 33.7516 63.1794 34.0138C63.2381 34.3479 63.3969 34.6592 63.3989 35.0045C63.3994 35.0705 63.4163 35.1352 63.448 35.1932C63.4872 35.2559 63.5104 35.3273 63.5155 35.401C63.5206 35.4747 63.5077 35.5486 63.4776 35.6161C63.4476 35.6837 63.4014 35.7429 63.3432 35.7885C63.2849 35.8342 63.2164 35.865 63.1435 35.8782C62.5761 36.0574 62.0446 36.3442 61.483 36.548C61.1047 36.6876 60.7264 36.848 60.3595 37.0141C59.9926 37.1801 59.6124 37.3405 59.2379 37.5028L57.5887 38.2312C57.1934 38.4048 56.7868 38.5576 56.401 38.7538C55.9225 38.9991 55.4326 39.2237 54.9409 39.4331C54.3073 39.7068 53.6964 40.0237 53.0628 40.2955C52.4292 40.5672 51.7843 40.8389 51.1715 41.1672C50.3582 41.605 49.5166 41.9786 48.6977 42.4051C47.9411 42.7957 47.1846 43.1768 46.4451 43.5712C45.7566 43.9372 45.0701 44.3071 44.3968 44.7034C43.9845 44.9449 43.559 45.16 43.1542 45.4166C43.0275 45.4978 42.8857 45.5638 42.757 45.6506C42.5679 45.7714 42.4317 45.6261 42.3069 45.5411C41.9097 45.2675 41.8492 44.7241 42.0743 44.243C42.2993 43.7617 42.428 43.2316 42.1745 42.7013C42.08 42.5211 41.9215 42.3825 41.73 42.3126C41.6005 42.2457 41.4555 42.214 41.3099 42.2206C41.1641 42.2272 41.0227 42.272 40.8997 42.3504C40.6255 42.5032 40.5215 42.7749 40.374 43.0315C40.1338 43.4123 39.8231 43.744 39.4586 44.009C39.4112 44.0408 39.3656 44.0755 39.3224 44.1127C38.8912 44.5656 38.7966 44.5751 38.2179 44.3015C37.7753 44.0863 37.3308 43.8769 36.894 43.6655C36.8694 43.6542 36.8391 43.6316 36.824 43.6655C36.8154 43.6919 36.8154 43.7203 36.824 43.7467C36.9384 44.0612 36.9384 44.4058 36.824 44.7204C36.8081 44.8132 36.8036 44.9076 36.8107 45.0015C36.8013 45.311 36.6764 45.3789 36.3833 45.3373C36.1677 45.3072 35.971 45.209 35.7592 45.1977C35.5473 45.1864 35.4622 44.7921 35.553 44.6316C35.6398 44.4154 35.6915 44.1867 35.7062 43.9542C35.7667 43.658 35.64 43.5769 35.3015 43.4749C34.8173 43.3429 34.3426 43.1731 33.864 43.0127C33.4972 42.89 33.117 42.7975 32.7293 42.7089C32.3415 42.6202 31.8555 42.6542 31.5547 42.2994C31.416 42.1151 31.3009 41.9141 31.2124 41.7012C30.9609 41.1672 30.6791 40.6502 30.401 40.1313C30.1854 39.7275 29.9793 39.3143 29.7713 38.9048C29.6663 38.6498 29.5398 38.4043 29.393 38.1708C29.1774 37.8764 29.1755 37.5273 29.2038 37.1783C29.2038 37.0556 29.2038 36.931 29.2038 36.8009C29.1755 36.3574 28.9391 36.0027 28.7291 35.629C28.552 35.3731 28.3533 35.1325 28.1352 34.9101C28.0463 34.8007 28.1693 34.612 28.3395 34.5912C29.0147 34.512 29.6824 34.378 30.2308 33.9591C30.4446 33.795 30.751 33.6327 30.7982 33.3383C30.8834 32.8232 30.8701 32.3213 30.4881 31.8759C30.106 31.4306 29.5632 31.1966 29.0166 31.0249C28.7264 30.9638 28.4296 30.9397 28.1334 30.9532C27.8743 30.9419 27.7551 30.7514 27.8837 30.5324C28.0956 30.189 28.3358 29.8625 28.5362 29.5135C28.8415 29.0327 29.089 28.5178 29.2738 27.9794C29.4058 27.6437 29.4855 27.29 29.5102 26.9303C29.497 26.1019 29.0015 25.7321 28.158 25.9226C27.2558 26.1264 26.5371 26.6491 25.8298 27.2057C25.321 27.6077 24.8444 28.0454 24.364 28.4814C24.2637 28.5719 24.2051 28.5266 24.1257 28.4549C23.8325 28.1907 23.6774 27.8322 23.4675 27.5115C23.1535 27.0284 22.8421 26.5441 22.5332 26.0585C22.2854 25.6811 22.0471 25.2754 21.788 24.898C21.5081 24.4867 20.7496 23.4376 20.7496 23.4376C20.7496 23.4376 20.2296 23.4093 20.0045 23.3734C19.7794 23.3376 19.4106 22.996 19.4106 22.996C19.4106 22.996 20.222 24.1489 20.4111 24.4055C20.9142 25.0867 21.4211 25.7679 21.8674 26.4812C22.3138 27.1944 22.8131 27.8907 23.1914 28.6568C23.2403 28.7685 23.3039 28.8732 23.3805 28.9682C23.5185 29.121 23.4486 29.2323 23.3294 29.3342C23.168 29.4693 23.0221 29.6217 22.8944 29.789C22.8768 29.8191 22.8528 29.845 22.824 29.8648C22.7952 29.8846 22.7625 29.8979 22.728 29.9036C22.6935 29.9094 22.6582 29.9075 22.6245 29.8982C22.5908 29.8888 22.5597 29.8721 22.5332 29.8494C21.8475 29.3808 21.1274 28.9644 20.379 28.604C19.1628 28.0379 17.9203 27.5737 16.5321 27.6983C15.8772 27.7617 15.2744 28.0821 14.8563 28.5889C14.4781 29.0248 14.0601 29.4437 13.7064 29.9097C13.6806 29.953 13.6413 29.9867 13.5945 30.0058C13.5478 30.0249 13.4962 30.0282 13.4473 30.0154C13.1915 29.9625 12.9269 29.969 12.674 30.0344C12.4212 30.0998 12.1868 30.2225 11.9891 30.3928C11.5096 30.7427 11.1312 31.2126 10.8921 31.7552C10.7867 32.0189 10.7665 32.3088 10.8343 32.5845C10.9021 32.8603 11.0546 33.108 11.2704 33.293C11.3309 33.3327 11.3732 33.3947 11.3881 33.4654C11.4029 33.5361 11.3892 33.6098 11.3499 33.6705C11.1115 34.1478 10.8468 34.6139 10.7408 35.1479C10.5517 36.1103 10.6557 36.982 11.4614 37.6689C11.8911 38.0283 12.3908 38.2949 12.9291 38.4519C13.2327 38.5476 13.5415 38.6263 13.8539 38.6878C14.0071 38.7179 13.9957 38.8199 14.0033 38.9312C14.043 39.6124 14.2832 40.1898 14.9339 40.5012C15.4148 40.7252 15.958 40.7785 16.4734 40.6521C16.9132 40.5554 17.346 40.4293 17.7689 40.2747C17.7979 40.2702 17.8259 40.2613 17.8522 40.2483C18.1907 39.9879 18.4763 40.186 18.7676 40.3483C19.1755 40.5794 19.6124 40.7552 20.0669 40.871C20.1142 40.8823 20.1861 40.871 20.1918 40.9314C20.1974 40.9918 20.1293 41.0201 20.0745 41.0427C19.8038 41.1466 19.5398 41.2669 19.2839 41.4031C19.1066 41.5038 18.9459 41.6312 18.8073 41.7805C18.5293 42.0918 18.5066 42.3767 18.7751 42.724C19.1342 43.176 19.5648 43.5668 20.0499 43.8807C20.5779 44.2541 21.1486 44.5633 21.7502 44.8015C21.8425 44.8435 21.9174 44.9162 21.962 45.0072C22.4307 45.901 22.9741 46.7538 23.5866 47.5564C23.8684 47.9338 24.1711 48.2886 24.485 48.6357C24.5504 48.698 24.596 48.778 24.6161 48.866C24.6363 48.9538 24.6302 49.0457 24.5985 49.1301C24.3899 49.7915 24.2319 50.4677 24.1257 51.1529C24.0954 51.3416 23.9876 51.368 23.8476 51.3775C23.267 51.4171 22.6845 51.4284 22.1076 51.4963C21.2093 51.6058 20.3147 51.7624 19.4277 51.953C19.3425 51.9719 19.2385 51.9926 19.2196 52.087C19.2007 52.1813 19.3274 52.187 19.3898 52.219C20.103 52.5973 20.7684 53.0591 21.3719 53.5946C21.4097 53.6267 21.4759 53.6418 21.4627 53.7041C21.4495 53.7663 21.3795 53.7871 21.3246 53.7909C21.1147 53.8022 20.9029 53.8041 20.6929 53.8135C20.5756 53.8135 20.5284 53.7343 20.4736 53.6606C20.4152 53.5687 20.3274 53.4991 20.2244 53.4631C20.1214 53.4271 20.0093 53.4269 19.9061 53.4625C19.3809 53.5667 18.8793 53.7669 18.4271 54.0531C18.0016 54.3343 17.924 54.2682 18.0867 54.8381C18.1651 55.1016 18.2282 55.3694 18.2758 55.64C18.3004 55.7948 18.3647 55.8495 18.516 55.8495C18.9964 55.8495 18.9699 55.8608 19.0097 56.3363C19.0777 57.1496 19.1988 57.9591 19.5865 58.695C19.6495 58.8082 19.7243 58.9145 19.8097 59.012C19.8513 59.063 19.9232 59.0913 19.8929 59.1705C19.8626 59.2498 19.7794 59.2724 19.7038 59.2762C18.412 59.3441 17.1203 59.429 15.8284 59.514C15.6785 59.5043 15.528 59.5177 15.3821 59.5536C15.3725 59.5539 15.3631 59.5563 15.3545 59.5607C15.346 59.5651 15.3384 59.5712 15.3325 59.5788C15.3266 59.5863 15.3223 59.5951 15.3202 59.6044C15.3179 59.6137 15.3177 59.6234 15.3197 59.6328C15.3329 59.6668 15.3764 59.6763 15.4124 59.68C15.8171 59.7158 16.2162 59.7064 16.6228 59.7064C21.6121 59.7064 26.602 59.7064 31.5926 59.7064C31.8252 59.7064 32.0579 59.7064 32.2886 59.6856C32.3472 59.6856 32.4437 59.6856 32.4418 59.6026C32.4399 59.5196 32.3435 59.5328 32.2848 59.529C31.4734 59.48 30.6696 59.3272 29.8526 59.3158C29.4478 59.3158 29.0412 59.263 28.6365 59.2347C28.5685 59.2363 28.5014 59.2196 28.4422 59.1864C28.3829 59.1532 28.3338 59.1047 28.2998 59.046C28.158 58.8139 27.9764 58.6063 27.8137 58.3856C27.7791 58.3401 27.7345 58.303 27.6834 58.2772C27.6323 58.2514 27.576 58.2374 27.5187 58.2365C26.8483 58.1688 26.1844 58.0489 25.5328 57.878C25.2737 57.81 25.2567 57.761 25.4023 57.5364C25.6479 57.1565 25.9678 56.8298 26.3428 56.576C26.7178 56.3221 27.1403 56.1463 27.5848 56.059C28.4106 55.8767 29.2653 55.8676 30.0946 56.0325C30.2573 56.0646 30.3386 56.0325 30.3424 55.8438C30.3651 54.7117 30.6318 53.6191 30.8058 52.5115C30.8398 52.2983 30.9003 52.087 30.9325 51.8737C30.9647 51.6605 31.0687 51.6359 31.2219 51.7511C31.5396 51.9907 31.8555 52.2322 32.1675 52.487C32.9354 53.1229 33.6692 53.7984 34.3709 54.5042C35.1539 55.2942 35.9048 56.1118 36.6235 56.9572C37.0226 57.4251 37.4178 57.9006 37.7848 58.3893C37.8075 58.4214 37.8169 58.4743 37.8793 58.461C37.9042 58.4556 37.9268 58.4425 37.9438 58.4235C37.9608 58.4045 37.9713 58.3807 37.9739 58.3553C38.1233 57.6289 38.4637 56.9685 38.6945 56.2798C38.8741 55.7307 39.1332 55.2079 39.3564 54.674C39.3719 54.6257 39.3846 54.5765 39.3943 54.5268C39.4529 54.3249 39.572 54.2966 39.7422 54.4154C39.8747 54.4972 39.9851 54.6098 40.0641 54.7436C40.1432 54.8773 40.1885 55.0283 40.1962 55.1834C40.2208 55.608 40.5177 55.8533 40.8468 56.0703C41.2959 56.3709 41.7669 56.6377 42.2558 56.8685C42.2898 56.8921 42.3286 56.9081 42.3695 56.9152C42.4103 56.9223 42.4522 56.9204 42.4922 56.9096C42.5323 56.8988 42.5694 56.8794 42.6012 56.8528C42.6328 56.8261 42.6583 56.7928 42.6757 56.7552C42.9083 56.4081 43.1485 56.0665 43.383 55.7212C43.4333 55.664 43.4629 55.5916 43.4669 55.5156C43.4711 55.4397 43.4495 55.3646 43.4057 55.3023C43.2601 55.0778 43.3225 54.9098 43.5627 54.7947C43.941 54.606 44.3192 54.4287 44.6975 54.2475C44.9531 54.0942 45.1608 53.8726 45.2971 53.6078C45.7831 52.8757 46.2654 52.1398 46.6853 51.3661C47.013 50.773 47.3097 50.1634 47.5742 49.5396C47.8004 49.0015 47.9832 48.4462 48.1208 47.8791C48.1586 47.7262 48.2381 47.5413 48.1378 47.4187C48.0376 47.296 47.8693 47.4187 47.7349 47.4432C47.2905 47.5092 47.0258 47.8206 46.7685 48.147C46.3903 48.63 46.1349 49.1924 45.7831 49.6924C45.487 50.1533 45.1337 50.5749 44.7316 50.9472C44.5813 51.0593 44.4131 51.1455 44.2341 51.202C43.3464 51.519 42.5561 52.0599 41.94 52.7719C41.904 52.8172 41.8794 52.8701 41.8473 52.9191C41.8156 52.9849 41.7604 53.0365 41.6924 53.0637C41.6246 53.0909 41.5489 53.0918 41.4804 53.0662C41.3064 53.0097 41.1229 52.9738 40.983 53.155C40.9168 53.2417 40.8184 53.204 40.739 53.1908C40.5688 53.1625 40.4099 53.087 40.2321 53.0662C40.0959 53.0493 40.0865 52.9229 40.1375 52.8078C40.2908 52.4549 40.4421 52.1039 40.601 51.7549C40.739 51.4548 40.7239 51.4171 40.4118 51.2643C40.2226 51.1661 40.0335 51.0453 39.8444 50.934C39.8066 50.9133 39.7612 50.8869 39.7687 50.8397C39.7763 50.7925 39.8387 50.7812 39.8879 50.7699C39.9995 50.7567 40.1058 50.715 40.1965 50.6489C40.2873 50.5828 40.3595 50.4945 40.4061 50.3925C40.4278 50.3461 40.4631 50.3074 40.5074 50.2814C40.5516 50.2555 40.6027 50.2435 40.6539 50.2472C40.7702 50.2381 40.8872 50.2445 41.0019 50.2661C41.5692 50.4057 41.9476 50.1113 42.305 49.7566C42.6 49.4584 42.8724 49.1414 42.8535 48.6716C42.8535 48.5508 42.9329 48.5131 43.0597 48.515C43.6365 48.515 44.0885 48.2847 44.323 47.7432C44.4894 47.3659 44.5292 46.7091 44.0885 46.4223C43.9448 46.328 43.7783 46.2714 43.627 46.1884C43.5041 46.1204 43.4719 46.0601 43.627 45.9601C44.062 45.6714 44.5367 45.4563 44.9869 45.2053C45.6697 44.8166 46.3599 44.4411 47.0541 44.0731C47.8106 43.6731 48.5785 43.2901 49.3407 42.8995C49.9289 42.5994 50.5171 42.2937 51.1091 42.0013C51.7692 41.6729 52.433 41.3522 53.0969 41.0333C53.8704 40.6558 54.6458 40.2936 55.4269 39.9388C56.0113 39.6728 56.6052 39.4313 57.1972 39.184C57.7041 38.9652 58.2072 38.7369 58.7102 38.5311C59.3874 38.2595 60.0701 38.0028 60.7529 37.7462C61.22 37.5726 61.6853 37.3971 62.1601 37.2461C62.5705 37.1141 62.9733 36.9612 63.3894 36.8462C63.7222 36.7555 64.057 36.6707 64.388 36.5725C64.5563 36.5235 64.5185 36.3518 64.4675 36.2386C64.3943 36.0633 64.3682 35.8721 64.3918 35.6838ZM35.415 45.7355C35.4508 45.5978 35.5606 45.5846 35.6741 45.6129C35.902 45.6836 36.1346 45.7384 36.37 45.7771C36.4684 45.7864 36.5138 45.8469 36.4835 45.9657C36.3377 46.4466 36.1542 46.9154 35.935 47.3677C35.9168 47.4008 35.889 47.4276 35.8553 47.4448C35.8216 47.462 35.7835 47.4686 35.7459 47.464C35.5208 47.4111 35.2863 47.3375 35.0404 47.3017C34.8891 47.2809 34.9175 47.113 34.9591 46.9903C35.1048 46.5715 35.3015 46.1695 35.415 45.7355ZM28.7291 38.9576C28.8445 38.7972 28.9182 38.801 29.0223 38.9802C29.4006 39.6709 29.7977 40.3502 30.1571 41.0464C30.2989 41.3163 30.4521 41.5805 30.5959 41.8484C30.6186 41.8767 30.6318 41.9116 30.6335 41.9478C30.6352 41.9841 30.6253 42.02 30.6053 42.0503C30.5372 42.1446 30.4937 42.0503 30.4389 42.0503C29.7483 41.9727 29.0532 41.9419 28.3585 41.9578C27.9211 41.9592 27.4861 42.0227 27.0666 42.1466C26.8946 42.2069 26.747 42.1729 26.7773 41.9296C26.7819 41.8699 26.7819 41.8099 26.7773 41.7503C26.7546 41.3087 26.9078 40.9106 26.9664 40.4973C26.9867 40.4237 27.0241 40.3559 27.0758 40.2994C27.1274 40.243 27.1917 40.1996 27.2633 40.1728C27.8417 39.8895 28.3441 39.473 28.7291 38.9576ZM29.1074 31.6778C29.6748 31.9779 30.0644 32.4175 29.915 33.1119C29.8375 33.4704 29.5594 33.6893 29.2662 33.8666C28.6261 34.2084 27.9119 34.3885 27.1858 34.3912C26.5407 34.4274 25.8937 34.3638 25.268 34.2026C25.1399 34.1815 25.0135 34.1512 24.8897 34.1119C24.7555 34.0534 24.6836 33.9629 24.8274 33.8138C24.9445 33.6588 25.0335 33.4844 25.0903 33.2987C25.2693 32.8972 25.4025 32.4769 25.4874 32.0457C25.5498 31.7099 25.8449 31.6684 26.0832 31.5854C26.5497 31.4404 27.0358 31.3679 27.5244 31.3703C28.122 31.3835 28.6383 31.4344 29.1036 31.6778H29.1074ZM23.2632 30.3438C23.4524 30.1645 23.6415 29.9456 23.8306 29.7645C24.1597 29.4682 24.4869 29.1682 24.8274 28.8833C25.094 28.6587 25.355 28.4247 25.6312 28.2115C26.0742 27.8434 26.5482 27.5139 27.0477 27.2265C27.3461 27.0382 27.663 26.8808 27.9934 26.7566C28.0528 26.7298 28.1173 26.7156 28.1825 26.7151C28.2101 26.7239 28.2362 26.7366 28.2601 26.7529C28.2452 26.7753 28.228 26.7962 28.209 26.8151C28.0463 26.9699 27.8818 27.1189 27.721 27.2737C27.3865 27.6 27.0826 27.9562 26.8132 28.3379C26.07 29.4337 25.4724 30.6211 25.0354 31.8702C24.8398 32.4472 24.5586 32.9917 24.2013 33.4855C23.6949 34.1817 23.077 34.7898 22.3724 35.2856C21.6591 35.7762 20.8927 36.1852 20.0877 36.5046C19.4598 36.7537 18.8016 36.8575 18.1547 37.0197C18.0753 37.0298 17.9944 37.0175 17.9216 36.9841C17.8488 36.9508 17.7867 36.8978 17.7425 36.831C17.6592 36.6839 17.7274 36.5386 17.8409 36.4027C18.3269 35.814 18.7865 35.2007 19.2839 34.6233C19.5581 34.3044 19.8097 33.9648 20.1104 33.6648C20.3658 33.4082 20.5776 33.0987 20.8215 32.8401C20.9785 32.6684 21.1601 32.5194 21.3303 32.3571C21.4722 32.2232 21.5516 32.0457 21.6935 31.9061C22.2135 31.3929 22.7091 30.8457 23.2632 30.3438ZM12.4411 30.7098C12.62 30.5379 12.8535 30.4338 13.1012 30.4154C13.1522 30.4154 13.2052 30.4003 13.2411 30.4513C13.2771 30.5023 13.2147 30.5381 13.1882 30.5759C12.7968 31.1216 12.4351 31.6878 12.1045 32.2722C12.0572 32.3608 11.9683 32.4137 11.9154 32.5062C11.8624 32.5986 11.7867 32.5326 11.7432 32.4609C11.6792 32.3532 11.647 32.2295 11.6505 32.1042C11.7209 31.5563 12.0007 31.0567 12.4316 30.7098H12.4411ZM13.8066 37.8575C13.4442 37.7443 13.0887 37.6101 12.7418 37.4556C12.1993 37.1738 11.7911 36.6885 11.607 36.1065C11.3593 35.3724 11.7299 34.7667 11.9607 34.1365C12.131 33.6944 12.334 33.2655 12.5678 32.8534C12.821 32.3918 13.1094 31.9501 13.4302 31.5325C13.6364 31.2646 13.8312 30.9872 14.0525 30.7344C14.3636 30.3509 14.7004 29.9891 15.0606 29.6512C15.2629 29.4757 15.454 29.2625 15.6545 29.0851C15.8989 28.8466 16.2153 28.6955 16.5548 28.6549C16.8441 28.6304 17.1221 28.5247 17.421 28.5682C17.8965 28.6097 18.3685 28.6842 18.8338 28.7908C19.2499 28.9097 19.6716 29.0135 20.0745 29.1682C20.4773 29.3229 20.8556 29.455 21.2338 29.6418C21.5762 29.8117 21.9488 29.921 22.2835 30.1173C22.4386 30.206 22.431 30.2947 22.3403 30.4098C22.1324 30.6836 21.9102 30.9463 21.6745 31.1967C21.1582 31.7401 20.674 32.3137 20.2107 32.9062C19.7038 33.5535 19.1837 34.1912 18.6768 34.8403C18.4101 35.1799 18.1831 35.5498 17.8994 35.8725C17.7103 36.0895 17.6063 36.3782 17.3321 36.5329C17.1117 36.6331 16.8704 36.679 16.6285 36.6669C16.1906 36.6685 15.759 36.7705 15.367 36.965C15.1778 37.0839 15.0511 37.2858 14.8204 37.3556C14.7031 37.3915 14.6501 37.5236 14.584 37.6217C14.5017 37.7445 14.3793 37.8351 14.2375 37.8781C14.0958 37.9211 13.9436 37.9139 13.8066 37.8575ZM19.5979 40.2559C19.062 40.0083 18.6003 39.6252 18.2588 39.1444C18.0925 38.9043 17.8638 38.7138 17.5973 38.5934C17.3307 38.4731 17.0364 38.4274 16.7457 38.4613C16.7245 38.4577 16.7027 38.4577 16.6815 38.4613C16.5658 38.498 16.4612 38.5629 16.377 38.6501C16.4714 38.6796 16.5721 38.6828 16.6682 38.6595C17.2148 38.6406 17.5401 38.9689 17.803 39.3841C17.8616 39.4765 17.8522 39.5483 17.7274 39.603C17.1337 39.8642 16.4791 39.957 15.836 39.8709C15.5624 39.8318 15.3072 39.7105 15.1045 39.523C14.9018 39.3356 14.7611 39.091 14.7012 38.8218C14.6123 38.4142 14.9225 37.8311 15.3764 37.5783C16.0868 37.1889 16.9142 37.0683 17.7065 37.2386C18.0793 37.3196 18.4393 37.4504 18.777 37.6273C18.8357 37.6556 18.9037 37.7104 18.9529 37.6576C19.0021 37.6047 18.9113 37.5745 18.8886 37.5329C18.8073 37.3707 18.9415 37.3745 19.0361 37.3556C19.4144 37.2783 19.7927 37.2669 20.1709 37.167C20.9394 36.9768 21.679 36.6855 22.3705 36.3008C23.2178 35.831 23.8666 35.1403 24.4737 34.4139C24.5399 34.3346 24.5815 34.3101 24.6628 34.3422C25.3115 34.5837 26.0075 34.6082 26.6733 34.7667C26.7587 34.7868 26.8465 34.7957 26.9342 34.7931C27.0894 34.7904 27.2429 34.8244 27.3823 34.8923C27.5217 34.9602 27.643 35.06 27.7362 35.1838C28.2241 35.7498 28.54 36.3914 28.4814 37.1707C28.4351 37.6985 28.2001 38.1921 27.8194 38.5614C27.2182 39.1472 26.504 39.6049 25.72 39.9068C24.9462 40.2351 24.1322 40.4597 23.2992 40.5747C22.8434 40.637 22.3914 40.7823 22.0679 40.7295C21.2222 40.7327 20.384 40.5718 19.5997 40.2559H19.5979ZM23.8571 41.3559C23.3124 41.5144 22.7752 41.7182 22.1549 41.7333C21.841 41.8163 21.6462 41.5333 21.3984 41.371C21.336 41.3295 21.1922 41.3219 21.2263 41.2144C21.2604 41.1069 21.3813 41.1578 21.4589 41.1748C22.2251 41.3072 23.0079 41.3122 23.7758 41.1899C23.9138 41.1729 24.1389 41.0879 24.173 41.2125C24.207 41.3371 23.9706 41.3295 23.859 41.3559H23.8571ZM24.7328 57.5968C24.2266 57.3897 23.7387 57.1404 23.2745 56.8515C23.0463 56.7264 22.7899 56.6615 22.5294 56.6628C22.0698 56.6534 21.8504 56.4194 21.7615 56.0061V55.9854C21.5932 55.4193 21.5932 55.4193 22.2741 55.0778C22.6863 54.8664 22.6883 54.8645 23.006 55.2023C23.587 55.8241 24.1248 56.4848 24.6155 57.1798C24.7006 57.3006 24.7952 57.4156 24.8841 57.5289C24.8501 57.6025 24.8255 57.6346 24.7346 57.5968H24.7328ZM39.8766 51.6869C40.0657 51.8964 39.8595 52.0775 39.7915 52.2417C39.4851 52.9964 39.1541 53.7343 38.8212 54.4739C38.547 55.0796 38.2538 55.6815 37.9777 56.2835C37.8944 56.4609 37.7507 56.4722 37.6278 56.3307C37.1578 55.726 36.6526 55.1496 36.1147 54.6042C35.6004 54.1099 35.0613 53.6419 34.4995 53.2022C34.11 52.904 33.7165 52.6096 33.3042 52.3473C32.8919 52.085 32.5193 51.836 32.1108 51.6039C31.6455 51.336 31.1765 51.0775 30.7056 50.8246C29.9292 50.4111 29.1268 50.0481 28.3036 49.7377C28.245 49.715 28.158 49.6264 28.1145 49.7094C28.071 49.7924 28.1825 49.8547 28.2507 49.8887C28.8294 50.1849 29.3968 50.5019 29.9528 50.8491C30.028 50.8914 30.0864 50.958 30.1185 51.038C30.1504 51.118 30.1541 51.2065 30.1287 51.2888C29.9416 52.2532 29.6558 53.196 29.2757 54.1022C29.2076 54.2758 29.1377 54.4494 29.0677 54.623C29.0166 54.7495 28.9618 54.791 28.8351 54.7834C28.1688 54.7679 27.5056 54.8768 26.8794 55.1042C26.2938 55.2974 25.7437 55.5849 25.251 55.9552C25.1205 56.0533 24.9995 56.0873 24.8897 55.9137C24.4322 55.2353 23.8829 54.6232 23.2576 54.0947C23.0454 53.8926 22.8212 53.7036 22.5861 53.5286C22.2816 53.3097 21.9677 53.1059 21.6745 52.8719C21.4854 52.7229 21.4854 52.6738 21.6972 52.5663C22.1073 52.3755 22.5442 52.2482 22.9928 52.1888C23.4012 52.0871 23.8226 52.0471 24.2429 52.07H24.6799C25.0486 52.07 25.0714 52.07 25.111 51.6926C25.1697 51.1265 25.2794 50.5604 25.3834 49.9943C25.4042 49.883 25.3834 49.7189 25.5252 49.6905C25.6671 49.6622 25.739 49.8207 25.8052 49.9188C25.9792 50.1736 26.2572 50.2963 26.4879 50.4849C26.5225 50.5053 26.5632 50.5127 26.6027 50.5058C26.6422 50.4989 26.678 50.4781 26.7035 50.4472C26.7489 50.3868 26.66 50.3548 26.6222 50.3151C26.0094 49.6547 25.4383 48.9603 24.8859 48.2395C24.2692 47.4158 23.7009 46.557 23.1838 45.6676C23.1327 45.5846 23.0249 45.4695 23.0873 45.377C23.1498 45.2845 23.267 45.3958 23.3597 45.4072C23.5488 45.4261 23.6888 45.5959 23.8817 45.5959C23.9176 45.5959 23.9611 45.6279 23.98 45.5959C23.9989 45.5638 23.946 45.5317 23.9157 45.5072C23.6188 45.2562 23.2481 45.1298 22.9228 44.926C22.3138 44.5486 21.6877 44.1826 21.1071 43.7599C20.6671 43.4267 20.2644 43.0472 19.9061 42.6277C19.8437 42.5579 19.7567 42.4636 19.8116 42.356C19.8665 42.2484 19.9705 42.3107 20.0499 42.3164C20.8594 42.3598 21.6594 42.2201 22.4537 42.1145C23.5739 41.9758 24.6617 41.6451 25.669 41.1371C25.8411 41.0484 25.9054 41.0936 25.9149 41.2767C25.9319 41.6748 25.8808 42.0748 25.9622 42.4711C25.9849 42.5844 25.8771 42.6598 25.7881 42.724C25.6115 42.8363 25.4648 42.9897 25.3607 43.1711C25.3491 43.2021 25.3421 43.2345 25.3399 43.2674C25.3738 43.2706 25.4079 43.2668 25.4401 43.2561C26.3991 42.7296 27.4392 42.5994 28.5135 42.5711C29.3116 42.5674 30.1085 42.6344 30.8947 42.7712C31.7761 42.9077 32.6469 43.105 33.5009 43.3618C33.9473 43.4938 34.3936 43.6334 34.8381 43.7731C34.8901 43.7823 34.9395 43.8025 34.9829 43.8325C35.0264 43.8625 35.0628 43.9016 35.0897 43.9468C35.1166 43.9922 35.1335 44.0428 35.139 44.0952C35.1445 44.1476 35.1387 44.2005 35.1218 44.2505C35.0575 44.5807 34.9988 44.9128 34.9326 45.2449C34.7931 45.9045 34.5779 46.5459 34.2915 47.1564C34.0853 47.6149 33.8773 48.0716 33.6485 48.5187C33.5425 48.7263 33.448 48.6886 33.3326 48.5584C32.9978 48.1943 32.6048 47.8882 32.1695 47.6526C31.6036 47.3339 31.0113 47.0643 30.3992 46.8469C29.8317 46.6431 29.2644 46.4695 28.6875 46.3148C28.0292 46.1331 27.3836 45.9087 26.7546 45.6431C26.2594 45.4452 25.7811 45.2073 25.3248 44.9317C25.2113 44.8581 25.1016 44.7769 24.9881 44.6996C24.9579 44.6788 24.9352 44.6128 24.8879 44.6637C24.8406 44.7147 24.8973 44.7411 24.9257 44.7713C25.2293 45.0827 25.5812 45.3432 25.9678 45.5431C26.7697 45.9814 27.6082 46.3495 28.4738 46.6431C28.9392 46.7866 29.3921 46.9677 29.828 47.1847C30.5785 47.5657 31.2888 48.0208 31.9482 48.5433C32.4688 48.9589 32.9207 49.4537 33.2872 50.0095C33.3723 50.1453 33.4499 50.1755 33.5407 49.9906C33.7563 49.5547 33.9945 49.1301 34.2234 48.6999C34.3066 48.5452 34.5563 48.532 34.7908 48.6792C34.9459 48.7792 34.8835 48.8923 34.804 49.0093C34.6755 49.1981 34.5506 49.3867 34.439 49.5943C34.4012 49.6622 34.3388 49.7452 34.4069 49.8358C34.4749 49.9264 34.5752 49.8773 34.6433 49.8717C35.0726 49.8377 35.4981 49.7735 35.9256 49.732C36.1057 49.7145 36.2844 49.6855 36.4609 49.6452C36.8391 49.5604 37.1285 49.7943 37.433 49.9528C38.181 50.3696 38.8944 50.8453 39.5664 51.3756C39.6812 51.468 39.7858 51.5724 39.8784 51.6869H39.8766ZM43.6006 46.8998C43.6387 46.9657 43.6588 47.0406 43.6588 47.1167C43.6588 47.1929 43.6387 47.2678 43.6006 47.3337C43.4681 47.5602 43.3774 47.8187 43.1372 47.9659C43.0751 48.0137 42.9981 48.0384 42.9197 48.0357C42.6889 48.0206 42.4563 48.0357 42.2256 48.0357C42.0364 48.0357 41.9778 48.1414 42.0478 48.3017C42.1367 48.5112 42.252 48.7244 42.1216 48.9415C41.9415 49.1998 41.6979 49.4077 41.4142 49.5452C41.3234 49.6 41.174 49.5547 41.0208 49.5547C40.7503 49.6019 40.4648 49.5037 40.1773 49.4566C40.0297 49.4339 39.9882 49.4679 39.9995 49.5962C39.9995 49.7981 40.0789 50.0226 39.7953 50.1226C39.5991 50.1906 39.3853 50.1867 39.1919 50.1113C38.5841 49.8979 38.0456 49.5243 37.6335 49.0301C37.5484 48.9339 37.4595 48.9603 37.3573 48.9924C36.7464 49.1905 36.109 49.2113 35.4792 49.2679C35.4036 49.2679 35.2995 49.3113 35.2485 49.2056C35.1974 49.0999 35.3128 49.0584 35.3639 49.0056C35.8713 48.5052 36.2976 47.9291 36.6273 47.2979C37.0326 46.532 37.2491 45.6807 37.2589 44.8147C37.2589 44.3713 37.2987 44.3486 37.6826 44.5864C38.0666 44.8241 38.4788 45.1053 38.8779 45.3657C38.9233 45.3958 38.963 45.4638 39.0236 45.411C39.0841 45.3581 39.0425 45.311 39.0236 45.2695C38.8628 45.0015 39.0236 44.8487 39.2127 44.6883C39.7761 44.1953 40.3045 43.6638 40.7939 43.0976C40.8558 43.0042 40.9372 42.9254 41.0325 42.8665C41.1278 42.8076 41.2348 42.7698 41.3461 42.756C41.4085 42.7451 41.4726 42.7487 41.5334 42.7663C41.5943 42.784 41.6502 42.8154 41.697 42.8581C41.7437 42.9007 41.7801 42.9535 41.8032 43.0123C41.8263 43.0712 41.8356 43.1346 41.8303 43.1976C41.8033 43.6504 41.6522 44.087 41.3934 44.4599C41.2624 44.6647 41.154 44.8829 41.0699 45.1109C40.9811 45.3487 41.0851 45.4695 41.2723 45.56C41.9022 45.8732 42.5414 46.1733 43.1637 46.5035C43.3497 46.5837 43.504 46.723 43.6024 46.8998H43.6006Z" fill="black"/>
<path d="M48.2377 1.46781C48.3414 1.44798 48.4487 1.46096 48.5447 1.50494C48.6406 1.54892 48.7204 1.6217 48.7729 1.71312C49.2779 2.38111 49.8093 3.034 50.3068 3.70577C50.8912 4.4983 51.4416 5.31536 51.9711 6.13808C52.3002 6.64379 52.6123 7.16081 52.9168 7.68164C53.6584 7.87441 54.3481 8.22812 54.9367 8.7176C54.6398 8.15149 54.3409 7.58539 54.0156 7.03817C53.592 6.32112 53.1545 5.61098 52.7031 4.90778C52.1489 4.04543 51.5683 3.20949 50.9517 2.38866C50.5146 1.78457 50.0429 1.20619 49.5389 0.656413C49.3933 0.5141 49.2604 0.359413 49.1417 0.194104C48.9734 -0.064412 48.7502 -0.0172376 48.5309 0.0657894C48.0977 0.22807 47.6438 0.322418 47.2069 0.465828C46.6792 0.637543 46.1478 0.801709 45.6182 0.97154C45.2267 1.09608 44.8371 1.22062 44.4493 1.34893C43.8946 1.53386 43.3423 1.72256 42.7926 1.91503C42.3084 2.08485 41.8261 2.25846 41.3457 2.43961C40.5892 2.72831 39.8326 3.02269 39.0761 3.31516C38.4028 3.59066 37.7314 3.82842 37.0694 4.09826C36.2542 4.43037 35.4448 4.77946 34.6372 5.13044C33.8296 5.48141 32.9993 5.84937 32.1785 6.21922C31.3577 6.58907 30.5709 6.95891 29.7747 7.35138C29.0824 7.68476 28.3965 8.03072 27.7169 8.38927C26.9603 8.77987 26.2303 9.18746 25.4908 9.59128C24.7513 9.99503 23.9777 10.4178 23.2212 10.8461C22.7427 11.1216 20.5734 12.2915 20.0892 12.567C20.3578 12.6538 21.0652 12.6406 21.3412 12.7557C21.478 12.8036 21.6037 12.8783 21.7109 12.9755C21.8181 13.0728 21.9047 13.1906 21.9654 13.3218C22.1545 13.2142 23.7357 12.2122 23.9248 12.1537L24.4657 11.8292C25.0331 11.4782 25.6289 11.1461 26.2114 10.814C26.7939 10.4819 27.4067 10.1611 28.0062 9.84035C28.5396 9.55538 29.0541 9.23835 29.5987 8.97989C30.1056 8.73835 30.6011 8.47606 31.1118 8.22506C31.6603 7.959 32.1956 7.65896 32.7459 7.40989C33.1922 7.20048 33.6424 6.99665 34.0906 6.79097C34.3837 6.65511 34.6788 6.50415 34.9739 6.37773C35.2689 6.2513 35.5507 6.08525 35.8552 5.97203C36.2657 5.8173 36.661 5.6286 37.0619 5.45688C37.5536 5.24554 38.0397 5.01533 38.539 4.82852C39.0383 4.64171 39.5395 4.41339 40.0407 4.20959C40.2734 4.11335 40.5154 4.03221 40.7556 3.94919C41.1339 3.81898 41.4933 3.65294 41.8677 3.52839C42.2781 3.39253 42.6829 3.24535 43.0876 3.09628C43.4924 2.9472 43.8952 2.78492 44.3037 2.66038C44.7123 2.53584 45.0603 2.35092 45.4801 2.31695C45.6334 2.28844 45.7818 2.23824 45.9208 2.16788C46.4542 1.95843 47.0102 1.832 47.5549 1.66783C47.7875 1.60179 48.0069 1.51499 48.2377 1.46781Z" fill="black"/>
<path d="M10.7976 28.5722C10.0734 27.9982 9.21622 27.6151 8.30486 27.4583C8.03042 27.3841 7.7405 27.3893 7.46891 27.4735C7.09064 27.6207 6.90151 27.7982 6.89016 28.1077C6.88874 28.2851 6.94259 28.4585 7.04425 28.6039C7.14589 28.7493 7.29035 28.8596 7.45757 28.9195C8.06088 29.1574 8.88927 28.9837 9.52291 28.9195C9.65902 28.9063 10.3664 28.7629 9.90115 28.6892C9.40563 28.5924 8.9024 28.5406 8.39753 28.5344C8.30636 28.5439 8.21448 28.5439 8.12331 28.5344C8.04048 28.5167 7.96037 28.4881 7.88503 28.4495C7.7375 28.3796 7.57485 28.2493 7.61073 28.0889C7.72994 27.5584 9.03873 27.9907 9.33186 28.0889C9.80912 28.2498 10.2565 28.4884 10.6558 28.7949C10.7409 28.8629 10.8582 29.0215 10.9603 28.8818C11.0624 28.7421 10.8846 28.6383 10.7976 28.5722Z" fill="#000B0D"/>
<path d="M24.2433 52.0616H24.6802C25.049 52.0616 25.0717 52.0616 25.1114 51.6843C25.1701 51.1182 25.2797 50.5521 25.3838 49.986C25.4046 49.8747 25.3838 49.7105 25.5256 49.6822C25.6675 49.6539 25.7394 49.8124 25.8056 49.9105C25.9796 50.1653 26.2576 50.2879 26.4883 50.4766C26.5229 50.497 26.5635 50.5044 26.6031 50.4975C26.6427 50.4905 26.6784 50.4698 26.7039 50.4389C26.7493 50.3785 26.6604 50.3464 26.6226 50.3068C26.0098 49.6464 25.4386 48.952 24.8864 48.2312C24.2696 47.4075 23.7012 46.5487 23.1842 45.6594C23.1331 45.5763 23.0253 45.4612 23.0877 45.3688C23.1501 45.2763 23.2674 45.3876 23.3601 45.3989C23.5492 45.4178 23.6891 45.5876 23.882 45.5876C23.918 45.5876 23.9615 45.6197 23.9804 45.5876C23.9993 45.5556 23.9464 45.5234 23.9161 45.4989C23.6192 45.248 23.2485 45.1216 22.9232 44.9178C22.3142 44.5404 21.6882 44.1743 21.1075 43.7517C20.6674 43.4185 20.2648 43.039 19.9065 42.6195C19.8441 42.5497 19.7571 42.4553 19.8119 42.3478C19.8668 42.2402 19.9708 42.3025 20.0503 42.3082C20.8598 42.3515 21.6598 42.2119 22.4541 42.1063C23.5743 41.9676 24.662 41.6369 25.6694 41.1288C25.8414 41.0402 25.9058 41.0855 25.9152 41.2685C25.9323 41.6666 25.8812 42.0667 25.9625 42.4629C25.9852 42.5761 25.8774 42.6516 25.7885 42.7158C25.6119 42.8281 25.4651 42.9815 25.361 43.1629C25.3495 43.1939 25.3424 43.2263 25.3403 43.2592C25.3747 43.2623 25.4095 43.2585 25.4424 43.2479C26.3994 42.7214 27.4397 42.5912 28.5139 42.5629C29.3119 42.5592 30.1088 42.6262 30.895 42.7629C31.7764 42.8995 32.6473 43.0968 33.5013 43.3535C33.9476 43.4856 34.394 43.6252 34.8384 43.7648C34.8905 43.7741 34.9399 43.7943 34.9833 43.8243C35.0267 43.8543 35.0632 43.8933 35.0901 43.9386C35.117 43.984 35.1338 44.0345 35.1394 44.087C35.1449 44.1394 35.139 44.1923 35.1222 44.2423C35.0578 44.5725 34.9992 44.9045 34.933 45.2366C34.7936 45.8965 34.5778 46.538 34.29 47.1481C34.0857 47.6066 33.8777 48.0632 33.6488 48.5105C33.5429 48.718 33.4483 48.6803 33.333 48.55C32.9982 48.186 32.6051 47.88 32.1698 47.6443C31.604 47.3256 31.0117 47.0561 30.3995 46.8386C29.8322 46.6349 29.2647 46.4613 28.6879 46.3065C28.0296 46.1248 27.3839 45.9005 26.7549 45.6348C26.2597 45.4369 25.7815 45.199 25.3252 44.9235C25.2117 44.8498 25.1019 44.7687 24.9885 44.6914C24.9582 44.6706 24.9355 44.6045 24.8882 44.6555C24.841 44.7064 24.8977 44.7329 24.9261 44.763C25.2297 45.0744 25.5816 45.3349 25.9682 45.5348C26.7699 45.9735 27.6084 46.3416 28.4742 46.6349C28.9396 46.7783 29.3925 46.9594 29.8284 47.1764C30.5789 47.5574 31.2891 48.0125 31.9485 48.535C32.4698 48.9529 32.9217 49.4502 33.2876 50.0087C33.3727 50.1445 33.4503 50.1747 33.541 49.9898C33.7566 49.5539 33.9949 49.1294 34.2238 48.6992C34.307 48.5444 34.5567 48.5312 34.7912 48.6784C34.9462 48.7784 34.8838 48.8916 34.8044 49.0086C34.6758 49.1973 34.551 49.386 34.4394 49.5935C34.4016 49.6615 34.3391 49.7445 34.4072 49.835C34.4753 49.9256 34.5756 49.8766 34.6436 49.8709C35.073 49.837 35.4985 49.7728 35.9259 49.7313C36.1061 49.7137 36.2848 49.6847 36.4612 49.6445C36.8394 49.5596 37.1289 49.7935 37.4333 49.952C38.1814 50.3688 38.8948 50.8445 39.5667 51.3748C39.6836 51.4675 39.7902 51.5725 39.8845 51.688C40.0736 51.8974 39.8675 52.0786 39.7994 52.2427C39.493 52.9976 39.162 53.7353 38.8292 54.475C38.5549 55.0807 38.2617 55.6826 37.9856 56.2845C37.9024 56.4619 37.7586 56.4732 37.6357 56.3317C37.1657 55.7271 36.6605 55.1506 36.1227 54.6052C35.6084 54.1109 35.0693 53.643 34.5075 53.2032C34.1179 52.9051 33.7245 52.6107 33.3121 52.3484C32.8999 52.0862 32.5273 51.8371 32.1187 51.605C31.6535 51.337 31.1845 51.0785 30.7135 50.8257C29.9371 50.4122 29.1348 50.0492 28.3116 49.7388C28.2529 49.7162 28.1659 49.6275 28.1224 49.7105C28.0789 49.7935 28.1905 49.8558 28.2586 49.8898C28.8373 50.186 29.4047 50.5031 29.9608 50.8502C30.036 50.8925 30.0944 50.9591 30.1264 51.0391C30.1584 51.1191 30.162 51.2075 30.1366 51.2898C29.9496 52.2543 29.6637 53.1971 29.2836 54.1033C29.2156 54.2769 29.1456 54.4504 29.0756 54.624C29.0245 54.7505 28.9697 54.792 28.843 54.7844C28.1744 54.7675 27.5085 54.8756 26.8798 55.1033C26.2942 55.2965 25.7441 55.584 25.2514 55.9543C25.1208 56.0524 24.9999 56.0864 24.8901 55.9128C24.4325 55.2345 23.8833 54.6224 23.2579 54.0938C23.0457 53.8918 22.8215 53.7028 22.5865 53.5277C22.282 53.3089 21.9681 53.1051 21.6749 52.8711C21.4858 52.722 21.4858 52.673 21.6976 52.5655C22.1077 52.3747 22.5446 52.2474 22.9932 52.188C23.4012 52.0837 23.8226 52.0412 24.2433 52.0616Z" fill="#DD052C"/>
<path d="M16.7531 36.7574C16.3036 36.7582 15.8604 36.8622 15.4576 37.0612C15.4576 37.0612 15.4576 37.0499 15.4443 37.0442H15.4557H15.4746C15.2685 37.1631 15.1379 37.3839 14.894 37.4575C14.773 37.4953 14.72 37.6311 14.65 37.733C14.5669 37.8556 14.4447 37.9466 14.3033 37.9915C14.162 38.0364 14.0096 38.0324 13.8707 37.9802C13.4985 37.8633 13.1329 37.7259 12.7757 37.5688C12.4987 37.4258 12.2528 37.2297 12.0519 36.9917C11.851 36.7537 11.6992 36.4785 11.605 36.1819C11.3496 35.427 11.7298 34.8043 11.9662 34.1571C12.1425 33.7025 12.3511 33.261 12.5903 32.8362C12.8515 32.3623 13.1481 31.9088 13.4774 31.4793C13.6873 31.2038 13.8897 30.9132 14.1166 30.6584C14.4367 30.2651 14.783 29.8938 15.1531 29.547C15.3592 29.3583 15.5559 29.1469 15.764 28.9582C16.0146 28.7138 16.339 28.5586 16.6869 28.5166C16.9839 28.4903 17.2733 28.3827 17.5777 28.428C18.0666 28.4715 18.5518 28.5478 19.0303 28.6563C19.4558 28.7789 19.8908 28.8846 20.3032 29.0337C20.7154 29.1828 21.107 29.33 21.4965 29.5224C21.8465 29.6961 22.2285 29.8093 22.5746 30.0093C22.7335 30.1018 22.7259 30.198 22.6333 30.3113C22.419 30.592 22.1905 30.8615 21.9486 31.1189C21.4171 31.685 20.9197 32.2681 20.4355 32.8757C19.9135 33.5419 19.3783 34.1967 18.8582 34.8628C18.5858 35.2119 18.3532 35.5931 18.0601 35.9253C17.8709 36.1479 17.7593 36.4442 17.4662 36.6027C17.2443 36.7105 16.9998 36.7635 16.7531 36.7574Z" fill="white"/>
<path d="M22.0773 40.746C21.2273 40.7451 20.3857 40.5785 19.5997 40.2554C19.0638 40.0079 18.6021 39.6248 18.2606 39.144C18.0944 38.9039 17.8657 38.7134 17.5991 38.593C17.3326 38.4727 17.0382 38.4271 16.7476 38.461C16.7263 38.4573 16.7046 38.4573 16.6833 38.461C16.5677 38.4976 16.463 38.5625 16.3788 38.6497C16.4732 38.6791 16.5739 38.6824 16.6701 38.6591C17.2167 38.6402 17.542 38.9685 17.8048 39.3837C17.8635 39.4761 17.854 39.5479 17.7292 39.6025C17.1355 39.8638 16.481 39.9566 15.8379 39.8705C15.5641 39.8319 15.3086 39.7107 15.1058 39.5232C14.903 39.3357 14.7624 39.0908 14.7031 38.8213C14.6142 38.4138 14.9244 37.8307 15.3783 37.5778C16.0887 37.1885 16.916 37.0679 17.7084 37.2382C18.0811 37.3192 18.4412 37.45 18.7789 37.627C18.8375 37.6552 18.9056 37.71 18.9548 37.6571C19.004 37.6043 18.9132 37.5741 18.8905 37.5326C18.8092 37.3703 18.9434 37.374 19.038 37.3552C19.4163 37.2779 19.7945 37.2665 20.1728 37.1665C20.9412 36.9764 21.6809 36.6851 22.3724 36.3004C23.2197 35.8306 23.8684 35.14 24.4756 34.4135C24.5418 34.3343 24.5833 34.3097 24.6647 34.3418C25.3134 34.5833 26.0094 34.6078 26.6752 34.7664C26.7606 34.7864 26.8484 34.7953 26.9361 34.7927C27.0912 34.79 27.2448 34.824 27.3842 34.8919C27.5235 34.9598 27.6449 35.0596 27.738 35.1833C28.226 35.7494 28.5419 36.391 28.4832 37.1703C28.437 37.6981 28.202 38.1917 27.8213 38.561C27.2201 39.1467 26.5059 39.6045 25.7219 39.9063C24.9481 40.2347 24.1341 40.4593 23.301 40.5743C22.8528 40.6536 22.4007 40.7989 22.0773 40.746Z" fill="#CEB48D"/>
<path d="M41.015 49.5499C40.7446 49.597 40.459 49.4989 40.1715 49.4517C40.024 49.4291 39.9824 49.4631 39.9937 49.5914C39.9937 49.7933 40.0732 50.0178 39.7895 50.1178C39.5934 50.1858 39.3795 50.1817 39.1862 50.1065C38.5783 49.893 38.0398 49.5195 37.6277 49.0254C37.5426 48.9291 37.4537 48.9556 37.3515 48.9876C36.7407 49.1857 36.1032 49.2065 35.4735 49.2631C35.3978 49.2631 35.2937 49.3065 35.2427 49.2008C35.1917 49.0952 35.307 49.0537 35.3581 49.0008C35.8655 48.5006 36.2918 47.9245 36.6215 47.2934C37.0282 46.5291 37.2467 45.6793 37.2589 44.8141C37.2589 44.3708 37.2986 44.3481 37.6825 44.5858C38.0665 44.8236 38.4788 45.1047 38.8778 45.365C38.9232 45.3952 38.9629 45.4632 39.0235 45.4104C39.084 45.3575 39.0424 45.3104 39.0235 45.2689C38.8627 45.0009 39.0235 44.8481 39.2126 44.6877C39.7761 44.1949 40.3044 43.6634 40.7937 43.0972C40.8556 43.0039 40.937 42.9251 41.0324 42.8661C41.1277 42.8072 41.2347 42.7695 41.346 42.7557C41.4084 42.7448 41.4725 42.7484 41.5334 42.766C41.5941 42.7837 41.6501 42.8151 41.6969 42.8577C41.7437 42.9004 41.78 42.9531 41.8031 43.012C41.8262 43.0708 41.8355 43.1342 41.8302 43.1972C41.803 43.6496 41.6526 44.086 41.3952 44.4594C41.2628 44.6637 41.1538 44.882 41.0699 45.1104C40.981 45.3481 41.085 45.4689 41.2723 45.5594C41.902 45.8726 42.5413 46.1726 43.1636 46.5028C43.3523 46.5829 43.5087 46.7237 43.608 46.9028C43.6462 46.9688 43.6663 47.0436 43.6663 47.1197C43.6663 47.1959 43.6462 47.2708 43.608 47.3367C43.4756 47.5632 43.3848 47.8217 43.1446 47.9688C43.0826 48.0166 43.0056 48.0413 42.9272 48.0386C42.6964 48.0235 42.4638 48.0386 42.233 48.0386C42.0439 48.0386 41.9853 48.1443 42.0553 48.3046C42.1442 48.5141 42.2614 48.7273 42.129 48.9442C41.9489 49.2026 41.7054 49.4104 41.4216 49.548C41.3176 49.5952 41.1682 49.5499 41.015 49.5499Z" fill="white"/>
<path d="M18.1565 37.0195C18.077 37.0296 17.9962 37.0173 17.9234 36.984C17.8505 36.9506 17.7884 36.8975 17.7442 36.8309C17.661 36.6837 17.729 36.5384 17.8425 36.4025C18.3286 35.8137 18.7882 35.2005 19.2856 34.6231C19.5599 34.3041 19.8114 33.9645 20.1121 33.6645C20.3674 33.4078 20.5792 33.0983 20.8232 32.8399C20.9802 32.6682 21.1618 32.5191 21.332 32.3568C21.4738 32.2247 21.5533 32.0455 21.6951 31.9058C22.2228 31.3888 22.7183 30.8415 23.263 30.3396C23.4522 30.1603 23.6413 29.9415 23.8304 29.7603C24.1595 29.4641 24.4867 29.164 24.8272 28.8791C25.0939 28.6545 25.3548 28.4206 25.631 28.2073C26.0741 27.8392 26.548 27.5096 27.0476 27.2223C27.346 27.034 27.6628 26.8766 27.9932 26.7524C28.0526 26.7255 28.1171 26.7114 28.1823 26.7109C28.21 26.7196 28.2361 26.7323 28.2599 26.7487C28.245 26.7711 28.2279 26.7919 28.2088 26.811C28.0462 26.9657 27.8816 27.1148 27.7208 27.2694C27.3863 27.5958 27.0824 27.952 26.8131 28.3337C26.0699 29.4296 25.4722 30.617 25.0352 31.8662C24.8396 32.4432 24.5585 32.9876 24.2011 33.4814C23.6947 34.1776 23.0768 34.7858 22.3722 35.2816C21.659 35.7723 20.8926 36.1812 20.0875 36.5006C19.4521 36.7535 18.7938 36.8572 18.1565 37.0195Z" fill="white"/>
<path d="M27.5222 31.3662C28.1218 31.3832 28.638 31.4342 29.1033 31.6775C29.6708 31.9775 30.0603 32.4171 29.9109 33.1114C29.8333 33.4698 29.5553 33.6887 29.2622 33.8661C28.6221 34.2078 27.9078 34.3878 27.1817 34.3905C26.5365 34.4267 25.8896 34.363 25.2639 34.2019C25.1359 34.1808 25.0095 34.1505 24.8857 34.1113C24.7514 34.0528 24.6795 33.9623 24.8233 33.8132C24.9404 33.6582 25.0294 33.4838 25.0862 33.2981C25.2652 32.8967 25.3985 32.4766 25.4834 32.0454C25.5458 31.7096 25.8427 31.6681 26.0791 31.5851C26.546 31.4387 27.0328 31.3649 27.5222 31.3662Z" fill="#CEB48D"/>
<path d="M29.2152 27.2284C29.1819 27.3674 29.1331 27.5022 29.0695 27.6303C29.0239 27.7758 28.9709 27.9188 28.9106 28.0587C28.5414 28.9213 28.0703 29.7367 27.5073 30.4877C27.3966 30.64 27.2301 30.7424 27.0439 30.7727C26.7319 30.818 26.4766 30.9898 26.1929 31.0917C26.1324 31.1124 26.0737 31.1634 26.017 31.1106C25.9602 31.0577 25.9848 30.9879 26.017 30.9218C26.191 30.5764 26.2931 30.2028 26.469 29.8574C26.7454 29.2617 27.0705 28.6898 27.4411 28.1475C27.7886 27.6568 28.217 27.2285 28.7083 26.8811C28.7595 26.8448 28.8182 26.8205 28.8801 26.81C28.942 26.7996 29.0055 26.8032 29.0657 26.8207C29.1963 26.8943 29.2228 27.066 29.2152 27.2284Z" fill="#DD052C"/>
<path d="M35.7454 47.4644C35.5204 47.4114 35.2859 47.3378 35.04 47.302C34.8886 47.2812 34.917 47.1132 34.9586 46.9905C35.1081 46.5713 35.3048 46.1692 35.4183 45.735C35.4542 45.5972 35.5639 45.584 35.6774 45.6123C35.9053 45.683 36.1379 45.7379 36.3734 45.7766C36.4717 45.786 36.5171 45.8464 36.4869 45.9653C36.3398 46.4466 36.1551 46.9156 35.9346 47.3681C35.9163 47.4011 35.8885 47.428 35.8548 47.4452C35.8211 47.4624 35.783 47.4691 35.7454 47.4644Z" fill="#CEB48D"/>
<path d="M11.6541 32.0686C11.7268 31.5074 12.0142 30.996 12.456 30.6414C12.6399 30.4641 12.8801 30.3566 13.135 30.3374C13.186 30.3374 13.2428 30.3224 13.2769 30.3752C13.3109 30.428 13.2504 30.464 13.2239 30.5017C12.8252 31.0618 12.4559 31.6421 12.1175 32.2404C12.0702 32.3329 11.9775 32.3858 11.9283 32.4802C11.8792 32.5745 11.7959 32.5085 11.7506 32.4349C11.6846 32.3243 11.6512 32.1973 11.6541 32.0686Z" fill="white"/>
<path d="M22.153 41.739C21.8391 41.822 21.6442 41.5389 21.3965 41.3766C21.334 41.335 21.1903 41.3275 21.2244 41.2199C21.2584 41.1123 21.3794 41.1633 21.457 41.1803C22.2231 41.3127 23.006 41.3178 23.7738 41.1954C23.912 41.1784 24.137 41.0935 24.1711 41.2181C24.2051 41.3426 23.9687 41.3237 23.8571 41.3558C23.3143 41.5181 22.7772 41.7182 22.153 41.739Z" fill="#CEB48D"/>
<path d="M11.6389 39.9273C11.6352 39.9147 11.6287 39.903 11.6198 39.8933C11.611 39.8835 11.6001 39.8758 11.5879 39.8707C11.5424 39.8556 11.4933 39.8556 11.4479 39.8707C10.3131 40.1481 9.19537 41.301 8.6507 42.2991C8.45402 42.601 8.34352 42.9507 8.33103 43.3105C8.28752 43.8483 8.87007 44.2125 9.42801 44.0653C9.85355 43.9577 10.0843 43.6502 10.2942 43.3011C10.408 43.0493 10.4992 42.7878 10.5666 42.5199L10.9448 41.5085C10.994 41.3727 11.0659 41.2519 11.1226 41.1198C11.1523 40.9841 11.1947 40.8514 11.2494 40.7236C11.2663 40.701 11.2285 40.6632 11.2001 40.6783C10.7217 40.9689 10.4304 41.5822 10.1826 42.0878C10.0597 42.3388 9.5642 43.4917 9.13488 43.2068C9.08858 43.1716 9.05156 43.1257 9.0268 43.0731C9.00212 43.0206 8.99056 42.9628 8.99299 42.9048C8.99299 42.3048 9.57554 41.6991 9.95192 41.2859C10.4332 40.7811 10.9872 40.3506 11.5954 40.0084C11.6101 40.0011 11.6229 39.9908 11.6332 39.9782C11.638 39.9708 11.641 39.9622 11.642 39.9534C11.643 39.9446 11.6419 39.9356 11.6389 39.9273Z" fill="#000B0D"/>
<path d="M71.603 31.4746L32.368 30.7857L32.5779 24.0805L73.2831 23.3916L71.603 31.4746Z" fill="white"/>
<path d="M71.9947 31.9604C65.3575 31.8346 58.7316 31.6856 52.117 31.5132L32.3642 30.9736H32.175V30.7849L32.3849 24.0806V23.8919H32.5646L73.2695 23.2031H73.495L73.4586 23.4352C73.2453 24.8146 73.0234 26.2222 72.7794 27.6488C72.5354 29.0753 72.2801 30.5169 71.9947 31.9604ZM71.2137 30.9868C71.4861 29.7377 71.7814 28.4885 72.0967 27.2129C72.4127 25.9373 72.7516 24.6599 73.0976 23.3466L73.2867 23.573L32.5798 24.2617L32.7689 24.073L32.5608 30.7754L32.3717 30.5867L51.8523 30.7358C58.3243 30.805 64.7782 30.8887 71.2137 30.9868Z" fill="black"/>
<path d="M39.3392 28.8357L39.2182 28.93C38.8645 29.2066 38.4268 29.3544 37.9775 29.349C37.7239 29.3501 37.4723 29.3034 37.2361 29.2112C37.0034 29.1201 36.7904 28.9856 36.6082 28.815C36.4213 28.6394 36.2714 28.4284 36.1675 28.1942C36.0666 27.9626 36.0144 27.7127 36.0144 27.4602C36.0144 27.2076 36.0666 26.9578 36.1675 26.7262C36.2721 26.494 36.4219 26.2849 36.6082 26.111C36.7881 25.9361 37.0017 25.7994 37.2361 25.7091C37.4723 25.617 37.7239 25.5702 37.9775 25.5714C38.4247 25.5667 38.8601 25.7138 39.2125 25.9884L39.3336 26.079L39.0366 26.9677L38.7983 26.7451C38.6888 26.6436 38.5603 26.5647 38.4201 26.513C38.2768 26.4595 38.1248 26.4327 37.9718 26.4337C37.8186 26.4322 37.6665 26.4597 37.5236 26.5148C37.3835 26.5686 37.2551 26.6487 37.1453 26.7507C37.0449 26.8397 36.9646 26.949 36.9099 27.0713C36.8551 27.1936 36.827 27.3262 36.8276 27.4602C36.8276 27.5903 36.8554 27.7189 36.9089 27.8375C36.9651 27.961 37.0455 28.072 37.1453 28.164C37.2553 28.2654 37.3837 28.3448 37.5236 28.3979C37.6664 28.4537 37.8185 28.4819 37.9718 28.481C38.1258 28.4815 38.2784 28.4534 38.422 28.3979C38.5621 28.3451 38.6905 28.2657 38.8003 28.164L39.0385 27.9413L39.3392 28.8357Z" fill="black"/>
<path d="M42.8627 26.5127C42.8343 26.5127 42.8192 26.5258 42.8192 26.5542V27.2582C42.8192 27.2903 42.8343 27.3054 42.8627 27.3054H44.5857V28.1472H42.8627C42.8343 28.1472 42.8192 28.1642 42.8192 28.1943V28.4699C42.8186 28.4757 42.8194 28.4817 42.8214 28.4872C42.8233 28.4927 42.8265 28.4978 42.8307 28.5019C42.8348 28.5061 42.8399 28.5092 42.8454 28.5112C42.851 28.5132 42.8569 28.5139 42.8627 28.5134H44.9943V29.3589H41.9681V25.6558H44.9943V26.5127H42.8627Z" fill="black"/>
<path d="M49.4637 25.6675C49.6803 25.6664 49.8948 25.7101 50.0936 25.7958C50.4807 25.9576 50.7894 26.2635 50.9541 26.6487C51.04 26.847 51.0838 27.0609 51.0827 27.277C51.0819 27.4765 51.042 27.6738 50.9654 27.8581C50.8892 28.0471 50.7797 28.2209 50.6421 28.3714C50.4937 28.5362 50.312 28.6678 50.1089 28.7573C49.9057 28.8467 49.6858 28.8921 49.4637 28.8903H48.5181V29.3657H47.6746V25.6675H49.4637ZM49.4637 28.043C49.5663 28.0439 49.668 28.024 49.7626 27.9846C49.8541 27.9473 49.9376 27.8929 50.0085 27.8242C50.0796 27.7545 50.1368 27.6718 50.1768 27.5808C50.2169 27.4858 50.2375 27.3838 50.2373 27.2808C50.2376 27.1783 50.217 27.0769 50.1768 26.9827C50.1368 26.8919 50.081 26.8089 50.0123 26.7374C49.9424 26.6664 49.8596 26.6094 49.7683 26.5694C49.6731 26.5293 49.5708 26.5089 49.4675 26.509H48.5824C48.5745 26.5081 48.5664 26.509 48.559 26.5116C48.5514 26.5143 48.5446 26.5185 48.539 26.5241C48.5333 26.5298 48.529 26.5366 48.5264 26.5441C48.5238 26.5516 48.5229 26.5596 48.5238 26.5675V27.9902C48.5238 28.0261 48.5446 28.043 48.5824 28.043H49.4637Z" fill="black"/>
<path d="M56.4806 27.4921C56.5713 27.5926 56.6425 27.7091 56.6905 27.8355C56.7381 27.9622 56.7624 28.0964 56.7624 28.2318C56.7631 28.3816 56.7328 28.53 56.6735 28.6676C56.5611 28.9385 56.3454 29.1536 56.074 29.2658C55.936 29.325 55.7872 29.3552 55.6371 29.3545H53.6493V25.6675H55.6371C55.7903 25.6666 55.9422 25.6969 56.0834 25.7562C56.2195 25.8139 56.3419 25.8994 56.4428 26.0071C56.5364 26.1108 56.6095 26.2312 56.6584 26.3619C56.7096 26.4988 56.7353 26.644 56.7341 26.7902C56.7371 27.0469 56.647 27.2962 56.4806 27.4921ZM54.4909 27.0355C54.4909 27.0676 54.5099 27.0845 54.5439 27.0845H55.6049C55.6409 27.0833 55.6761 27.0749 55.7086 27.0596C55.7412 27.0444 55.7702 27.0226 55.794 26.9958C55.8216 26.9689 55.8435 26.9366 55.8581 26.9009C55.8727 26.8651 55.8799 26.8269 55.8791 26.7883C55.8819 26.7506 55.8762 26.7127 55.8625 26.6775C55.8487 26.6422 55.8273 26.6104 55.7997 26.5845C55.7732 26.558 55.7416 26.537 55.7069 26.5227C55.6722 26.5085 55.6349 26.5013 55.5973 26.5015H54.5363C54.5023 26.5015 54.4834 26.5185 54.4834 26.5505L54.4909 27.0355ZM54.4909 28.4658C54.4909 28.4959 54.5099 28.5129 54.5439 28.5129H55.6314C55.669 28.5131 55.7062 28.5059 55.7409 28.4916C55.7757 28.4774 55.8072 28.4564 55.8338 28.4299C55.8614 28.4038 55.8833 28.3722 55.898 28.337C55.9127 28.3019 55.9198 28.2641 55.9189 28.2261C55.9163 28.1483 55.8846 28.0742 55.83 28.0185C55.8064 27.9914 55.7774 27.9695 55.7449 27.9542C55.7123 27.9389 55.6768 27.9306 55.6409 27.9299H54.5477C54.5136 27.9299 54.4947 27.9469 54.4947 27.9789L54.4909 28.4658Z" fill="black"/>
<path d="M60.3139 25.6558V27.5927C60.3139 27.5927 60.3139 27.604 60.3139 27.606C60.3139 27.6078 60.3139 27.606 60.3252 27.606L61.6396 25.6633H62.4132V29.373H61.5659V27.3171C61.5659 27.3171 61.5659 27.3058 61.5659 27.3039C61.5659 27.302 61.5659 27.3039 61.5545 27.3039L60.2306 29.358H59.4741V25.6558H60.3139Z" fill="black"/>
<path d="M68.3751 28.8357L68.2541 28.93C67.9004 29.2066 67.4627 29.3544 67.0134 29.349C66.7598 29.3501 66.5082 29.3034 66.272 29.2112C66.0393 29.1201 65.8262 28.9856 65.644 28.815C65.4571 28.6394 65.3073 28.4284 65.2034 28.1942C65.1024 27.9626 65.0503 27.7127 65.0503 27.4602C65.0503 27.2076 65.1024 26.9578 65.2034 26.7262C65.308 26.494 65.4577 26.2849 65.644 26.111C65.824 25.9361 66.0376 25.7994 66.272 25.7091C66.5082 25.617 66.7598 25.5702 67.0134 25.5714C67.4606 25.5667 67.896 25.7138 68.2484 25.9884L68.3695 26.079L68.0725 26.9677L67.8342 26.7451C67.7247 26.6436 67.5962 26.5647 67.456 26.513C67.3133 26.4594 67.162 26.4325 67.0096 26.4337C66.8564 26.432 66.7042 26.4595 66.5614 26.5148C66.4214 26.5686 66.2929 26.6487 66.1831 26.7507C66.0827 26.8397 66.0024 26.949 65.9476 27.0713C65.8928 27.1936 65.8648 27.3262 65.8653 27.4602C65.8654 27.5903 65.8931 27.7189 65.9467 27.8375C66.0029 27.961 66.0833 28.072 66.1831 28.164C66.293 28.2654 66.4214 28.3448 66.5614 28.3979C66.7041 28.4539 66.8562 28.4821 67.0096 28.481C67.1635 28.4815 67.3162 28.4534 67.4598 28.3979C67.5998 28.3451 67.7283 28.2657 67.838 28.164L68.0763 27.9413L68.3751 28.8357Z" fill="black"/>
<path d="M11.0757 12.6837C10.7108 13.3019 10.2891 13.8849 9.81606 14.4254L8.87039 15.5952L8.32194 16.55C8.97091 17.9402 9.76998 19.2556 10.705 20.4729C10.7239 21.005 10.2681 21.4968 9.33759 21.9484C8.40704 22.4 7.86173 22.5138 7.70157 22.2899L6.09774 19.7464L4.53929 21.3068C3.20907 22.7447 2.37437 23.3888 2.03519 23.2391C1.70877 23.2662 1.38372 23.1729 1.12169 22.9768C0.906079 22.7944 0.667142 22.5711 0.40488 22.3069C0.0594 21.7925 0.486837 20.9118 1.68719 19.6652L4.16103 16.5198C3.81555 15.999 3.41774 15.4455 2.96762 14.8593C2.22824 14.0902 1.55211 13.2629 0.945794 12.3856C0.81306 12.2311 0.731013 12.0398 0.71072 11.8373C0.690428 11.6348 0.732868 11.431 0.832315 11.2534C0.966589 10.9843 1.15151 10.7434 1.37702 10.544C1.60218 10.3516 1.84467 10.1804 2.10139 10.0326C2.46074 9.92314 2.82955 10.0326 3.20403 10.3704C3.7099 10.8465 4.1749 11.3641 4.59415 11.9176C5.03671 12.4334 5.52972 12.9492 6.07315 13.4649C6.99989 12.0811 7.74637 10.9792 8.31245 10.1591C8.75254 9.89236 9.24364 9.94453 9.78581 10.3156C10.328 10.6868 10.8324 11.0641 11.2988 11.4478C11.5157 11.8113 11.4413 12.2233 11.0757 12.6837Z" fill="#DD052C"/>
<path d="M2.14659 23.5464C2.09205 23.5466 2.0378 23.5384 1.98583 23.5219C1.6107 23.5391 1.24174 23.422 0.945601 23.1916C0.726211 23.003 0.478448 22.7747 0.209881 22.5067L0.168271 22.4595C-0.270514 21.8048 0.143684 20.8576 1.47139 19.4783L3.80527 16.5065C3.49321 16.0462 3.13764 15.5631 2.74425 15.0423C2.00029 14.2652 1.31917 13.4305 0.707297 12.5461C0.546208 12.352 0.446839 12.1144 0.421906 11.8636C0.396973 11.6128 0.447611 11.3604 0.56734 11.1384C0.717579 10.8357 0.925005 10.5647 1.17824 10.3403C1.41639 10.1373 1.6728 9.95671 1.94422 9.80069L2.00474 9.7724C2.46433 9.63281 2.9277 9.7724 3.37973 10.1705C3.89801 10.6575 4.3744 11.1871 4.80389 11.7536C5.16513 12.1725 5.57177 12.6046 6.01244 13.0367C6.85786 11.7744 7.54818 10.7611 8.07395 10.0064L8.10805 9.95735L8.16099 9.92522C8.53923 9.70069 9.14447 9.54787 9.94068 10.0913C10.4873 10.4687 11.0074 10.846 11.484 11.2461L11.5218 11.2781L11.5465 11.3196C11.7356 11.6385 11.8472 12.1611 11.3119 12.8499C10.9372 13.474 10.5061 14.0626 10.0239 14.6084L9.09339 15.7556L8.64324 16.5613C9.27159 17.8845 10.0381 19.1381 10.9299 20.301L10.9847 20.3727V20.4633C11.0074 21.1142 10.4948 21.6991 9.4565 22.2029C8.32171 22.752 7.72974 22.8275 7.465 22.4539L6.05216 20.1953L4.74148 21.5161C3.21518 23.1577 2.53809 23.5464 2.14659 23.5464ZM2.09174 22.9558L2.14848 22.9803C2.18252 22.9803 2.60429 22.9803 4.33106 21.1142L6.14672 19.2953L7.92457 22.1142C7.9775 22.1275 8.25744 22.1577 9.21252 21.6935C9.744 21.4369 10.3681 21.0369 10.4173 20.5614C9.49788 19.3504 8.70987 18.0457 8.06639 16.6688L8.00397 16.5367L8.64516 15.4178L9.59084 14.2461C10.0534 13.7191 10.4662 13.1507 10.8239 12.5479L10.8466 12.514C11.1985 12.0706 11.1568 11.8083 11.0755 11.646C10.6235 11.2687 10.1298 10.9101 9.61538 10.5555C9.07826 10.1743 8.72456 10.2554 8.5109 10.3837C7.94347 11.18 7.20397 12.2706 6.30182 13.6235L6.11268 13.9046L5.86303 13.6706C5.31644 13.1499 4.81335 12.6234 4.3651 12.1045C3.95393 11.5611 3.49846 11.0524 3.00336 10.5838C2.72344 10.3272 2.45865 10.2328 2.20711 10.297C1.97691 10.4331 1.75863 10.5884 1.55461 10.7611C1.35756 10.9369 1.19637 11.149 1.07989 11.3857C1.00548 11.5149 0.973665 11.6643 0.988939 11.8126C1.00421 11.9608 1.06579 12.1006 1.165 12.2121L1.18013 12.2328C1.77706 13.0971 2.44308 13.9117 3.17168 14.6687L3.18681 14.6877C3.63884 15.2763 4.04358 15.8405 4.39158 16.3632L4.50506 16.533L1.89126 19.8633C0.503034 21.301 0.493578 21.8973 0.627862 22.1275C0.875624 22.3765 1.10447 22.5878 1.30495 22.7577C1.51556 22.906 1.77293 22.973 2.02933 22.9463L2.09174 22.9558Z" fill="black"/>
<path d="M19.0736 16.3577C18.0663 16.2776 17.0541 16.282 16.0475 16.3709C16.0664 16.8615 16.0928 17.581 16.1269 18.5294C16.1732 19.4091 16.0761 20.2904 15.8394 21.139C15.6112 21.9239 15.1245 22.3416 14.3793 22.3918C13.7524 22.4586 13.1188 22.3637 12.5391 22.1164C12.0549 21.8843 11.8469 21.6126 11.9112 21.2994C11.9618 21.0202 12.0693 20.7543 12.227 20.5182C12.3431 20.3463 12.4832 20.1919 12.6431 20.0597C12.7736 19.9578 12.9476 19.9936 13.1689 20.1654C13.3502 20.322 13.5782 20.4149 13.8176 20.4295C14.0294 20.4295 14.1827 20.2541 14.2734 19.888C14.3755 19.4205 14.4092 18.9406 14.3736 18.4634C14.3447 17.8822 14.2765 17.0187 14.1694 15.8727C14.0622 14.7268 14.0856 14.0475 14.2394 13.8349C14.3945 13.6217 15.1529 13.4972 16.5203 13.4575C17.8877 13.4179 18.7785 13.4085 19.2003 13.4274C19.6221 13.4462 20.0136 13.4802 20.3748 13.5274C20.736 13.5745 20.9744 13.8349 21.0897 14.3048C21.2292 14.9814 21.297 15.6707 21.2921 16.3614C21.311 17.2634 21.3595 18.1118 21.4377 18.9068C21.5159 19.7018 21.5544 20.4283 21.5531 21.0861C21.5531 21.7403 21.3948 22.1082 21.0784 22.19C20.789 22.2665 20.4907 22.304 20.1913 22.3013C20.0756 22.3091 19.9598 22.2853 19.8565 22.2325C19.7532 22.1796 19.6663 22.0997 19.6051 22.0013C19.4897 21.8126 19.3781 21.2126 19.2703 20.2144C19.1625 19.2162 19.1019 17.9313 19.0736 16.3577Z" fill="#DD052C"/>
<path d="M14.0068 22.6797C13.4596 22.6951 12.916 22.5875 12.4162 22.3646C11.6597 21.9986 11.5689 21.5496 11.6332 21.2326C11.6916 20.9152 11.8152 20.6133 11.9963 20.346C12.1272 20.1499 12.2865 19.9745 12.4692 19.8252C12.6072 19.7177 12.9041 19.5913 13.3429 19.9327C13.4767 20.0508 13.6453 20.1223 13.8233 20.1365C13.8687 20.1365 13.9425 20.0346 13.9993 19.8082C14.0913 19.3693 14.1206 18.9196 14.0862 18.4725C14.0578 17.9065 13.9898 17.0292 13.8838 15.8953C13.7325 14.286 13.8611 13.8634 14.0068 13.6634C14.1524 13.4634 14.5855 13.2257 16.5071 13.1709C17.8934 13.1333 18.7767 13.1219 19.2098 13.1408C19.6429 13.1596 20.042 13.1955 20.4089 13.2446C20.7418 13.2879 21.1787 13.4974 21.3545 14.2332C21.4988 14.9301 21.5691 15.6402 21.5645 16.3519C21.5834 17.2386 21.6307 18.0876 21.7082 18.8762C21.7842 19.609 21.8234 20.345 21.8255 21.0817C21.8255 21.8798 21.591 22.3439 21.1371 22.459C20.8233 22.5432 20.4993 22.5838 20.1744 22.5797C20.0096 22.5879 19.8458 22.5513 19.7002 22.4739C19.5546 22.3965 19.4329 22.2811 19.3478 22.1401C19.2533 21.9816 19.1266 21.6213 18.9696 20.2403C18.8675 19.297 18.8032 18.0782 18.7805 16.6216C17.9656 16.5673 17.148 16.5673 16.3331 16.6216C16.352 17.0933 16.3753 17.7222 16.4031 18.5084C16.447 19.4162 16.3442 20.3253 16.0986 21.2006C15.8376 22.0967 15.2437 22.5986 14.3851 22.6552C14.264 22.6759 14.1335 22.6797 14.0068 22.6797ZM12.8058 20.2799C12.6739 20.3966 12.5576 20.5298 12.4597 20.6761C12.3244 20.8798 12.2324 21.109 12.1892 21.3496C12.1552 21.5176 12.3141 21.6873 12.6621 21.8552C13.1989 22.0816 13.785 22.1667 14.3642 22.1024C14.9903 22.0609 15.3742 21.7251 15.5709 21.0534C15.7981 20.2361 15.892 19.3875 15.8489 18.5404C15.8149 17.5971 15.7884 16.8707 15.7695 16.3821V16.118L16.0324 16.0896C17.0528 16.0003 18.0789 15.9953 19.1001 16.0745L19.363 16.0915V16.3538C19.3838 17.9102 19.4481 19.1988 19.5522 20.1837C19.6921 21.4798 19.8055 21.7854 19.8491 21.8571C19.8926 21.9288 19.9701 22.0137 20.1971 22.0175C20.471 22.0197 20.7439 21.9848 21.0085 21.9137C21.173 21.8722 21.2676 21.5704 21.2694 21.0836C21.2694 20.4421 21.2316 19.7177 21.1541 18.9347C21.0765 18.1517 21.0274 17.2688 21.0085 16.367C21.0137 15.6976 20.9503 15.0294 20.8193 14.3728C20.7039 13.9087 20.4903 13.8294 20.3408 13.8068C19.9909 13.7596 19.6051 13.7276 19.1928 13.7087C18.7805 13.6898 17.884 13.7087 16.5317 13.7389C14.7898 13.7898 14.5061 13.9709 14.4664 14.0067C14.4266 14.0426 14.3132 14.3162 14.4664 15.8443C14.5723 16.9764 14.6423 17.8631 14.6706 18.4461C14.7081 18.9515 14.6731 19.4598 14.5666 19.9554C14.4097 20.578 14.0881 20.71 13.8422 20.71H13.8063C13.5068 20.6926 13.2212 20.5779 12.993 20.3836C12.8607 20.2818 12.8058 20.2799 12.8058 20.2799Z" fill="black"/>
<path d="M30.2474 22.6795C29.7431 23.0393 29.2715 22.8412 28.8328 22.085C28.23 22.5128 27.7068 22.7241 27.263 22.7191C26.7261 22.6982 26.1941 22.6088 25.68 22.453C24.9736 22.2277 24.3237 21.8544 23.7735 21.3584C23.172 20.6865 22.8858 19.6711 22.9148 18.3122C22.9751 17.0864 23.4713 15.922 24.3144 15.0284C24.6994 14.5967 25.1708 14.2504 25.6982 14.0117C26.2256 13.7731 26.7973 13.6475 27.3765 13.6431C27.897 13.6513 28.411 13.7609 28.8895 13.9658C29.2266 14.0981 29.5233 14.3161 29.7501 14.598C29.9212 14.8131 30.0339 15.0685 30.0772 15.3398C30.1075 15.5813 30.1548 15.9135 30.2191 16.3362C30.2872 16.8808 30.3031 17.4306 30.2663 17.9782C30.2256 18.5097 30.2516 19.0442 30.3439 19.5692C30.4271 19.9467 30.516 20.3241 30.6068 20.6639C30.7066 21.0245 30.8603 21.368 31.0626 21.6829C31.0654 21.8778 30.9984 22.0672 30.8735 22.2171C30.682 22.3931 30.4721 22.5481 30.2474 22.6795ZM26.8658 15.6191C26.1093 15.9537 25.6251 16.3016 25.4133 16.6628C25.2014 17.0239 25.052 17.619 24.965 18.4481C24.883 19.2748 25.1113 19.853 25.6496 20.1826C26.188 20.5122 26.9547 20.5317 27.9495 20.2411C28.1919 20.0013 28.3476 19.6879 28.3921 19.3502C28.5307 18.6659 28.6161 17.9718 28.6474 17.2743C28.6536 16.9843 28.6288 16.6945 28.5736 16.4098C28.4914 16.1756 28.3321 15.976 28.1216 15.8437C27.8701 15.6455 27.4502 15.5738 26.8658 15.6191Z" fill="#DD052C"/>
<path d="M29.7712 23.1372C29.7075 23.1366 29.644 23.129 29.5821 23.1145C29.2363 23.0168 28.9411 22.7906 28.7574 22.4825C28.2014 22.8372 27.7134 23.0089 27.2689 23.0014C26.7064 22.9804 26.1489 22.8872 25.6102 22.724C24.8649 22.4878 24.1787 22.0954 23.5979 21.573L23.5714 21.5466C22.9227 20.822 22.6087 19.7333 22.639 18.3068C22.7029 17.0117 23.2257 15.7813 24.1143 14.835C24.5256 14.3763 25.0285 14.0083 25.5906 13.7545C26.1526 13.5008 26.7617 13.3669 27.3787 13.3613C27.9385 13.3702 28.4915 13.4868 29.0071 13.7048C29.3929 13.8561 29.7321 14.1059 29.9905 14.4294C30.1903 14.6837 30.3206 14.9853 30.3688 15.3048C30.3972 15.5444 30.4445 15.8709 30.5088 16.2955C30.5794 16.8586 30.5965 17.4272 30.5598 17.9936C30.5209 18.4978 30.545 19.0049 30.6317 19.5031C30.7131 19.8805 30.8 20.2465 30.8908 20.5843C30.9827 20.9183 31.1249 21.2363 31.3126 21.5277L31.3618 21.6051V21.6975C31.358 21.96 31.26 22.2124 31.0856 22.4089C30.8809 22.5994 30.6565 22.7677 30.4161 22.9108C30.2305 23.0524 30.0047 23.1317 29.7712 23.1372ZM28.922 21.673L29.079 21.9428C29.2889 22.3051 29.5026 22.5202 29.6955 22.5617C29.7645 22.5717 29.8348 22.5667 29.9017 22.5472C29.9686 22.5276 30.0305 22.494 30.0832 22.4485H30.0965C30.2998 22.3277 30.49 22.186 30.6638 22.0258C30.7258 21.9486 30.7634 21.8547 30.7716 21.756C30.5785 21.4405 30.4308 21.0994 30.3329 20.7428C30.2402 20.3956 30.1438 20.0239 30.0662 19.6352C29.969 19.0867 29.941 18.5283 29.983 17.9728C30.0194 17.4443 30.0042 16.9135 29.9376 16.3879C29.8733 15.9634 29.826 15.6331 29.7957 15.3822C29.7589 15.1596 29.6651 14.9504 29.5234 14.7747C29.3218 14.5325 29.0613 14.3461 28.7669 14.2331C28.324 14.0445 27.8487 13.9433 27.3673 13.9349C26.8261 13.9378 26.2917 14.0546 25.7989 14.2777C25.3062 14.5007 24.8662 14.825 24.5076 15.2293C23.7112 16.0768 23.2421 17.1787 23.1837 18.3389C23.1572 19.5956 23.4182 20.5484 23.9592 21.1692C24.474 21.6331 25.082 21.9824 25.7426 22.1938C26.2337 22.3445 26.7423 22.4308 27.2557 22.4504H27.2689C27.6472 22.4504 28.1125 22.2617 28.6571 21.8692L28.922 21.673ZM26.7072 20.7296C26.2871 20.7427 25.8717 20.6382 25.5082 20.4277C24.8707 20.039 24.5946 19.3653 24.6873 18.4238C24.7743 17.5464 24.9313 16.9256 25.1696 16.5238C25.4079 16.1218 25.9261 15.7256 26.7526 15.3652L26.7961 15.3463H26.8434C27.5054 15.2935 27.9782 15.3822 28.2978 15.6199C28.5621 15.7882 28.7594 16.0431 28.8557 16.3407C28.9146 16.6472 28.9419 16.9589 28.9371 17.2709C28.9068 17.9887 28.8196 18.7029 28.6761 19.4069C28.6237 19.8035 28.4392 20.171 28.1522 20.4503L28.1011 20.4994L28.0349 20.5202C27.6042 20.6502 27.1572 20.7195 26.7072 20.7258V20.7296ZM26.9361 15.903C26.1039 16.2803 25.7805 16.6011 25.6575 16.8106C25.4684 17.1351 25.3303 17.6974 25.2528 18.4804C25.1828 19.1955 25.3625 19.6748 25.8051 19.9446C26.2477 20.2145 26.9304 20.2371 27.8042 19.9937C27.9765 19.8037 28.0855 19.565 28.1162 19.3106C28.2531 18.6376 28.3378 17.9551 28.3697 17.2691C28.3763 17.0001 28.3542 16.7313 28.3035 16.4671C28.2884 16.4011 28.2222 16.2633 27.9574 16.0652C27.825 15.9652 27.5375 15.8558 26.9361 15.8992V15.903Z" fill="black"/>
<path d="M41.896 21.5728C41.4661 21.3488 41.1408 20.867 40.9201 20.1274C40.6995 19.3877 40.4397 18.646 40.1409 17.9026C40.0558 18.063 39.8724 18.4555 39.5906 19.0762C39.3873 19.5421 39.1607 19.9975 38.9116 20.4405C38.756 20.7109 38.5324 20.9359 38.2628 21.0934C37.9911 21.2451 37.6852 21.325 37.3739 21.3255C37.2342 21.3389 37.0935 21.316 36.9652 21.2591C36.837 21.2023 36.7257 21.1133 36.642 21.001C36.3842 20.5602 36.1756 20.0926 36.0198 19.6065C35.804 18.9876 35.5297 18.3905 35.2008 17.8233C34.6573 19.665 34.3087 20.8224 34.1549 21.2954C33.9998 21.7671 33.6442 21.9992 33.0844 21.9879C32.3071 21.9879 31.9648 21.7237 32.0537 21.2161C32.1425 20.7085 32.3979 19.7273 32.8101 18.2705C33.2225 16.8138 33.5175 15.7608 33.6688 15.1042C33.8202 14.4475 33.979 14.0003 34.1417 13.7606C34.243 13.6299 34.3708 13.5219 34.5169 13.4439C34.6628 13.3658 34.8238 13.3195 34.989 13.3078C35.3594 13.2441 35.7405 13.3108 36.067 13.4965C36.3885 13.6789 36.8998 14.7714 37.6008 16.7741C38.0197 15.8159 38.4869 14.8794 39.0004 13.9682C39.2526 13.5694 39.699 13.3367 40.3395 13.27C40.8577 13.27 41.2322 13.5153 41.4743 14.0248C41.7616 14.6963 41.9918 15.3906 42.1627 16.1005C42.3859 16.9685 42.657 17.985 42.976 19.1499C43.2937 20.3179 43.3032 21.0067 43.0063 21.2256C42.6784 21.4475 42.2923 21.5683 41.896 21.5728Z" fill="#DD052C"/>
<path d="M33.1228 22.2715H33.0793C32.5233 22.2715 32.1487 22.1394 31.9445 21.8941C31.8649 21.7946 31.8089 21.6784 31.7808 21.5542C31.7526 21.43 31.7529 21.301 31.7818 21.177C31.8745 20.6543 32.128 19.6825 32.5535 18.2031C32.9715 16.7576 33.259 15.697 33.4084 15.0498C33.5691 14.3535 33.7374 13.8817 33.9247 13.61C34.0475 13.4487 34.2029 13.315 34.3807 13.2174C34.5586 13.1199 34.7551 13.0608 34.9573 13.0439C35.3904 12.9677 35.8364 13.0444 36.2188 13.2609C36.4779 13.4081 36.8525 13.8685 37.6468 16.0367C37.9838 15.2766 38.3594 14.534 38.7721 13.8119C39.071 13.3401 39.593 13.0571 40.3192 12.9854H40.3457C40.645 12.9776 40.9393 13.0625 41.1883 13.2284C41.4372 13.3943 41.6285 13.6331 41.7359 13.9119C42.0286 14.5971 42.2639 15.3052 42.4394 16.0291C42.6625 16.8896 42.9349 17.9162 43.2507 19.0749C43.6158 20.4165 43.5931 21.1506 43.1751 21.4487C42.8064 21.7048 42.3703 21.8472 41.9212 21.8582H41.8417L41.7737 21.8224C41.2781 21.562 40.9018 21.0185 40.6578 20.2071C40.5008 19.6806 40.3211 19.1484 40.1225 18.6144C40.0469 18.7767 39.958 18.9692 39.8578 19.1919C39.6508 19.6671 39.4191 20.1314 39.1636 20.5826C38.9826 20.8963 38.7216 21.1567 38.4071 21.3374C38.0943 21.5137 37.7413 21.6066 37.382 21.6073C37.196 21.621 37.0096 21.5873 36.8402 21.5094C36.6708 21.4315 36.524 21.3119 36.4137 21.1619C36.1408 20.7011 35.9206 20.2112 35.7573 19.7013C35.6188 19.316 35.4604 18.9381 35.2827 18.5692C34.8458 20.0448 34.5658 20.9694 34.4297 21.3883C34.2935 21.8073 33.9568 22.2715 33.1228 22.2715ZM35.2864 13.5685C35.2028 13.5683 35.1194 13.5746 35.0367 13.5874C34.911 13.5953 34.7883 13.6288 34.676 13.6859C34.5638 13.743 34.4645 13.8225 34.3843 13.9195C34.2859 14.0648 34.1308 14.3988 33.953 15.1687C33.8017 15.8253 33.5105 16.8953 33.0925 18.3502C32.6745 19.8051 32.4211 20.7713 32.336 21.2657C32.3057 21.4393 32.3568 21.5035 32.3738 21.5242C32.4287 21.5903 32.5951 21.6997 33.0888 21.7129C33.5294 21.7243 33.7734 21.5676 33.8888 21.2147C34.0401 20.7505 34.3918 19.5843 34.9327 17.752L35.1219 17.1293L35.4548 17.6955C35.7924 18.2784 36.0742 18.892 36.2964 19.5277C36.6066 20.3769 36.7863 20.7185 36.8846 20.8486C36.941 20.9237 37.0166 20.9822 37.1034 21.018C37.1903 21.0539 37.2852 21.0658 37.3782 21.0524C37.6425 21.0556 37.9031 20.9905 38.1348 20.8638C38.3628 20.7309 38.5514 20.5401 38.6813 20.3109C38.8459 20.0334 39.0691 19.5843 39.3452 18.9748C39.6214 18.3654 39.8161 17.9501 39.9031 17.786L40.1887 17.2426L40.4176 17.8086C40.7164 18.5635 40.985 19.3183 41.2044 20.0561C41.3935 20.677 41.6507 21.094 41.9761 21.2978C42.2879 21.2799 42.5889 21.1768 42.846 20.9996C42.8763 20.9789 43.1203 20.7505 42.708 19.2334C42.3902 18.0709 42.1179 17.0425 41.8928 16.1801C41.726 15.4877 41.5014 14.8104 41.2214 14.1553C41.0322 13.7477 40.7675 13.559 40.3703 13.5609C39.8237 13.6213 39.4587 13.8062 39.2544 14.127C39.0104 14.5044 38.5471 15.448 37.8775 16.8972L37.5844 17.535L37.3518 16.8727C36.4061 14.1799 36.0279 13.8006 35.9446 13.7477C35.7453 13.6302 35.518 13.5683 35.2864 13.5685Z" fill="black"/>
<path d="M51.4761 21.8357C48.9872 22.1263 47.1715 21.698 46.0292 20.5507C44.8868 19.4034 44.2829 17.9285 44.2173 16.1259C44.1301 14.4104 44.5752 12.7097 45.492 11.2557C46.4074 9.81164 47.609 8.96628 49.0969 8.7197C50.5847 8.47319 51.8544 8.4889 52.906 8.76689C53.9955 9.07361 54.9492 9.73857 55.6124 10.6538C56.369 11.6325 56.7643 12.9489 56.7983 14.6031C56.8473 16.1839 56.5905 17.7593 56.0418 19.2431C55.4984 20.6822 53.9765 21.5464 51.4761 21.8357ZM49.494 12.1822C48.2408 12.3998 47.575 13.3313 47.4968 14.9767C47.4186 16.6221 47.8038 17.6405 48.6524 18.0316C49.4059 18.403 50.2348 18.5967 51.0752 18.5977C51.7726 18.608 52.4501 18.3653 52.9816 17.9147C53.486 17.4756 53.8315 16.658 54.0181 15.4617C54.2047 14.2654 53.8113 13.366 52.8379 12.7634C51.862 12.1583 50.7473 11.9646 49.494 12.1822Z" fill="#DD052C"/>
<path d="M50.0631 22.2051C48.2134 22.2051 46.7911 21.7182 45.8265 20.7502C44.6369 19.5558 44.0014 18.0028 43.9352 16.1347C43.8498 14.3622 44.3119 12.6062 45.2591 11.1041C46.2143 9.5945 47.4928 8.70015 49.0569 8.43971C50.5794 8.18687 51.8939 8.20386 52.9852 8.49252C54.135 8.81552 55.1424 9.51546 55.8448 10.4795C56.6335 11.5023 57.0515 12.8854 57.0893 14.595C57.136 16.2122 56.8708 17.8232 56.3082 19.3406C55.7257 20.8804 54.1143 21.8144 51.5175 22.1164C51.0349 22.1747 50.5493 22.2043 50.0631 22.2051ZM51.0485 8.82845C50.41 8.83279 49.773 8.88958 49.1439 8.99827C47.7443 9.23035 46.5963 10.0398 45.7395 11.406C44.8532 12.8149 44.4232 14.4621 44.5083 16.1234C44.5707 17.8462 45.1513 19.2708 46.2369 20.3615C47.3226 21.4522 49.0645 21.8428 51.4513 21.5635C53.8211 21.288 55.2755 20.4766 55.7768 19.15C56.3136 17.702 56.5666 16.1646 56.5219 14.6213C56.486 13.0364 56.1077 11.7646 55.3871 10.8475C54.7612 9.9824 53.8608 9.35346 52.832 9.06238C52.2502 8.90728 51.6507 8.82867 51.0485 8.82845ZM50.9861 18.8746C50.1331 18.8585 49.294 18.657 48.5274 18.284C47.5684 17.8424 47.124 16.7235 47.2034 14.9591C47.2829 13.1949 48.0394 12.1419 49.4351 11.8985C50.6511 11.6521 51.9153 11.8703 52.9776 12.5099C54.0556 13.1741 54.4907 14.1779 54.2883 15.4932C54.0878 16.7707 53.7209 17.6311 53.1535 18.1198C52.5736 18.6128 51.8349 18.8808 51.073 18.8746H50.9861ZM50.4564 12.374C50.1532 12.3765 49.8508 12.4049 49.5524 12.459C48.4365 12.6476 47.8616 13.4798 47.7897 14.9874C47.7179 16.4951 48.0507 17.4405 48.7808 17.7726C49.4923 18.1202 50.2732 18.3034 51.0655 18.3085C51.6963 18.3219 52.3102 18.1037 52.7904 17.6952C53.2386 17.3028 53.5563 16.5329 53.736 15.4082C53.9063 14.3232 53.5639 13.5345 52.6864 12.9949C52.0162 12.5835 51.2432 12.3696 50.4564 12.3778V12.374Z" fill="black"/>
<path d="M63.6789 17.1045C63.9583 17.3698 64.2006 17.6712 64.3995 18.0008C64.6668 18.4122 64.7897 19.0141 64.7683 19.8066C64.7469 20.5992 64.1467 21.193 62.9678 21.588C61.932 21.9622 60.8319 22.1264 59.7317 22.0711C58.7539 21.9975 58.2527 21.8258 58.2187 21.5578C58.1847 21.2899 58.1506 20.1086 58.0958 18.0159C58.0409 15.9232 58.0258 14.6514 58.0503 14.1985C58.0749 13.7456 58.1411 13.4701 58.2565 13.3701C58.4792 13.2256 58.7299 13.1291 58.9922 13.0871C59.542 12.9839 60.1014 12.9422 60.6604 12.9625C61.4729 12.9911 62.2638 13.2311 62.9545 13.6588C63.7489 14.118 64.1562 14.7262 64.1764 15.4836C64.1965 16.2409 64.0307 16.7812 63.6789 17.1045ZM61.5342 20.1237C62.7181 19.7941 63.1828 19.3708 62.9281 18.8538C62.6734 18.3367 62.3241 18.0404 61.8803 17.9649C61.4656 17.892 61.0455 17.8541 60.6245 17.8518C60.231 17.8518 60.0079 17.9253 59.953 18.0763C59.8641 18.5315 59.8179 18.9939 59.815 19.4575C59.7759 20.2262 60.3489 20.4476 61.5342 20.1218V20.1237ZM62.0562 15.3062C62.0387 15.1707 61.9887 15.0414 61.9103 14.9293C61.8319 14.8173 61.7275 14.7258 61.606 14.6628C61.3078 14.5079 60.9733 14.4362 60.6377 14.4551C60.2481 14.4551 60.0249 14.5042 59.9681 14.5835C59.8974 14.7124 59.8683 14.8601 59.885 15.0062C59.885 15.21 59.9019 15.4194 59.9228 15.6364C59.922 15.7204 59.9409 15.8034 59.978 15.8787C60.0151 15.9541 60.0694 16.0197 60.1365 16.0704C60.3515 16.1598 60.5856 16.1943 60.8174 16.1704C61.1314 16.1704 61.4406 16.0934 61.7177 15.9459C61.8386 15.8931 61.938 15.8008 61.9995 15.6842C62.0609 15.5677 62.081 15.4337 62.0562 15.3043V15.3062Z" fill="#DD052C"/>
<path d="M60.1933 22.3716C60.0307 22.3716 59.868 22.3716 59.7091 22.3527C58.5176 22.2621 57.988 22.0338 57.9426 21.5866C57.9142 21.3092 57.8727 20.1431 57.8178 18.0241C57.7629 15.9051 57.7478 14.6503 57.7724 14.1861C57.8008 13.6333 57.8935 13.3162 58.0769 13.1577C58.3329 12.98 58.6258 12.862 58.9337 12.8124C59.5049 12.7025 60.0867 12.6582 60.668 12.6804C61.5296 12.7097 62.3686 12.9627 63.1022 13.4143C63.9835 13.9238 64.4431 14.6182 64.4658 15.4767C64.4847 16.1711 64.3523 16.7127 64.0705 17.092C64.28 17.3277 64.4697 17.5801 64.6379 17.8467C64.9367 18.3109 65.0729 18.9544 65.0502 19.8129C65.0275 20.7337 64.3561 21.4206 63.0568 21.8565C62.136 22.1797 61.1692 22.3535 60.1933 22.3716ZM58.5044 21.5168C58.5365 21.5507 58.7408 21.7149 59.7526 21.7904C60.8145 21.8441 61.8766 21.687 62.8771 21.3281C63.9419 20.9734 64.4696 20.4752 64.4847 19.8186C64.5036 19.0864 64.3958 18.5336 64.1613 18.1732C63.9766 17.8653 63.7514 17.5836 63.4917 17.3354L63.2515 17.1259L63.488 16.9127C63.7792 16.6504 63.9173 16.1787 63.8984 15.5107C63.8795 14.8428 63.5201 14.3314 62.8166 13.9219C62.169 13.5189 61.427 13.2919 60.6642 13.2634C60.1282 13.2427 59.5915 13.2819 59.0642 13.3804C58.8446 13.4082 58.6329 13.4801 58.4419 13.5918C58.4419 13.5918 58.3588 13.6993 58.3304 14.222C58.3077 14.6654 58.3304 15.9428 58.3777 18.0165C58.4419 20.0487 58.4779 21.2262 58.5044 21.5168ZM60.6415 20.5526C60.3643 20.569 60.09 20.4882 59.8661 20.3242C59.7417 20.2163 59.6461 20.0794 59.5877 19.9256C59.5293 19.7719 59.51 19.6061 59.5314 19.4431C59.5843 18.3826 59.6429 18.1033 59.6864 17.9807C59.8358 17.5674 60.4316 17.5674 60.6321 17.5694C61.0684 17.5721 61.5036 17.6112 61.9333 17.6864C62.4704 17.7769 62.8922 18.1278 63.1891 18.7298C63.247 18.838 63.2797 18.9579 63.2846 19.0803C63.2895 19.2029 63.2666 19.325 63.2175 19.4374C63.0284 19.8374 62.5291 20.1431 61.6156 20.3978C61.299 20.4911 60.9715 20.5425 60.6415 20.5507V20.5526ZM60.2141 18.192C60.1416 18.6147 60.1031 19.0425 60.0987 19.4713C60.0836 19.7733 60.1876 19.8488 60.2217 19.8827C60.3276 19.9695 60.6321 20.0714 61.4586 19.8525C62.4326 19.5808 62.6464 19.3091 62.6936 19.2053C62.7089 19.1688 62.7151 19.1292 62.7118 19.0898C62.7085 19.0504 62.6958 19.0124 62.6747 18.9789C62.461 18.5449 62.1849 18.3053 61.8331 18.2448C61.434 18.175 61.0297 18.1384 60.6246 18.1355C60.4853 18.1219 60.3448 18.1406 60.2141 18.1901V18.192ZM60.7455 16.4561C60.4851 16.4761 60.224 16.4266 59.9891 16.3127C59.8838 16.2404 59.7974 16.1442 59.7368 16.032C59.6763 15.9197 59.6435 15.7948 59.6411 15.6673C59.6183 15.4465 59.6051 15.2258 59.6013 15.0144C59.5808 14.8054 59.6293 14.5953 59.7394 14.4163C59.8623 14.2522 60.1176 14.1842 60.6321 14.1748C61.0186 14.1572 61.4029 14.2419 61.7461 14.4201C61.905 14.5044 62.0416 14.6251 62.1446 14.7724C62.2474 14.9198 62.3138 15.0894 62.338 15.2673C62.3689 15.4541 62.3375 15.6458 62.2487 15.8132C62.1598 15.9805 62.0185 16.1142 61.8463 16.1938C61.529 16.3626 61.1751 16.4513 60.8155 16.4523L60.7455 16.4561ZM60.1782 14.7805C60.1638 14.8532 60.1581 14.9272 60.1611 15.0012C60.1611 15.1994 60.1782 15.4032 60.199 15.6088C60.2122 15.7447 60.2482 15.8126 60.2766 15.8296C60.4457 15.8916 60.6274 15.9117 60.8061 15.8881C61.0742 15.8884 61.3384 15.8236 61.5759 15.6994C61.6446 15.6731 61.7016 15.623 61.7363 15.5581C61.771 15.4934 61.7812 15.4182 61.765 15.3465C61.7543 15.2557 61.7217 15.1687 61.67 15.0931C61.6183 15.0175 61.549 14.9556 61.4681 14.9126C61.2126 14.7835 60.9274 14.7242 60.6415 14.7408C60.4887 14.7357 60.3357 14.7483 60.1857 14.7786L60.1782 14.7805Z" fill="black"/>
<path d="M74.1242 14.8973C74.8176 16.4485 74.8048 17.9198 74.0843 19.3113C73.3644 20.7027 72.2608 21.4342 70.7729 21.5059C69.2863 21.5777 68.1238 21.3034 67.2853 20.6832C66.4468 20.0629 65.9941 19.1685 65.9273 17.9997C65.8677 16.7927 66.1054 15.5896 66.6195 14.4954C67.1466 13.3267 68.3558 12.7133 70.2471 12.6555C72.1381 12.5976 73.4308 13.3449 74.1242 14.8973ZM72.696 16.7259C72.6739 16.4528 72.5926 16.1877 72.4577 15.9491C72.3222 15.7106 72.1367 15.5043 71.9134 15.3446C71.4454 14.9974 70.8151 14.8766 70.022 14.9823C69.2289 15.0879 68.6987 15.3981 68.4314 15.9126C68.1656 16.4413 68.0711 17.0395 68.161 17.6242C68.2441 18.2532 68.5007 18.7049 68.9307 18.9792C69.4026 19.2629 69.9508 19.3947 70.5005 19.3566C71.1183 19.3364 71.6544 19.0351 72.1082 18.4526C72.5619 17.8701 72.7581 17.2946 72.696 16.7259Z" fill="#DD052C"/>
<path d="M70.3264 21.7993C69.0025 21.7993 67.915 21.5012 67.1112 20.9106C66.2052 20.2389 65.7116 19.2652 65.6397 18.0142C65.5787 16.762 65.8248 15.5139 66.3565 14.378C66.924 13.1082 68.2365 12.4326 70.2356 12.3723C72.2344 12.3119 73.6398 13.127 74.3796 14.7818C75.108 16.4084 75.0923 17.9764 74.3325 19.4407C73.5721 20.9049 72.3707 21.705 70.7822 21.788C70.6246 21.7955 70.4727 21.7993 70.3264 21.7993ZM70.4531 12.9308H70.264C68.4748 12.9855 67.3703 13.5327 66.8861 14.6026C66.3923 15.6558 66.1632 16.8131 66.2185 17.9745C66.279 19.0652 66.6856 19.8747 67.4611 20.4483C68.2365 21.0219 69.3524 21.2842 70.7671 21.2144C72.1817 21.1446 73.1611 20.4804 73.8403 19.1747C74.5194 17.8689 74.5366 16.4876 73.8724 15.0045C73.241 13.6158 72.1232 12.9346 70.4531 12.9346V12.9308ZM70.3661 19.6388C69.8045 19.6535 69.2507 19.5053 68.7717 19.2124C68.2706 18.8935 67.9679 18.3689 67.8753 17.6576C67.778 17.0161 67.8816 16.3604 68.1722 15.78C68.4786 15.18 69.0876 14.8177 69.9784 14.697C70.8692 14.5762 71.556 14.7215 72.0818 15.1139C72.3365 15.2968 72.5491 15.5327 72.7046 15.8053C72.8594 16.078 72.9535 16.381 72.9799 16.6933C73.042 17.3368 72.823 17.9877 72.3258 18.6256C71.8278 19.2633 71.2077 19.6124 70.5042 19.6369L70.3661 19.6388ZM70.5458 15.2291C70.3813 15.2297 70.217 15.241 70.054 15.263C69.3486 15.3574 68.8985 15.6121 68.6772 16.0405C68.4394 16.5186 68.3555 17.0583 68.437 17.5858C68.5088 18.133 68.7188 18.5104 69.0781 18.7387C69.5014 18.9925 69.9928 19.1098 70.4853 19.0746C71.0205 19.0557 71.4747 18.7972 71.877 18.2802C72.2801 17.7632 72.4634 17.2538 72.4142 16.7537C72.3957 16.5196 72.3265 16.2922 72.2102 16.0879C72.0939 15.8835 71.9348 15.7069 71.7429 15.5706C71.3919 15.3295 70.9715 15.2096 70.5458 15.2291Z" fill="black"/>
<path d="M77.5927 14.6124C77.2489 14.4954 76.9835 14.2048 76.7987 13.7444C76.6133 13.284 76.8665 12.9198 77.5549 12.6575C77.9024 12.5292 78.2748 12.4795 78.6436 12.5122C79.0131 12.5448 79.3705 12.659 79.6901 12.8463C80.0418 13.026 80.3429 13.2899 80.5669 13.6142C80.7909 13.9386 80.9314 14.3133 80.9742 14.7049C81.1069 15.564 80.8979 16.2326 80.3464 16.7107C80.5976 16.9594 80.7887 17.262 80.9057 17.5955C81.0227 17.929 81.0613 18.2846 81.0199 18.6353C80.9628 19.3125 80.7096 19.9585 80.2901 20.494C79.8842 21.0047 79.2393 21.2808 78.3568 21.3223C77.4743 21.3639 76.7987 21.2142 76.3315 20.8733C75.8621 20.5311 75.6645 20.1725 75.7372 19.7977C75.7765 19.4857 75.9263 19.1981 76.1588 18.9863C76.365 18.8203 76.6325 18.8467 76.9628 19.0656C77.2532 19.2667 77.5785 19.412 77.9216 19.4939C78.0607 19.53 78.207 19.5295 78.3461 19.4924C78.4852 19.4554 78.6115 19.3831 78.7142 19.2826C78.9311 19.075 78.9518 18.7819 78.777 18.4032C78.6015 18.0246 78.3661 17.8026 78.0693 17.7371C77.7768 17.673 77.6698 17.3869 77.7476 16.8786C77.826 16.3704 77.9687 16.0792 78.1756 16.005C78.3896 15.9222 78.5901 15.8084 78.7713 15.6672C78.9589 15.5276 78.9675 15.286 78.7977 14.9426C78.6272 14.5992 78.2255 14.4891 77.5927 14.6124Z" fill="#DD052C"/>
<path d="M78.092 21.603C77.283 21.603 76.6381 21.4314 76.1709 21.0936C75.603 20.6841 75.3704 20.2275 75.4674 19.735C75.5195 19.3578 75.7043 19.0114 75.9889 18.7576C76.2029 18.5839 76.5753 18.4538 77.1239 18.8217C77.385 18.9999 77.6775 19.1279 77.9864 19.1991C78.0799 19.2257 78.179 19.2267 78.2732 19.2021C78.3674 19.1776 78.453 19.1283 78.5215 19.0595C78.5764 19.0085 78.7105 18.8897 78.5215 18.5047C78.3816 18.2066 78.2154 18.0405 78.0107 17.9952C77.7496 17.9387 77.3323 17.7084 77.4699 16.8178C77.5327 16.4215 77.659 15.8743 78.0792 15.7215C78.2639 15.6524 78.438 15.5563 78.5957 15.4366C78.6784 15.3743 78.5821 15.1554 78.5386 15.0592C78.433 14.8459 78.1298 14.7856 77.6404 14.8705L77.5662 14.8837L77.4949 14.8592C77.0726 14.7139 76.7473 14.3667 76.5297 13.8289C76.4783 13.7146 76.4512 13.591 76.4498 13.4657C76.4476 13.3404 76.4719 13.2161 76.5204 13.1006C76.6545 12.7968 76.9613 12.559 77.4664 12.3722C77.8502 12.2276 78.2611 12.1696 78.6706 12.2022C79.0793 12.2348 79.476 12.3573 79.832 12.5609C80.2243 12.7622 80.5603 13.0571 80.81 13.4191C81.0604 13.7813 81.2167 14.1995 81.2659 14.6365C81.3943 15.48 81.2188 16.1725 80.7437 16.6989C80.9648 16.9671 81.1296 17.2773 81.2267 17.6108C81.3244 17.9441 81.3529 18.2939 81.3115 18.6387C81.2473 19.369 80.9734 20.0653 80.5225 20.6445C80.0631 21.2106 79.3426 21.5332 78.3795 21.5767C78.2796 21.6012 78.1848 21.603 78.092 21.603ZM76.4698 19.15C76.4241 19.149 76.3799 19.1645 76.3449 19.1935C76.1659 19.3657 76.0524 19.5944 76.0232 19.8406C76.0039 19.9369 75.9476 20.218 76.5054 20.6313C76.9178 20.9313 77.5384 21.0653 78.3517 21.0276C79.165 20.9898 79.7185 20.7539 80.076 20.3067C80.4605 19.8119 80.693 19.217 80.7458 18.5934C80.7829 18.2836 80.748 17.9694 80.6445 17.6751C80.5411 17.3808 80.3713 17.1139 80.148 16.8952L79.944 16.682L80.1673 16.4932C80.6438 16.0781 80.8193 15.5064 80.7023 14.7441C80.6659 14.3961 80.5432 14.0627 80.3449 13.774C80.1466 13.4854 79.8798 13.2507 79.5673 13.0911C79.2827 12.9236 78.9638 12.8219 78.6349 12.7936C78.3053 12.7651 77.9743 12.8107 77.6647 12.927C77.2409 13.0855 77.0975 13.2478 77.0483 13.3534C77.0298 13.3998 77.0219 13.4496 77.0248 13.4994C77.0269 13.5492 77.0405 13.5978 77.0633 13.6421C77.1546 13.9352 77.3586 14.1802 77.6304 14.3233C78.5329 14.1761 78.9053 14.512 79.0608 14.8271C79.3711 15.4573 79.125 15.7706 78.9488 15.9026C78.7476 16.0547 78.5257 16.1768 78.2889 16.2649C78.2361 16.2857 78.117 16.4536 78.0449 16.9178C78.0093 17.1461 77.9978 17.4235 78.1469 17.4556C78.525 17.5405 78.8318 17.8179 79.0472 18.2783C79.3383 18.901 79.1421 19.2783 78.9245 19.484C78.7883 19.6162 78.6206 19.7115 78.4373 19.7608C78.2539 19.8099 78.0606 19.8115 77.8766 19.7652C77.4985 19.6758 77.1403 19.5164 76.8215 19.2953C76.7209 19.2146 76.5982 19.1655 76.4698 19.1538V19.15Z" fill="black"/>
</svg>
