<svg width="135" height="21" viewBox="0 0 135 21" fill="none" xmlns="http://www.w3.org/2000/svg">
<path d="M12.9287 17H10.0986L8.97363 14.0732H3.82324L2.75977 17H0L5.01855 4.11523H7.76953L12.9287 17ZM8.13867 11.9023L6.36328 7.12109L4.62305 11.9023H8.13867ZM16.6641 17H14.1943V7.66602H16.4883V8.99316C16.8809 8.36621 17.2324 7.95313 17.543 7.75391C17.8594 7.55469 18.2168 7.45508 18.6152 7.45508C19.1777 7.45508 19.7197 7.61035 20.2412 7.9209L19.4766 10.0742C19.0605 9.80469 18.6738 9.66992 18.3164 9.66992C17.9707 9.66992 17.6777 9.7666 17.4375 9.95996C17.1973 10.1475 17.0068 10.4902 16.8662 10.9883C16.7314 11.4863 16.6641 12.5293 16.6641 14.1172V17ZM21.3135 6.40039V4.11523H23.7832V6.40039H21.3135ZM21.3135 17V7.66602H23.7832V17H21.3135ZM31.7285 14.0293L34.1895 14.4424C33.873 15.3447 33.3721 16.0332 32.6865 16.5078C32.0068 16.9766 31.1543 17.2109 30.1289 17.2109C28.5059 17.2109 27.3047 16.6807 26.5254 15.6201C25.9102 14.7705 25.6025 13.6982 25.6025 12.4033C25.6025 10.8564 26.0068 9.64648 26.8154 8.77344C27.624 7.89453 28.6465 7.45508 29.8828 7.45508C31.2715 7.45508 32.3672 7.91504 33.1699 8.83496C33.9727 9.74902 34.3564 11.1523 34.3213 13.0449H28.1338C28.1514 13.7773 28.3506 14.3486 28.7314 14.7588C29.1123 15.1631 29.5869 15.3652 30.1553 15.3652C30.542 15.3652 30.8672 15.2598 31.1309 15.0488C31.3945 14.8379 31.5938 14.498 31.7285 14.0293ZM31.8691 11.5332C31.8516 10.8184 31.667 10.2764 31.3154 9.90723C30.9639 9.53223 30.5361 9.34473 30.0322 9.34473C29.4932 9.34473 29.0479 9.54102 28.6963 9.93359C28.3447 10.3262 28.1719 10.8594 28.1777 11.5332H31.8691ZM36.3428 17V4.11523H38.8125V17H36.3428ZM46.3887 17V4.11523H51.8643C53.2412 4.11523 54.2402 4.23242 54.8613 4.4668C55.4883 4.69531 55.9893 5.10547 56.3643 5.69727C56.7393 6.28906 56.9268 6.96582 56.9268 7.72754C56.9268 8.69434 56.6426 9.49414 56.0742 10.127C55.5059 10.7539 54.6562 11.1494 53.5254 11.3135C54.0879 11.6416 54.5508 12.002 54.9141 12.3945C55.2832 12.7871 55.7783 13.4844 56.3994 14.4863L57.9727 17H54.8613L52.9805 14.1963C52.3125 13.1943 51.8555 12.5645 51.6094 12.3066C51.3633 12.043 51.1025 11.8643 50.8271 11.7705C50.5518 11.6709 50.1152 11.6211 49.5176 11.6211H48.9902V17H46.3887ZM48.9902 9.56445H50.915C52.1631 9.56445 52.9424 9.51172 53.2529 9.40625C53.5635 9.30078 53.8066 9.11914 53.9824 8.86133C54.1582 8.60352 54.2461 8.28125 54.2461 7.89453C54.2461 7.46094 54.1289 7.1123 53.8945 6.84863C53.666 6.5791 53.3408 6.40918 52.9189 6.33887C52.708 6.30957 52.0752 6.29492 51.0205 6.29492H48.9902V9.56445ZM64.7754 14.0293L67.2363 14.4424C66.9199 15.3447 66.4189 16.0332 65.7334 16.5078C65.0537 16.9766 64.2012 17.2109 63.1758 17.2109C61.5527 17.2109 60.3516 16.6807 59.5723 15.6201C58.957 14.7705 58.6494 13.6982 58.6494 12.4033C58.6494 10.8564 59.0537 9.64648 59.8623 8.77344C60.6709 7.89453 61.6934 7.45508 62.9297 7.45508C64.3184 7.45508 65.4141 7.91504 66.2168 8.83496C67.0195 9.74902 67.4033 11.1523 67.3682 13.0449H61.1807C61.1982 13.7773 61.3975 14.3486 61.7783 14.7588C62.1592 15.1631 62.6338 15.3652 63.2021 15.3652C63.5889 15.3652 63.9141 15.2598 64.1777 15.0488C64.4414 14.8379 64.6406 14.498 64.7754 14.0293ZM64.916 11.5332C64.8984 10.8184 64.7139 10.2764 64.3623 9.90723C64.0107 9.53223 63.583 9.34473 63.0791 9.34473C62.54 9.34473 62.0947 9.54102 61.7432 9.93359C61.3916 10.3262 61.2188 10.8594 61.2246 11.5332H64.916ZM69.3896 6.40039V4.11523H71.8594V6.40039H69.3896ZM69.3896 17V7.66602H71.8594V17H69.3896ZM82.5381 10.4258L80.1035 10.8652C80.0215 10.3789 79.834 10.0127 79.541 9.7666C79.2539 9.52051 78.8789 9.39746 78.416 9.39746C77.8008 9.39746 77.3086 9.61133 76.9395 10.0391C76.5762 10.4609 76.3945 11.1699 76.3945 12.166C76.3945 13.2734 76.5791 14.0557 76.9482 14.5127C77.3232 14.9697 77.8242 15.1982 78.4512 15.1982C78.9199 15.1982 79.3037 15.0664 79.6025 14.8027C79.9014 14.5332 80.1123 14.0732 80.2354 13.4229L82.6611 13.8359C82.4092 14.9492 81.9258 15.79 81.2109 16.3584C80.4961 16.9268 79.5381 17.2109 78.3369 17.2109C76.9717 17.2109 75.8818 16.7803 75.0674 15.9189C74.2588 15.0576 73.8545 13.8652 73.8545 12.3418C73.8545 10.8008 74.2617 9.60254 75.0762 8.74707C75.8906 7.88574 76.9922 7.45508 78.3809 7.45508C79.5176 7.45508 80.4199 7.70117 81.0879 8.19336C81.7617 8.67969 82.2451 9.42383 82.5381 10.4258ZM86.8799 4.11523V8.85254C87.6768 7.9209 88.6289 7.45508 89.7363 7.45508C90.3047 7.45508 90.8174 7.56055 91.2744 7.77148C91.7314 7.98242 92.0742 8.25195 92.3027 8.58008C92.5371 8.9082 92.6953 9.27148 92.7773 9.66992C92.8652 10.0684 92.9092 10.6865 92.9092 11.5244V17H90.4395V12.0693C90.4395 11.0908 90.3926 10.4697 90.2988 10.2061C90.2051 9.94238 90.0381 9.73438 89.7979 9.58203C89.5635 9.42383 89.2676 9.34473 88.9102 9.34473C88.5 9.34473 88.1338 9.44434 87.8115 9.64355C87.4893 9.84277 87.252 10.1445 87.0996 10.5488C86.9531 10.9473 86.8799 11.5391 86.8799 12.3242V17H84.4102V4.11523H86.8799ZM95.2383 7.66602H97.5146V8.94043C98.3291 7.9502 99.2988 7.45508 100.424 7.45508C101.021 7.45508 101.54 7.57812 101.979 7.82422C102.419 8.07031 102.779 8.44238 103.061 8.94043C103.471 8.44238 103.913 8.07031 104.388 7.82422C104.862 7.57812 105.369 7.45508 105.908 7.45508C106.594 7.45508 107.174 7.5957 107.648 7.87695C108.123 8.15234 108.478 8.55957 108.712 9.09863C108.882 9.49707 108.967 10.1416 108.967 11.0322V17H106.497V11.665C106.497 10.7393 106.412 10.1416 106.242 9.87207C106.014 9.52051 105.662 9.34473 105.188 9.34473C104.842 9.34473 104.517 9.4502 104.212 9.66113C103.907 9.87207 103.688 10.1826 103.553 10.5928C103.418 10.9971 103.351 11.6387 103.351 12.5176V17H100.881V11.8848C100.881 10.9766 100.837 10.3906 100.749 10.127C100.661 9.86328 100.523 9.66699 100.336 9.53809C100.154 9.40918 99.9053 9.34473 99.5889 9.34473C99.208 9.34473 98.8652 9.44727 98.5605 9.65234C98.2559 9.85742 98.0361 10.1533 97.9014 10.54C97.7725 10.9268 97.708 11.5684 97.708 12.4648V17H95.2383V7.66602ZM113.282 10.5137L111.041 10.1094C111.293 9.20703 111.727 8.53906 112.342 8.10547C112.957 7.67188 113.871 7.45508 115.084 7.45508C116.186 7.45508 117.006 7.58691 117.545 7.85059C118.084 8.1084 118.462 8.43945 118.679 8.84375C118.901 9.24219 119.013 9.97754 119.013 11.0498L118.986 13.9326C118.986 14.7529 119.024 15.3594 119.101 15.752C119.183 16.1387 119.332 16.5547 119.549 17H117.105C117.041 16.8359 116.962 16.5928 116.868 16.2705C116.827 16.124 116.798 16.0273 116.78 15.9805C116.358 16.3906 115.907 16.6982 115.427 16.9033C114.946 17.1084 114.434 17.2109 113.889 17.2109C112.928 17.2109 112.169 16.9502 111.612 16.4287C111.062 15.9072 110.786 15.248 110.786 14.4512C110.786 13.9238 110.912 13.4551 111.164 13.0449C111.416 12.6289 111.768 12.3125 112.219 12.0957C112.676 11.873 113.332 11.6797 114.188 11.5156C115.342 11.2988 116.142 11.0967 116.587 10.9092V10.6631C116.587 10.1885 116.47 9.85156 116.235 9.65234C116.001 9.44727 115.559 9.34473 114.908 9.34473C114.469 9.34473 114.126 9.43262 113.88 9.6084C113.634 9.77832 113.435 10.0801 113.282 10.5137ZM116.587 12.5176C116.271 12.623 115.77 12.749 115.084 12.8955C114.398 13.042 113.95 13.1855 113.739 13.3262C113.417 13.5547 113.256 13.8447 113.256 14.1963C113.256 14.542 113.385 14.8408 113.643 15.0928C113.9 15.3447 114.229 15.4707 114.627 15.4707C115.072 15.4707 115.497 15.3242 115.901 15.0312C116.2 14.8086 116.396 14.5361 116.49 14.2139C116.555 14.0029 116.587 13.6016 116.587 13.0098V12.5176ZM129.946 17H127.477V12.2363C127.477 11.2285 127.424 10.5781 127.318 10.2852C127.213 9.98633 127.04 9.75488 126.8 9.59082C126.565 9.42676 126.281 9.34473 125.947 9.34473C125.52 9.34473 125.136 9.46191 124.796 9.69629C124.456 9.93066 124.222 10.2412 124.093 10.6279C123.97 11.0146 123.908 11.7295 123.908 12.7725V17H121.438V7.66602H123.732V9.03711C124.547 7.98242 125.572 7.45508 126.809 7.45508C127.354 7.45508 127.852 7.55469 128.303 7.75391C128.754 7.94727 129.094 8.19629 129.322 8.50098C129.557 8.80566 129.718 9.15137 129.806 9.53809C129.899 9.9248 129.946 10.4785 129.946 11.1992V17Z" fill="black"/>
</svg>
