<svg width="92" height="36" viewBox="0 0 92 36" fill="none" xmlns="http://www.w3.org/2000/svg">
<g clip-path="url(#clip0_381_151)">
<mask id="mask0_381_151" style="mask-type:alpha" maskUnits="userSpaceOnUse" x="0" y="-1" width="93" height="38">
<path d="M89.8 5.29993C87.6 11.2999 79.8 17.2999 74.7 17.2999C71.3 17.2999 70.2 14.5999 69.9 12.0999C69.4 12.4999 69 12.8999 68.7 13.1999C69 12.6999 69.4 12.1999 69.8 11.6999C71.7 9.59993 73.7 7.99993 74.7 7.39993C76.2 6.39993 77 6.79993 77.5 7.39993C79.3 6.39993 77.9 3.39993 74.3 5.89993C73 6.79993 71.5 7.99993 70.1 9.39993C69.4 10.1999 68.8 10.9999 68.5 11.3999C68.8 10.7999 69.1 10.1999 69.5 9.59993C70 8.39993 70.3 7.39993 70.3 6.49993C69.6 5.39993 67.4 4.49993 66.4 4.69993C66.5 5.59993 65 8.89993 63.6 12.2999C63.1 12.6999 62.6 13.1999 62 13.4999C62.5 12.2999 62.9 11.1999 62.9 10.1999C62.3 8.49993 59 7.59993 57.4 8.39993C56.6 8.79993 55.6 10.0999 54.6 11.6999C53.8 12.4999 52.8 13.1999 51.9 13.5999C52 13.0999 52.1 12.5999 52.1 12.1999C52.1 11.1999 51.4 10.5999 50.5 10.2999C51 9.39993 51.4 8.59993 52 7.69993C52.8 7.69993 57.4 7.49993 58 3.29993C58.4 0.899929 56.6 -0.700071 54.1 -0.300071C51.6 1.09993 49.8 4.39993 49.2 5.49993C50.1 5.69993 51 5.79993 51.4 5.79993C50.9 5.89993 50 5.89993 49.1 5.69993C47.2 5.49993 44.5 4.59993 42.1 5.19993C41.5 5.79993 40.9 7.29993 41.1 8.09993C41.7 7.59993 43.1 7.39993 44 7.39993C45.1 7.39993 45.7 7.49993 47.4 7.59993C48.4 7.59993 49.5 7.69993 49.8 7.69993C49.5 7.99993 48.6 7.99993 47.7 8.09993C46.8 9.69993 45.9 11.2999 45 13.2999C44 15.1999 42.8 18.9999 42.9 21.4999C43.3 22.6999 46.5 22.4999 47.5 21.8999C49 20.4999 50.8 17.6999 51.7 15.1999C51.4 15.2999 51.1 15.2999 50.7 15.1999C51.2 15.0999 51.5 14.8999 51.8 14.7999C52.5 14.4999 53.2 14.0999 53.9 13.6999C52.8 16.1999 52 18.8999 52.3 20.8999C53 22.0999 55.9 21.6999 56.9 21.1999C58.3 19.9999 60.1 17.5999 61.4 15.1999H60.5C61.1 15.0999 61.5 14.8999 61.9 14.6999L63.1 14.0999C62.3 16.0999 61.7 18.0999 61.6 19.3999C62 20.3999 64 20.5999 65.2 20.4999C65.3 19.6999 65.5 18.8999 66.4 16.7999C66.9 15.7999 67.5 14.8999 68.1 14.0999C68.3 15.6999 68.9 18.0999 71.1 19.3999C69.9 20.2999 66.9 20.8999 64.3 21.3999C56.2 22.9999 33.1 23.3999 23.1 27.3999C23.2 25.9999 23.6 23.7999 24 22.3999C24.4 20.9999 25 18.8999 25.7 16.5999C24.6 16.7999 23.2 16.9999 22.7 16.8999C24.6 16.4999 26.1 16.0999 27.2 15.6999C28.7 15.1999 30 14.6999 30.9 14.1999C31.1 14.0999 31.3 13.9999 31.5 13.7999C31.7 13.5999 31.9 13.4999 32 13.3999C31.9 13.6999 31.7 13.8999 31.3 14.0999C30.9 14.9999 30.5 15.8999 30.3 16.5999C29.2 19.3999 28.6 22.9999 29.1 24.3999C30 25.0999 32.1 24.6999 32.6 23.9999C35 22.0999 36.6 18.7999 35.3 17.4999C36 17.1999 36.9 16.6999 37.7 16.0999C38 15.5999 38.3 15.1999 38.4 14.8999C38.2 15.5999 37.8 16.1999 37.5 16.7999C37.1 17.9999 36.8 19.0999 36.6 19.8999C36 22.5999 38.4 23.5999 39.9 23.2999C39.4 21.2999 42.7 14.0999 44.5 11.1999C44.3 11.0999 44.1 11.0999 43.9 10.9999C42.9 10.5999 41.8 10.2999 40.8 10.1999C40.2 10.7999 39.7 11.5999 39.2 12.5999C37.3 15.4999 35.6 16.3999 34.6 16.5999C34.2 16.6999 34 16.4999 33.3 16.5999C33.7 16.2999 34.3 16.4999 34.7 16.2999C35.4 14.7999 36.2 13.3999 37 12.4999C36.3 12.1999 35.7 11.9999 35 11.6999C34.8 11.5999 34.5 11.4999 34.3 11.4999C35.5 10.0999 36.3 8.39993 35.9 6.29993C35.2 2.49993 33.1 -0.300071 26 0.299929C19.4 0.599929 5.30002 5.19993 0.500024 14.6999C-0.399976 16.7999 1.40002 21.1999 2.70002 21.0999C4.10002 15.2999 14.8 7.29993 23.9 4.49993C23.9 5.59993 23.5 7.49993 23.5 7.49993C23.5 7.49993 22.8 9.59993 21.8 12.4999C22.7 12.5999 23.6 12.4999 24 12.4999C21.8 12.9999 19.4 12.7999 18.8 12.7999H18.6C17 12.5999 15.9 12.1999 15.5 11.5999C15.2 13.1999 14.8 16.5999 17.9 17.1999C18.5 17.2999 19.4 17.2999 20.3 17.1999C19.3 20.7999 18.4 24.3999 18.6 25.6999C18.8 26.8999 19.9 27.4999 21.1 27.8999L22.3 27.5999C22 27.6999 21.7 27.8999 21.4 27.9999C20.8 28.2999 20.2 28.6999 19.7 29.0999C18.9 30.3999 18.4 32.9999 19.1 34.8999C20.6 33.2999 24.7 31.2999 28.1 30.4999C26.2 31.3999 24.1 32.0999 23.5 32.9999C22.9 33.9999 23.1 35.0999 23.3 36.3999C33.1 28.8999 57 28.3999 65.1 25.8999C71.7 23.7999 71.9 22.0999 71.6 19.6999C72.4 20.0999 73.4 20.2999 74.7 20.3999C80.2 20.4999 88.1 17.9999 91.9 11.5999C92.8 9.19993 91.5 5.39993 89.8 5.29993V5.29993ZM56 2.09993C57.2 2.49993 56.8 4.39993 55.4 5.49993C55 5.89993 54.2 5.99993 53.2 5.99993C53.9 4.79993 55 2.99993 56 2.09993V2.09993ZM50.7 14.0999H50C49.7 13.9999 49.1 13.4999 50 11.6999C50.9 11.7999 51.3 12.6999 50.7 14.0999ZM47.2 19.4999C47.2 18.4999 47.9 16.4999 48.7 14.5999C48.9 14.9999 49.2 15.0999 49.5 15.1999H50.3C49.1 17.4999 47.2 20.3999 47.2 19.4999V19.4999ZM61.1 10.8999C62 10.2999 61.7 11.8999 60.7 13.6999C60.7 13.7999 60.6 13.7999 60.6 13.8999H60.5C59.7 13.8999 59.5 13.1999 59.6 12.3999C60.1 11.7999 60.6 11.2999 61.1 10.8999V10.8999ZM56.9 18.3999C56.9 17.3999 57.6 15.4999 58.7 13.7999C58.9 14.5999 59.4 14.8999 60 14.9999C58.6 17.1999 56.9 19.3999 56.9 18.3999V18.3999ZM34.1 17.7999C34.5 17.5999 34.9 18.3999 34.6 19.1999C34.1 20.4999 32.7 22.5999 32.7 21.7999C32.9 20.6999 33.6 18.5999 34.1 17.7999ZM25.3 4.09993C24.9 3.89993 24.5 3.79993 24.2 3.69993C24.8 3.69993 25.4 3.79993 25.9 3.99993L27.7 3.69993C35.4 2.69993 36 8.79993 29.4 11.1999C28.6 11.4999 27.8 11.6999 27 11.9999C27.5 10.0999 27.9 8.49993 28 7.69993C28.1 5.99993 27 4.69993 25.3 4.09993Z" fill="white"/>
</mask>
<g mask="url(#mask0_381_151)">
<rect width="94" height="36" fill="#E73A24"/>
</g>
</g>
<defs>
<clipPath id="clip0_381_151">
<rect width="92" height="36" fill="white"/>
</clipPath>
</defs>
</svg>
